<svg width="314" height="315" viewBox="0 0 314 315" fill="none" xmlns="http://www.w3.org/2000/svg">
<circle cx="156.946" cy="157.49" r="156.946" fill="#FFA52F" fill-opacity="0.4"/>
<circle cx="157.194" cy="157.489" r="130.194" fill="#FFB149" fill-opacity="0.2"/>
<path d="M258.717 169.79C257.097 169.79 256.523 170.696 255.935 171.261C255.308 171.826 255.256 172.798 255.818 173.429C256.379 174.059 257.345 174.112 257.972 173.547C258.273 173.284 258.442 172.916 258.469 172.548C258.521 172.299 258.364 171.957 258.586 171.826C259.396 171.406 260.284 171.655 260.819 172.548C261.799 174.046 261.041 175.754 259.683 177.002C258.534 178.053 257.541 178.302 256.732 178.617C255.661 178.893 254.407 179.025 253.141 178.814C250.568 178.368 247.982 176.818 245.514 174.847C242.811 172.68 239.964 169.777 236.934 166.571C236.517 166.125 236.086 165.665 235.655 165.218C235.655 165.218 235.655 165.218 235.655 165.232C231.567 160.897 227.101 156.128 222.099 151.977C217.294 148.023 211.535 144.253 205.593 142.44C200.578 140.838 195.237 140.417 190.915 140.824C190.288 140.877 189.674 140.956 189.1 141.048C188.59 141.127 188.107 141.232 187.65 141.324C184.712 141.98 182.87 142.519 180.833 143.347C180.781 143.36 180.742 143.386 180.703 143.399C180.246 143.57 179.815 143.754 179.384 143.938C179.41 143.938 179.423 143.938 179.449 143.938C178.639 144.292 177.778 144.713 176.772 145.199C175.571 145.829 174.461 146.512 173.429 147.13C172.423 147.8 171.496 148.443 170.647 149.048C170.543 149.127 170.438 149.205 170.334 149.284C169.877 149.626 169.459 149.967 169.054 150.296C168.101 151.071 166.991 152.03 166.09 152.844C165.502 152.686 164.849 152.739 164.275 153.067L164.079 153.172C161.48 154.67 159.103 155.327 156.844 155.34L156.844 112.857C157.432 112.595 157.837 112.003 157.837 111.32C157.837 110.637 157.419 110.046 156.844 109.783L156.844 107.984L160.775 108.772L156.152 92.4961L151.529 108.772L155.46 107.984L155.46 109.783C154.872 110.046 154.467 110.637 154.467 111.32C154.467 112.003 154.885 112.595 155.46 112.857L155.46 155.327C153.37 155.104 151.359 154.328 149.361 153.159C149.218 153.067 149.035 153.002 148.865 152.936C148.434 152.805 147.99 152.805 147.585 152.91C146.684 152.082 145.548 151.11 144.582 150.322C144.177 149.993 143.759 149.652 143.302 149.31C143.197 149.232 143.093 149.153 142.989 149.074C142.14 148.47 141.213 147.826 140.207 147.156C139.162 146.539 138.065 145.856 136.864 145.225C135.858 144.739 134.996 144.319 134.187 143.964C134.213 143.964 134.226 143.964 134.252 143.964C133.821 143.767 133.39 143.583 132.933 143.425C132.894 143.412 132.855 143.386 132.803 143.373C130.765 142.532 128.924 141.994 125.986 141.35C125.529 141.245 125.046 141.153 124.536 141.074C123.962 140.982 123.348 140.903 122.721 140.851C118.399 140.443 113.071 140.877 108.043 142.466C102.101 144.292 96.3421 148.049 91.5364 152.003C86.5348 156.154 82.0817 160.91 77.9812 165.245C77.5503 165.704 77.1193 166.151 76.7014 166.598C73.6718 169.803 70.838 172.706 68.1217 174.874C65.6536 176.844 63.0679 178.407 60.4953 178.841C59.2286 179.051 57.9619 178.92 56.9041 178.644C56.0814 178.315 55.102 178.066 53.9528 177.028C52.5816 175.78 51.8242 174.085 52.8167 172.575C53.3521 171.668 54.2401 171.432 55.0498 171.852C55.2718 171.984 55.115 172.325 55.1673 172.575C55.2065 172.943 55.3762 173.297 55.6635 173.573C56.2903 174.138 57.2567 174.085 57.8182 173.455C58.3798 172.824 58.3275 171.852 57.7007 171.287C57.1131 170.736 56.5385 169.816 54.9192 169.816C53.2868 169.724 50.4922 172.049 51.0798 175.018C51.1582 175.307 51.1974 175.609 51.341 175.911C51.3933 176.03 51.4455 176.148 51.4977 176.266C51.55 176.384 51.6544 176.542 51.7328 176.686C52.0593 177.264 52.451 177.711 52.9081 178.184C54.2662 179.537 55.5982 179.944 56.2903 180.246C57.7138 180.719 59.2155 180.89 60.7696 180.732C61.9449 180.614 63.094 180.273 64.2302 179.826C64.4391 179.734 64.6219 179.629 64.8178 179.537C64.8178 179.668 64.8831 179.787 65.0137 179.839L151.346 216.542L151.346 223.635L156.178 219.563L161.01 223.635L161.01 216.607L249.575 180.167C249.667 180.128 249.732 180.049 249.758 179.957C250.803 180.351 251.848 180.64 252.892 180.745C254.446 180.903 255.948 180.745 257.372 180.259C258.051 179.957 259.396 179.55 260.754 178.197C261.211 177.737 261.603 177.278 261.929 176.7C262.008 176.568 262.112 176.411 262.164 176.279C262.216 176.161 262.269 176.043 262.321 175.924C262.465 175.622 262.504 175.32 262.582 175.031C263.157 172.062 260.375 169.737 258.743 169.829L258.717 169.79ZM65.4055 179.222C69.6104 177.107 72.4704 174.716 76.7537 170.867C76.9887 170.657 77.2238 170.447 77.4589 170.236C80.1098 167.833 82.8391 165.245 85.7121 162.683C88.4806 160.213 91.3536 157.796 94.344 155.629C95.8328 154.525 97.3607 153.514 98.9016 152.555C103.159 150.007 107.233 148.128 112.104 147.13C113.057 146.933 113.998 146.775 114.977 146.657C116.74 146.46 118.608 146.407 120.71 146.565C121.363 146.617 122.016 146.683 122.643 146.775C126.247 147.379 128.624 147.971 131.17 148.877C131.17 148.877 131.17 148.877 131.157 148.877C131.51 148.995 131.836 149.113 132.176 149.245C133.795 149.862 135.532 150.624 137.726 151.596C143.589 154.526 144.817 155.327 145.901 155.931C146.136 156.64 146.684 157.232 147.455 157.468C147.455 157.468 147.716 157.547 148.173 157.691C150.706 158.532 153.161 158.992 155.434 159.163L155.434 211.576L154.742 211.576C152.835 211.576 151.294 213.126 151.294 215.044L151.294 215.714L65.4055 179.222ZM160.971 215.806L160.971 215.071C160.971 213.153 159.43 211.603 157.523 211.603L156.831 211.603L156.831 159.255C160.984 159.347 164.444 158.48 166.612 157.258C167.121 156.956 167.474 156.496 167.657 155.984C168.741 155.379 169.929 154.591 175.858 151.636C177.686 150.821 179.188 150.164 180.572 149.613C180.794 149.521 181.003 149.442 181.238 149.35C181.63 149.205 182.022 149.048 182.426 148.916C182.426 148.916 182.426 148.916 182.413 148.916C184.96 148.01 187.35 147.419 190.941 146.815C191.581 146.723 192.221 146.657 192.874 146.604C194.976 146.447 196.844 146.499 198.606 146.696C199.586 146.815 200.539 146.972 201.479 147.169C206.35 148.168 210.425 150.046 214.682 152.594C216.223 153.553 217.764 154.565 219.24 155.668C222.23 157.836 225.103 160.253 227.872 162.723C230.744 165.271 233.474 167.872 236.125 170.263C236.36 170.473 236.595 170.683 236.83 170.893C239.272 173.1 241.662 175.136 244.038 176.818C245.488 177.829 247.173 178.867 248.923 179.642L160.945 215.846L160.971 215.806Z" fill="#FF9A31"/>
</svg>
