<svg width="212" height="132" viewBox="0 0 212 132" fill="none" xmlns="http://www.w3.org/2000/svg">
<path d="M207.767 78.0428C206.148 78.0428 205.573 78.9492 204.986 79.514C204.359 80.0789 204.307 81.051 204.868 81.6815C205.43 82.3121 206.396 82.3646 207.023 81.7997C207.323 81.537 207.493 81.1692 207.519 80.8014C207.571 80.5518 207.415 80.2103 207.637 80.0789C208.446 79.6585 209.334 79.9081 209.87 80.8014C210.849 82.2989 210.092 84.0066 208.734 85.2546C207.584 86.3055 206.592 86.5551 205.782 86.8703C204.711 87.1462 203.458 87.2776 202.191 87.0674C199.618 86.6208 197.033 85.0707 194.565 83.1002C191.861 80.9327 189.015 78.0296 185.985 74.8244C185.567 74.3778 185.136 73.918 184.705 73.4714C184.705 73.4714 184.705 73.4714 184.705 73.4845C180.618 69.1495 176.152 64.3811 171.15 60.23C166.344 56.276 160.585 52.5059 154.644 50.6931C149.629 49.0905 144.288 48.6701 139.965 49.0773C139.338 49.1299 138.725 49.2087 138.15 49.3006C137.641 49.3795 137.158 49.4845 136.701 49.5765C133.762 50.2333 131.921 50.7719 129.884 51.5995C129.832 51.6126 129.792 51.6389 129.753 51.652C129.296 51.8228 128.865 52.0067 128.434 52.1906C128.46 52.1906 128.473 52.1906 128.5 52.1906C127.69 52.5453 126.828 52.9657 125.823 53.4517C124.621 54.0822 123.511 54.7653 122.479 55.3827C121.474 56.0527 120.547 56.6964 119.698 57.3006C119.593 57.3794 119.489 57.4583 119.384 57.5371C118.927 57.8786 118.51 58.2202 118.105 58.5486C117.151 59.3236 116.041 60.2825 115.14 61.097C114.553 60.9394 113.9 60.9919 113.325 61.3203L113.129 61.4254C110.531 62.9229 108.154 63.5797 105.895 63.5929L105.895 21.1102C106.482 20.8475 106.887 20.2564 106.887 19.5733C106.887 18.8902 106.469 18.2991 105.895 18.0364L105.895 16.2367L109.825 17.0249L105.202 0.749042L100.58 17.0249L104.51 16.2367L104.51 18.0364C103.923 18.2991 103.518 18.8902 103.518 19.5733C103.518 20.2564 103.936 20.8475 104.51 21.1102L104.51 63.5797C102.421 63.3564 100.41 62.5814 98.4118 61.4123C98.2682 61.3203 98.0854 61.2546 97.9156 61.1889C97.4846 61.0576 97.0406 61.0576 96.6358 61.1627C95.7348 60.3351 94.5986 59.363 93.6323 58.5748C93.2274 58.2464 92.8095 57.9049 92.3525 57.5633C92.248 57.4845 92.1435 57.4057 92.0391 57.3269C91.1902 56.7226 90.2631 56.0789 89.2575 55.409C88.2128 54.7916 87.1159 54.1085 85.9144 53.478C84.9089 52.9919 84.047 52.5716 83.2374 52.2169C83.2635 52.2169 83.2765 52.2169 83.3027 52.2169C82.8717 52.0198 82.4408 51.8359 81.9837 51.6783C81.9445 51.6652 81.9053 51.6389 81.8531 51.6258C79.8159 50.785 77.9746 50.2464 75.0364 49.6028C74.5793 49.4977 74.0961 49.4057 73.5868 49.3269C73.0122 49.235 72.3985 49.1561 71.7716 49.1036C67.4491 48.6964 62.1211 49.1299 57.0934 50.7193C51.1516 52.5453 45.3926 56.3023 40.5869 60.2563C35.5854 64.4073 31.1323 69.1626 27.0318 73.4976C26.6008 73.9574 26.1699 74.404 25.752 74.8506C22.7223 78.0559 19.8885 80.959 17.1723 83.1265C14.7041 85.0969 12.1185 86.6601 9.54586 87.0936C8.27914 87.3038 7.01243 87.1724 5.95465 86.8966C5.13194 86.5682 4.15252 86.3186 3.00334 85.2808C1.63215 84.0329 0.874733 82.3383 1.86721 80.8276C2.40263 79.9212 3.29063 79.6848 4.10029 80.1051C4.32229 80.2365 4.16558 80.578 4.21782 80.8276C4.25699 81.1954 4.42676 81.5501 4.71406 81.826C5.34088 82.3908 6.30724 82.3383 6.86878 81.7078C7.43031 81.0772 7.37808 80.1051 6.75125 79.5403C6.1636 78.9886 5.589 78.069 3.9697 78.069C2.33733 77.9771 -0.457276 80.3022 0.130374 83.271C0.208728 83.56 0.247905 83.8621 0.391553 84.1642C0.443788 84.2825 0.496024 84.4007 0.54826 84.5189C0.600495 84.6371 0.704967 84.7948 0.78332 84.9393C1.10979 85.5173 1.50156 85.9639 1.95862 86.4368C3.31675 87.7898 4.64876 88.1971 5.34088 88.4992C6.76431 88.9721 8.26608 89.1429 9.82009 88.9852C10.9954 88.867 12.1446 88.5255 13.2807 88.0789C13.4897 87.9869 13.6725 87.8818 13.8684 87.7899C13.8684 87.9212 13.9337 88.0394 14.0642 88.092L100.397 124.795L100.397 131.888L105.229 127.816L110.06 131.888L110.06 124.86L198.626 88.4204C198.717 88.381 198.783 88.3022 198.809 88.2102C199.854 88.6043 200.898 88.8933 201.943 88.9984C203.497 89.156 204.999 88.9984 206.422 88.5124C207.101 88.2102 208.446 87.803 209.804 86.45C210.261 85.9902 210.653 85.5304 210.98 84.9525C211.058 84.8211 211.163 84.6635 211.215 84.5321C211.267 84.4139 211.319 84.2956 211.371 84.1774C211.515 83.8753 211.554 83.5731 211.633 83.2841C212.207 80.3154 209.426 77.9902 207.793 78.0822L207.767 78.0428ZM14.456 87.4746C18.661 85.3596 21.5209 82.9688 25.8042 79.1199C26.0393 78.9097 26.2743 78.6996 26.5094 78.4894C29.1604 76.0854 31.8897 73.4976 34.7626 70.936C37.5311 68.4664 40.4041 66.0494 43.3946 63.8819C44.8833 62.7784 46.4112 61.7669 47.9522 60.808C52.2094 58.2596 56.2837 56.3811 61.1547 55.3827C62.108 55.1857 63.0483 55.028 64.0277 54.9098C65.7906 54.7128 67.6581 54.6602 69.7606 54.8179C70.4135 54.8704 71.0665 54.9361 71.6933 55.028C75.2975 55.6323 77.6743 56.2234 80.2207 57.1298C80.2207 57.1298 80.2208 57.1298 80.2077 57.1298C80.5603 57.2481 80.8868 57.3663 81.2263 57.4977C82.8456 58.1151 84.5824 58.877 86.7763 59.849C92.6398 62.7784 93.8673 63.5797 94.9512 64.184C95.1863 64.8934 95.7347 65.4845 96.5052 65.721C96.5052 65.721 96.7664 65.7998 97.2235 65.9443C99.7569 66.785 102.212 67.2448 104.484 67.4155L104.484 119.829L103.792 119.829C101.885 119.829 100.345 121.379 100.345 123.297L100.345 123.967L14.456 87.4746ZM110.021 124.059L110.021 123.323C110.021 121.406 108.48 119.855 106.574 119.855L105.882 119.855L105.882 67.5075C110.034 67.5994 113.495 66.7324 115.663 65.5108C116.172 65.2086 116.525 64.7489 116.707 64.2366C117.791 63.6323 118.98 62.8441 124.908 59.8885C126.737 59.074 128.238 58.4172 129.623 57.8655C129.845 57.7735 130.054 57.6947 130.289 57.6028C130.68 57.4583 131.072 57.3006 131.477 57.1693C131.477 57.1693 131.477 57.1693 131.464 57.1693C134.01 56.2629 136.4 55.6717 139.991 55.0675C140.631 54.9755 141.271 54.9098 141.924 54.8573C144.027 54.6996 145.894 54.7522 147.657 54.9492C148.636 55.0675 149.59 55.2251 150.53 55.4221C155.401 56.4205 159.475 58.299 163.733 60.8474C165.274 61.8064 166.814 62.8179 168.29 63.9213C171.281 66.0888 174.154 68.5059 176.922 70.9755C179.795 73.5239 182.524 76.1249 185.175 78.5157C185.41 78.7259 185.645 78.936 185.88 79.1462C188.323 81.3531 190.712 83.3892 193.089 85.0707C194.539 86.0822 196.223 87.1199 197.973 87.895L109.995 124.098L110.021 124.059Z" fill="#FFAD2C"/>
</svg>
