<svg width="80" height="80" viewBox="0 0 80 80" fill="none" xmlns="http://www.w3.org/2000/svg">
<g id="fluent:delete-16-filled" clip-path="url(#clip0_25_1527)">
<circle id="Ellipse 2968" cx="40" cy="40" r="40" fill="#EB5769"/>
<path id="Vector" d="M35.24 21.4286H42.6C42.6 20.4435 42.2123 19.4987 41.5222 18.8022C40.832 18.1056 39.896 17.7143 38.92 17.7143C37.944 17.7143 37.008 18.1056 36.3178 18.8022C35.6277 19.4987 35.24 20.4435 35.24 21.4286ZM31.56 21.4286C31.56 19.4584 32.3354 17.5689 33.7157 16.1758C35.096 14.7827 36.968 14 38.92 14C40.872 14 42.744 14.7827 44.1243 16.1758C45.5046 17.5689 46.28 19.4584 46.28 21.4286H61C61.488 21.4286 61.956 21.6242 62.3011 21.9725C62.6461 22.3208 62.84 22.7932 62.84 23.2857C62.84 23.7783 62.6461 24.2506 62.3011 24.5989C61.956 24.9472 61.488 25.1429 61 25.1429H58.9245L54.4901 57.9697C54.1893 60.1943 53.1002 62.2336 51.4243 63.71C49.7484 65.1864 47.5992 66 45.3747 66H32.4653C30.2408 66 28.0916 65.1864 26.4157 63.71C24.7398 62.2336 23.6507 60.1943 23.3499 57.9697L18.9155 25.1429H16.84C16.352 25.1429 15.884 24.9472 15.5389 24.5989C15.1939 24.2506 15 23.7783 15 23.2857C15 22.7932 15.1939 22.3208 15.5389 21.9725C15.884 21.6242 16.352 21.4286 16.84 21.4286H31.56ZM35.24 34.4286C35.24 33.936 35.0461 33.4637 34.7011 33.1154C34.356 32.7671 33.888 32.5714 33.4 32.5714C32.912 32.5714 32.444 32.7671 32.0989 33.1154C31.7539 33.4637 31.56 33.936 31.56 34.4286V53C31.56 53.4925 31.7539 53.9649 32.0989 54.3132C32.444 54.6615 32.912 54.8571 33.4 54.8571C33.888 54.8571 34.356 54.6615 34.7011 54.3132C35.0461 53.9649 35.24 53.4925 35.24 53V34.4286ZM44.44 32.5714C43.952 32.5714 43.484 32.7671 43.1389 33.1154C42.7939 33.4637 42.6 33.936 42.6 34.4286V53C42.6 53.4925 42.7939 53.9649 43.1389 54.3132C43.484 54.6615 43.952 54.8571 44.44 54.8571C44.928 54.8571 45.396 54.6615 45.7411 54.3132C46.0861 53.9649 46.28 53.4925 46.28 53V34.4286C46.28 33.936 46.0861 33.4637 45.7411 33.1154C45.396 32.7671 44.928 32.5714 44.44 32.5714Z" fill="white"/>
</g>
<defs>
<clipPath id="clip0_25_1527">
<rect width="80" height="80" fill="white"/>
</clipPath>
</defs>
</svg>
