<svg width="24" height="24" viewBox="0 0 24 24" fill="none" xmlns="http://www.w3.org/2000/svg">
<mask id="mask0_37_12015" style="mask-type:alpha" maskUnits="userSpaceOnUse" x="4" y="4" width="16" height="16">
<rect x="4" y="4" width="16" height="16" fill="#D9D9D9"/>
</mask>
<g mask="url(#mask0_37_12015)">
<path d="M7.01663 17.4498H17C17.2444 17.4498 17.45 17.5331 17.6166 17.6998C17.7833 17.8665 17.8666 18.072 17.8666 18.3165C17.8666 18.5609 17.7805 18.7692 17.6083 18.9415C17.4361 19.1137 17.2277 19.1998 16.9833 19.1998H6.99997C6.75552 19.1998 6.54997 19.1137 6.3833 18.9415C6.21663 18.7692 6.1333 18.5609 6.1333 18.3165C6.1333 18.072 6.21941 17.8665 6.39163 17.6998C6.56386 17.5331 6.77219 17.4498 7.01663 17.4498ZM12 15.5831C11.8777 15.5831 11.7555 15.5554 11.6333 15.4998C11.5111 15.4443 11.4055 15.3609 11.3166 15.2498L7.64997 10.6498C7.41663 10.3609 7.3833 10.0498 7.54997 9.71647C7.71663 9.38314 7.9833 9.21647 8.34997 9.21647H9.56663V5.68314C9.56663 5.43869 9.65275 5.23036 9.82497 5.05814C9.99719 4.88592 10.2055 4.7998 10.45 4.7998H13.55C13.7944 4.7998 14.0027 4.88592 14.175 5.05814C14.3472 5.23036 14.4333 5.43869 14.4333 5.68314V9.21647H15.65C16.0166 9.21647 16.2833 9.38314 16.45 9.71647C16.6166 10.0498 16.5833 10.3609 16.35 10.6498L12.6833 15.2498C12.5944 15.3609 12.4889 15.4443 12.3666 15.4998C12.2444 15.5554 12.1222 15.5831 12 15.5831Z" fill="url(#paint0_linear_37_12015)"/>
</g>
<defs>
<linearGradient id="paint0_linear_37_12015" x1="12" y1="4.7998" x2="12" y2="25" gradientUnits="userSpaceOnUse">
<stop stop-color="#FF9243"/>
<stop offset="1" stop-color="#FF9243" stop-opacity="0"/>
</linearGradient>
</defs>
</svg>
