<svg width="318" height="282" viewBox="0 0 318 282" fill="none" xmlns="http://www.w3.org/2000/svg">
<g clip-path="url(#clip0_9_1499)">
<path d="M285.625 245.239L284.878 245.167L284.577 248.221L284.192 247.981L284.36 246.213L283.481 246.129C283.77 246.43 283.903 246.694 283.879 246.923C283.867 247.091 283.782 247.235 283.65 247.332C283.517 247.44 283.373 247.488 283.204 247.464C282.975 247.44 282.747 247.284 282.518 246.995C282.289 246.706 282.084 246.322 281.928 245.865L282.145 245.744C282.265 246.081 282.409 246.37 282.59 246.598C282.771 246.827 282.963 246.959 283.156 246.971C283.24 246.971 283.313 246.959 283.385 246.899C283.457 246.839 283.493 246.766 283.493 246.67C283.505 246.514 283.445 246.358 283.301 246.201C283.156 246.033 282.951 245.889 282.686 245.768L282.735 245.636L284.396 245.805L284.457 245.131L281.904 244.879L281.627 244.506L285.336 244.867L285.613 245.239H285.625Z" fill="#FFB82F"/>
<path d="M288.587 245.973L287.852 245.792L287.13 248.774L286.781 248.45L286.997 247.56C286.865 247.62 286.733 247.668 286.588 247.692C286.456 247.716 286.335 247.716 286.239 247.692C285.974 247.632 285.757 247.464 285.577 247.187C285.396 246.911 285.324 246.598 285.348 246.249C285.564 246.297 285.769 246.309 285.962 246.273C286.155 246.237 286.275 246.153 286.311 246.021C286.347 245.864 286.311 245.648 286.179 245.396L285.48 245.227L285.263 244.818L288.358 245.564L288.575 245.973H288.587ZM287.142 246.995L287.455 245.696L286.456 245.456C286.624 245.732 286.672 245.997 286.612 246.261C286.576 246.43 286.456 246.55 286.275 246.622C286.082 246.706 285.89 246.718 285.673 246.658C285.637 246.778 285.673 246.911 285.757 247.031C285.841 247.151 285.962 247.223 286.118 247.259C286.528 247.356 286.865 247.259 287.13 246.983L287.142 246.995Z" fill="#FFB82F"/>
<path d="M292.97 247.969L292.296 247.644L290.947 250.398L290.67 250.037L291.14 249.087L289.382 249.484L289.213 249.135L291.212 248.702L290.55 248.041L289.285 248.293L289.129 247.909L290.285 247.644C290.14 247.5 290.044 247.331 289.996 247.163C289.948 246.983 289.96 246.826 290.032 246.682C290.092 246.562 290.201 246.478 290.357 246.442C290.514 246.405 290.658 246.418 290.815 246.49C291.019 246.586 291.152 246.754 291.236 246.995C291.309 247.235 291.296 247.452 291.2 247.668C291.14 247.8 290.971 247.897 290.718 247.957L291.381 248.618L291.947 247.452L291.67 247.319L291.61 246.911L292.862 247.524L292.982 247.969H292.97ZM290.454 247.608C290.743 247.536 290.923 247.428 290.983 247.295C291.019 247.223 291.032 247.139 290.995 247.055C290.971 246.983 290.911 246.923 290.839 246.874C290.73 246.826 290.634 246.814 290.526 246.85C290.417 246.886 290.345 246.959 290.297 247.055C290.273 247.103 290.273 247.175 290.297 247.283C290.321 247.379 290.381 247.488 290.454 247.596V247.608Z" fill="#FFB82F"/>
<path d="M294.187 248.835L293.548 248.426L291.887 251.011L291.646 250.614L293.199 248.197L292.778 247.933L292.705 247.476L293.44 247.945C293.548 247.692 293.597 247.44 293.585 247.199C293.572 246.959 293.488 246.803 293.344 246.706C293.247 246.646 293.127 246.622 293.007 246.646C292.886 246.67 292.79 246.742 292.73 246.839C292.693 246.887 292.633 247.043 292.561 247.296L292.392 247.187C292.404 246.911 292.465 246.706 292.549 246.562C292.645 246.406 292.79 246.31 292.97 246.261C293.151 246.213 293.332 246.249 293.488 246.346C293.693 246.478 293.801 246.694 293.837 247.019C293.874 247.344 293.801 247.692 293.645 248.065L294.102 248.354L294.175 248.811L294.187 248.835Z" fill="#FFB82F"/>
<path d="M296.752 250.939L295.981 250.277L295.174 251.203C295.005 251.408 294.765 251.504 294.464 251.492L294.596 252.959L294.307 252.983L294.247 250.855C294.247 250.782 294.271 250.722 294.331 250.65C294.379 250.59 294.439 250.566 294.512 250.554C294.584 250.554 294.644 250.554 294.692 250.602C294.765 250.674 294.825 250.746 294.849 250.83C294.945 250.782 295.03 250.734 295.078 250.674L295.656 250.001L295.126 249.544V249.087L296.727 250.47V250.927L296.752 250.939Z" fill="#FFB82F"/>
<path d="M297.763 251.997L297.233 251.468L295.041 253.621L294.945 253.14L296.944 251.18L296.595 250.831L296.619 250.374L297.775 251.552L297.751 252.009L297.763 251.997Z" fill="#FFB82F"/>
<path d="M299.653 254.342L299.184 253.753L296.775 255.665L296.679 255.22L297.534 254.534L296.848 253.68L296.631 253.849C296.631 253.849 296.559 253.885 296.511 253.885C296.462 253.885 296.426 253.873 296.414 253.849C296.33 253.753 296.306 253.584 296.342 253.368C296.378 253.151 296.45 252.995 296.571 252.899C296.643 252.839 296.703 252.851 296.763 252.923L296.908 253.115L297.98 252.262L297.642 251.841L297.715 251.384L299.714 253.885L299.641 254.342H299.653ZM297.859 254.282L298.931 253.428L298.245 252.574L297.173 253.428L297.859 254.282Z" fill="#FFB82F"/>
<path d="M301.954 258.719L301.628 258.045L298.871 259.392V258.935L300.472 258.154L300.087 257.36C299.979 257.769 299.822 258.021 299.617 258.118C299.461 258.19 299.304 258.202 299.148 258.142C298.991 258.081 298.871 257.985 298.799 257.829C298.702 257.625 298.714 257.348 298.835 256.999C298.955 256.651 299.172 256.278 299.485 255.905L299.702 256.025C299.473 256.302 299.316 256.578 299.208 256.855C299.112 257.132 299.1 257.36 299.184 257.528C299.22 257.6 299.28 257.649 299.365 257.673C299.449 257.697 299.533 257.685 299.617 257.649C299.75 257.576 299.858 257.444 299.918 257.24C299.979 257.035 299.991 256.783 299.967 256.494L300.111 256.47L300.846 257.973L301.46 257.673L300.328 255.376L300.497 254.955L302.134 258.298L301.966 258.719H301.954Z" fill="#FFB82F"/>
<path d="M302.797 261.64L302.58 260.919L299.642 261.821L299.75 261.364L300.629 261.087C300.509 261.003 300.4 260.907 300.304 260.811C300.22 260.703 300.159 260.606 300.123 260.51C300.039 260.246 300.075 259.981 300.22 259.68C300.364 259.392 300.593 259.163 300.906 259.007C300.966 259.212 301.063 259.392 301.195 259.548C301.327 259.705 301.46 259.765 301.592 259.717C301.749 259.668 301.905 259.524 302.062 259.284L301.845 258.586L302.086 258.189L303.025 261.232L302.785 261.628L302.797 261.64ZM301.183 260.919L302.459 260.522L302.158 259.548C302.014 259.837 301.809 260.017 301.544 260.101C301.388 260.149 301.219 260.113 301.063 259.993C300.906 259.873 300.786 259.705 300.713 259.5C300.593 259.536 300.497 259.62 300.448 259.765C300.388 259.897 300.388 260.041 300.436 260.198C300.557 260.594 300.81 260.847 301.195 260.931L301.183 260.919Z" fill="#FFB82F"/>
<path d="M303.326 266.426L303.266 265.681L300.208 265.933L300.376 265.512L301.436 265.428L300.196 264.13L300.412 263.805L301.809 265.296L302.038 264.382L301.171 263.432L301.424 263.107L302.243 263.961C302.291 263.769 302.387 263.6 302.508 263.468C302.628 263.336 302.773 263.264 302.929 263.252C303.074 263.252 303.194 263.288 303.302 263.408C303.411 263.516 303.471 263.661 303.495 263.829C303.507 264.057 303.447 264.262 303.278 264.442C303.11 264.623 302.917 264.731 302.676 264.755C302.532 264.755 302.363 264.683 302.17 264.49L301.942 265.404L303.23 265.296L303.206 264.995L303.531 264.731L303.652 266.126L303.339 266.462L303.326 266.426ZM302.351 264.069C302.556 264.286 302.736 264.382 302.893 264.37C302.977 264.37 303.05 264.322 303.11 264.262C303.158 264.202 303.182 264.117 303.182 264.033C303.182 263.913 303.122 263.829 303.037 263.757C302.953 263.685 302.845 263.661 302.736 263.661C302.676 263.661 302.616 263.709 302.544 263.781C302.472 263.853 302.411 263.949 302.351 264.069Z" fill="#FFB82F"/>
<path d="M303.206 267.893L303.23 267.148L300.159 267.051L300.376 266.655L303.242 266.751V266.258L303.603 265.957L303.579 266.835C303.856 266.799 304.097 266.715 304.29 266.582C304.483 266.45 304.591 266.294 304.591 266.114C304.591 265.993 304.555 265.885 304.47 265.801C304.386 265.717 304.29 265.669 304.157 265.657C304.097 265.657 303.929 265.681 303.676 265.741V265.536C303.929 265.404 304.133 265.344 304.302 265.356C304.483 265.356 304.639 265.428 304.772 265.572C304.904 265.705 304.964 265.873 304.964 266.065C304.964 266.306 304.82 266.522 304.567 266.715C304.302 266.907 303.977 267.027 303.567 267.088L303.543 267.629L303.194 267.929L303.206 267.893Z" fill="#FFB82F"/>
<path d="M302.7 271.201L302.881 270.203L301.665 269.986C301.4 269.938 301.207 269.794 301.05 269.529L299.858 270.395L299.69 270.154L301.484 269.012C301.484 269.012 301.616 268.964 301.701 268.976C301.773 268.988 301.833 269.024 301.881 269.072C301.93 269.132 301.942 269.192 301.93 269.253C301.905 269.361 301.869 269.445 301.809 269.505C301.893 269.565 301.978 269.601 302.062 269.613L302.941 269.77L303.061 269.084L303.447 268.844L303.074 270.936L302.688 271.177L302.7 271.201Z" fill="#FFB82F"/>
<path d="M302.315 272.595L302.508 271.874L299.533 271.104L299.894 270.779L302.604 271.477L302.724 271.008L303.134 270.791L302.724 272.391L302.315 272.607V272.595Z" fill="#FFB82F"/>
<path d="M301.267 275.433L301.532 274.736L298.654 273.653L298.991 273.341L300.015 273.726L300.4 272.704L300.147 272.607C300.147 272.607 300.075 272.559 300.051 272.523C300.027 272.487 300.027 272.451 300.039 272.415C300.087 272.295 300.207 272.186 300.424 272.114C300.629 272.03 300.81 272.018 300.942 272.066C301.026 272.102 301.05 272.162 301.026 272.247L300.942 272.475L302.218 272.956L302.411 272.451L302.833 272.283L301.701 275.277L301.267 275.445V275.433ZM300.4 273.87L301.677 274.351L302.062 273.329L300.785 272.848L300.4 273.87Z" fill="#FFB82F"/>
<path d="M298.654 279.641L299.063 279.016L296.499 277.333L296.896 277.104L298.377 278.078L298.871 277.333C298.473 277.453 298.172 277.441 297.98 277.333C297.835 277.236 297.751 277.104 297.715 276.936C297.679 276.768 297.715 276.611 297.799 276.479C297.919 276.287 298.172 276.166 298.534 276.094C298.895 276.022 299.328 276.022 299.81 276.094V276.335C299.461 276.287 299.136 276.287 298.847 276.335C298.558 276.383 298.353 276.491 298.245 276.659C298.196 276.731 298.184 276.804 298.208 276.9C298.233 276.984 298.281 277.056 298.365 277.104C298.498 277.188 298.666 277.2 298.871 277.152C299.076 277.104 299.304 276.984 299.533 276.816L299.629 276.924L298.714 278.319L299.28 278.691L300.689 276.551L301.147 276.479L299.1 279.581L298.642 279.653L298.654 279.641Z" fill="#FFB82F"/>
<path d="M296.571 281.866L297.076 281.313L294.801 279.257L295.258 279.112L295.945 279.726C295.945 279.581 295.981 279.437 296.017 279.305C296.053 279.172 296.113 279.064 296.185 278.992C296.366 278.788 296.619 278.679 296.944 278.655C297.269 278.631 297.582 278.716 297.883 278.896C297.739 279.064 297.63 279.233 297.558 279.425C297.486 279.617 297.51 279.762 297.606 279.846C297.727 279.954 297.931 280.014 298.22 280.038L298.702 279.497H299.16L297.028 281.854H296.571V281.866ZM296.366 280.122L297.353 281.012L298.04 280.255C297.715 280.267 297.462 280.182 297.257 280.002C297.137 279.894 297.076 279.738 297.101 279.533C297.125 279.329 297.209 279.148 297.353 278.98C297.257 278.896 297.137 278.86 296.992 278.884C296.848 278.908 296.715 278.98 296.619 279.088C296.33 279.401 296.258 279.738 296.378 280.11L296.366 280.122Z" fill="#FFB82F"/>
<path d="M292.729 284.763L293.344 284.331L291.561 281.83L292.019 281.757L292.633 282.623L293.115 280.892H293.5L292.922 282.864L293.825 282.599L294.198 281.373L294.608 281.421L294.295 282.563C294.487 282.515 294.68 282.503 294.861 282.539C295.041 282.575 295.174 282.659 295.27 282.791C295.355 282.9 295.367 283.044 295.33 283.188C295.294 283.345 295.198 283.465 295.066 283.561C294.885 283.693 294.668 283.729 294.427 283.693C294.186 283.645 293.994 283.525 293.861 283.345C293.777 283.236 293.777 283.044 293.837 282.779L292.934 283.044L293.693 284.102L293.946 283.922L294.343 284.066L293.199 284.884L292.753 284.788L292.729 284.763ZM294.247 282.719C294.174 283.008 294.174 283.212 294.271 283.333C294.319 283.405 294.391 283.441 294.475 283.465C294.56 283.489 294.632 283.465 294.704 283.405C294.801 283.333 294.849 283.248 294.873 283.14C294.885 283.032 294.873 282.924 294.801 282.84C294.764 282.791 294.704 282.755 294.596 282.743C294.5 282.719 294.379 282.719 294.247 282.731V282.719Z" fill="#FFB82F"/>
<path d="M270.283 284.235L270.933 284.62L272.487 281.975L272.74 282.359L271.295 284.836L271.728 285.089L271.825 285.534L271.066 285.089C270.97 285.353 270.933 285.594 270.958 285.834C270.982 286.063 271.066 286.231 271.222 286.327C271.331 286.388 271.439 286.412 271.56 286.376C271.68 286.352 271.764 286.279 271.837 286.171C271.873 286.111 271.921 285.967 271.993 285.714L272.174 285.81C272.174 286.087 272.126 286.303 272.041 286.448C271.945 286.604 271.813 286.712 271.632 286.76C271.451 286.808 271.271 286.784 271.114 286.688C270.909 286.568 270.789 286.352 270.741 286.027C270.693 285.702 270.741 285.353 270.885 284.981L270.416 284.704L270.319 284.259L270.283 284.235Z" fill="#FFB82F"/>
<path d="M267.634 282.226L268.429 282.864L269.199 281.902C269.368 281.697 269.597 281.589 269.898 281.577L269.705 280.122L269.994 280.086L270.139 282.202C270.139 282.274 270.114 282.335 270.066 282.407C270.018 282.467 269.958 282.503 269.886 282.515C269.813 282.527 269.753 282.515 269.705 282.467C269.621 282.407 269.561 282.323 269.536 282.238C269.44 282.286 269.368 282.347 269.308 282.407L268.754 283.104L269.296 283.537L269.32 283.994L267.658 282.671L267.634 282.214V282.226Z" fill="#FFB82F"/>
<path d="M266.586 281.205L267.128 281.722L269.236 279.485L269.344 279.966L267.429 282.011L267.79 282.347V282.804L266.574 281.674V281.217L266.586 281.205Z" fill="#FFB82F"/>
<path d="M264.599 278.932L265.093 279.497L267.417 277.489L267.525 277.934L266.694 278.644L267.405 279.473L267.61 279.293C267.61 279.293 267.682 279.245 267.73 279.245C267.778 279.245 267.814 279.245 267.826 279.281C267.911 279.377 267.935 279.545 267.911 279.762C267.887 279.99 267.814 280.147 267.706 280.243C267.634 280.303 267.574 280.291 267.513 280.231L267.357 280.05L266.321 280.94L266.67 281.349L266.61 281.806L264.515 279.389L264.575 278.932H264.599ZM266.393 278.92L265.358 279.81L266.068 280.64L267.104 279.75L266.393 278.92Z" fill="#FFB82F"/>
<path d="M262.131 274.651L262.492 275.312L265.201 273.857V274.314L263.648 275.156L264.069 275.938C264.154 275.529 264.31 275.264 264.503 275.156C264.659 275.072 264.816 275.06 264.972 275.108C265.129 275.156 265.262 275.252 265.334 275.409C265.442 275.613 265.442 275.89 265.334 276.238C265.225 276.599 265.021 276.972 264.732 277.357L264.515 277.236C264.732 276.948 264.876 276.671 264.972 276.383C265.069 276.106 265.069 275.878 264.972 275.709C264.936 275.637 264.864 275.589 264.78 275.565C264.696 275.541 264.611 275.565 264.527 275.601C264.394 275.673 264.298 275.817 264.238 276.022C264.178 276.238 264.178 276.479 264.226 276.767L264.093 276.803L263.299 275.336L262.697 275.661L263.913 277.91L263.756 278.343L261.986 275.072L262.143 274.639L262.131 274.651Z" fill="#FFB82F"/>
<path d="M261.155 271.741L261.408 272.451L264.31 271.429L264.214 271.898L263.347 272.198C263.479 272.27 263.588 272.367 263.684 272.463C263.78 272.571 263.841 272.667 263.877 272.763C263.973 273.016 263.949 273.293 263.804 273.593C263.672 273.894 263.443 274.122 263.142 274.291C263.07 274.086 262.962 273.906 262.829 273.761C262.697 273.617 262.564 273.557 262.432 273.605C262.275 273.665 262.119 273.81 261.974 274.05L262.215 274.735L261.998 275.132L260.938 272.138L261.155 271.741ZM262.805 272.403L261.553 272.848L261.89 273.81C262.034 273.521 262.227 273.329 262.48 273.244C262.636 273.184 262.805 273.22 262.974 273.329C263.142 273.437 263.263 273.605 263.335 273.81C263.455 273.761 263.54 273.677 263.6 273.533C263.648 273.389 263.648 273.244 263.6 273.1C263.455 272.703 263.202 272.463 262.805 272.403Z" fill="#FFB82F"/>
<path d="M260.457 267.004L260.541 267.749L263.588 267.377L263.431 267.81L262.383 267.942L263.672 269.192L263.467 269.529L262.022 268.086L261.83 269L262.733 269.926L262.504 270.263L261.649 269.445C261.601 269.649 261.516 269.806 261.396 269.95C261.276 270.082 261.143 270.166 260.975 270.178C260.842 270.19 260.71 270.154 260.589 270.046C260.481 269.938 260.409 269.806 260.384 269.637C260.36 269.409 260.421 269.204 260.577 269.012C260.734 268.82 260.926 268.711 261.155 268.687C261.3 268.675 261.468 268.747 261.673 268.94L261.866 268.026L260.577 268.182L260.613 268.483L260.3 268.759L260.132 267.377L260.433 267.028L260.457 267.004ZM261.528 269.313C261.312 269.108 261.131 269.012 260.975 269.036C260.89 269.036 260.818 269.084 260.77 269.144C260.722 269.204 260.698 269.289 260.71 269.373C260.722 269.493 260.77 269.577 260.866 269.649C260.95 269.721 261.059 269.745 261.167 269.733C261.227 269.733 261.288 269.685 261.348 269.613C261.42 269.541 261.468 269.433 261.528 269.313Z" fill="#FFB82F"/>
<path d="M260.517 265.512V266.258L263.6 266.234L263.395 266.643L260.529 266.667V267.16L260.192 267.472V266.595C259.915 266.643 259.674 266.739 259.481 266.871C259.289 267.003 259.192 267.172 259.192 267.34C259.192 267.46 259.241 267.569 259.325 267.653C259.409 267.737 259.518 267.785 259.638 267.785C259.698 267.785 259.855 267.749 260.12 267.677V267.881C259.879 268.013 259.674 268.086 259.505 268.086C259.325 268.086 259.156 268.025 259.024 267.893C258.891 267.761 258.819 267.605 258.819 267.412C258.819 267.172 258.94 266.955 259.192 266.751C259.445 266.546 259.77 266.414 260.18 266.342V265.801L260.517 265.488V265.512Z" fill="#FFB82F"/>
<path d="M260.89 262.218L260.758 263.228L261.974 263.397C262.239 263.433 262.444 263.577 262.6 263.83L263.756 262.916L263.937 263.144L262.179 264.347C262.179 264.347 262.058 264.395 261.962 264.383C261.89 264.383 261.83 264.335 261.781 264.287C261.733 264.238 261.721 264.178 261.721 264.106C261.733 263.998 261.769 263.914 261.83 263.842C261.745 263.782 261.649 263.745 261.565 263.733L260.686 263.613L260.589 264.299L260.204 264.551L260.493 262.447L260.878 262.194L260.89 262.218Z" fill="#FFB82F"/>
<path d="M261.228 260.799L261.071 261.533L264.069 262.182L263.72 262.519L260.987 261.917L260.878 262.398L260.481 262.627L260.83 261.016L261.228 260.787V260.799Z" fill="#FFB82F"/>
<path d="M262.167 257.913L261.926 258.623L264.84 259.597L264.515 259.921L263.479 259.573L263.13 260.607L263.395 260.691C263.395 260.691 263.467 260.727 263.491 260.763C263.515 260.799 263.527 260.835 263.515 260.871C263.479 260.992 263.347 261.1 263.142 261.196C262.937 261.292 262.769 261.304 262.624 261.268C262.54 261.244 262.504 261.184 262.54 261.1L262.612 260.871L261.312 260.439L261.143 260.944L260.722 261.124L261.733 258.082L262.155 257.901L262.167 257.913ZM263.094 259.441L261.793 259.008L261.444 260.042L262.745 260.475L263.094 259.441Z" fill="#FFB82F"/>
<path d="M264.611 253.584L264.226 254.222L266.863 255.809L266.478 256.049L264.961 255.135L264.503 255.893C264.9 255.761 265.201 255.749 265.394 255.869C265.539 255.953 265.635 256.085 265.671 256.254C265.707 256.422 265.683 256.578 265.599 256.711C265.478 256.903 265.237 257.047 264.876 257.132C264.515 257.216 264.081 257.228 263.6 257.18V256.939C263.949 256.975 264.262 256.963 264.551 256.903C264.84 256.843 265.033 256.723 265.129 256.554C265.177 256.482 265.177 256.398 265.153 256.314C265.129 256.23 265.069 256.158 264.997 256.109C264.864 256.025 264.696 256.025 264.491 256.085C264.286 256.146 264.069 256.266 263.841 256.446L263.744 256.35L264.611 254.919L264.021 254.57L262.697 256.759L262.239 256.843L264.166 253.656L264.623 253.572L264.611 253.584Z" fill="#FFB82F"/>
<path d="M266.598 251.3L266.117 251.877L268.477 253.849L268.031 254.005L267.321 253.416C267.321 253.56 267.297 253.705 267.261 253.837C267.224 253.969 267.164 254.077 267.104 254.15C266.923 254.354 266.683 254.474 266.357 254.51C266.032 254.546 265.719 254.474 265.418 254.306C265.563 254.138 265.659 253.957 265.719 253.765C265.779 253.572 265.755 253.428 265.647 253.344C265.514 253.236 265.31 253.188 265.021 253.176L264.551 253.729H264.094L266.141 251.312H266.598V251.3ZM266.875 253.043L265.852 252.19L265.189 252.971C265.514 252.947 265.779 253.019 265.984 253.188C266.117 253.296 266.177 253.452 266.165 253.657C266.165 253.861 266.08 254.041 265.936 254.21C266.032 254.294 266.153 254.318 266.309 254.294C266.454 254.27 266.574 254.198 266.683 254.077C266.947 253.753 267.02 253.404 266.887 253.043H266.875Z" fill="#FFB82F"/>
<path d="M270.331 248.258L269.741 248.715L271.62 251.144L271.174 251.228L270.524 250.398L270.102 252.142H269.717L270.211 250.158L269.32 250.458L268.994 251.709L268.585 251.685L268.85 250.53C268.657 250.59 268.465 250.602 268.296 250.566C268.115 250.53 267.983 250.458 267.887 250.326C267.802 250.218 267.778 250.085 267.814 249.929C267.85 249.773 267.935 249.653 268.067 249.544C268.248 249.412 268.453 249.352 268.705 249.388C268.946 249.424 269.151 249.532 269.283 249.725C269.368 249.833 269.392 250.025 269.332 250.29L270.223 249.989L269.428 248.967L269.187 249.16L268.79 249.039L269.898 248.186L270.355 248.27L270.331 248.258ZM268.886 250.362C268.946 250.073 268.934 249.869 268.838 249.749C268.79 249.677 268.718 249.641 268.633 249.629C268.549 249.629 268.477 249.628 268.404 249.689C268.308 249.761 268.26 249.857 268.248 249.965C268.236 250.073 268.26 250.182 268.332 250.266C268.368 250.314 268.441 250.338 268.537 250.362C268.633 250.374 268.754 250.374 268.886 250.362Z" fill="#FFB82F"/>
<path d="M271.632 247.56L270.994 247.945L272.583 250.566L272.126 250.602L270.632 248.149L270.211 248.402L269.765 248.27L270.512 247.813C270.331 247.608 270.127 247.452 269.91 247.356C269.693 247.26 269.512 247.26 269.356 247.356C269.248 247.416 269.187 247.512 269.151 247.632C269.127 247.753 269.151 247.861 269.199 247.969C269.236 248.017 269.344 248.137 269.537 248.318L269.356 248.426C269.115 248.294 268.946 248.149 268.862 248.005C268.766 247.849 268.742 247.68 268.79 247.488C268.838 247.308 268.934 247.163 269.103 247.067C269.308 246.947 269.561 246.935 269.862 247.055C270.163 247.175 270.452 247.38 270.717 247.692L271.186 247.416L271.62 247.548L271.632 247.56Z" fill="#FFB82F"/>
<path d="M274.666 246.19L273.727 246.587L274.209 247.717C274.317 247.957 274.293 248.21 274.161 248.474L275.533 249.003L275.425 249.268L273.486 248.378C273.426 248.354 273.378 248.294 273.342 248.222C273.318 248.15 273.306 248.09 273.342 248.017C273.366 247.945 273.402 247.909 273.462 247.873C273.559 247.837 273.655 247.813 273.739 247.825C273.739 247.717 273.739 247.621 273.691 247.549L273.342 246.731L272.704 247.007L272.294 246.815L274.245 245.985L274.666 246.178V246.19Z" fill="#FFB82F"/>
<path d="M276.051 245.757L275.341 245.997L276.316 248.907L275.846 248.775L274.967 246.118L274.498 246.274L274.1 246.045L275.666 245.528L276.063 245.757H276.051Z" fill="#FFB82F"/>
<path d="M279.002 245.095L278.267 245.252L278.917 248.246L278.472 248.137L278.243 247.067L277.171 247.296L277.231 247.56C277.231 247.56 277.231 247.644 277.219 247.68C277.195 247.717 277.171 247.741 277.135 247.753C277.015 247.777 276.858 247.729 276.665 247.596C276.485 247.464 276.376 247.332 276.34 247.188C276.316 247.103 276.352 247.043 276.449 247.019L276.677 246.971L276.389 245.636L275.859 245.757L275.485 245.492L278.616 244.807L278.99 245.071L279.002 245.095ZM278.159 246.67L277.87 245.336L276.798 245.564L277.087 246.899L278.159 246.67Z" fill="#FFB82F"/>
<path d="M289.322 224.618L287.84 224.473L287.238 230.522L286.468 230.041L286.817 226.542L285.071 226.373C285.649 226.974 285.914 227.492 285.865 227.948C285.829 228.285 285.685 228.562 285.42 228.766C285.155 228.983 284.866 229.067 284.529 229.031C284.083 228.983 283.626 228.682 283.168 228.093C282.71 227.516 282.313 226.77 281.988 225.856L282.421 225.628C282.65 226.289 282.951 226.854 283.313 227.311C283.674 227.768 284.047 228.021 284.42 228.057C284.589 228.069 284.734 228.021 284.866 227.9C284.998 227.78 285.071 227.624 285.095 227.443C285.119 227.143 284.998 226.83 284.709 226.506C284.42 226.181 284.023 225.904 283.505 225.652L283.602 225.387L286.901 225.712L287.034 224.365L281.988 223.872L281.446 223.139L288.78 223.86L289.322 224.594V224.618Z" fill="#FFB82F"/>
<path d="M295.114 226.049L293.669 225.7L292.248 231.604L291.573 230.955L292.007 229.187C291.742 229.319 291.477 229.404 291.2 229.452C290.923 229.5 290.694 229.5 290.502 229.452C289.984 229.331 289.55 228.995 289.201 228.454C288.852 227.912 288.695 227.287 288.744 226.602C289.165 226.698 289.574 226.722 289.972 226.65C290.369 226.578 290.598 226.421 290.658 226.157C290.73 225.832 290.658 225.423 290.405 224.918L289.008 224.582L288.575 223.788L294.704 225.255L295.138 226.049H295.114ZM292.26 228.069L292.874 225.508L290.899 225.039C291.236 225.58 291.333 226.121 291.212 226.638C291.14 226.963 290.911 227.203 290.55 227.359C290.177 227.516 289.779 227.54 289.358 227.444C289.297 227.696 289.358 227.937 289.538 228.165C289.719 228.393 289.96 228.55 290.261 228.622C291.068 228.814 291.742 228.622 292.272 228.069H292.26Z" fill="#FFB82F"/>
<path d="M303.784 229.981L302.447 229.331L299.786 234.79L299.232 234.069L300.147 232.181L296.679 232.975L296.342 232.289L300.292 231.436L298.979 230.125L296.474 230.63L296.161 229.884L298.449 229.343C298.172 229.055 297.98 228.73 297.883 228.393C297.787 228.045 297.811 227.732 297.944 227.456C298.064 227.203 298.281 227.047 298.582 226.975C298.883 226.902 299.184 226.938 299.485 227.083C299.882 227.275 300.159 227.612 300.316 228.081C300.472 228.55 300.436 228.995 300.232 229.404C300.111 229.656 299.786 229.848 299.268 229.993L300.581 231.303L301.701 228.995L301.159 228.73L301.026 227.912L303.519 229.127L303.772 230.005L303.784 229.981ZM298.787 229.283C299.353 229.139 299.714 228.935 299.834 228.67C299.906 228.514 299.918 228.357 299.87 228.201C299.822 228.045 299.714 227.924 299.557 227.852C299.353 227.756 299.148 227.744 298.931 227.816C298.726 227.888 298.57 228.033 298.473 228.225C298.425 228.321 298.425 228.478 298.473 228.67C298.522 228.862 298.63 229.067 298.774 229.283H298.787Z" fill="#FFB82F"/>
<path d="M306.204 231.7L304.952 230.895L301.677 236.017L301.207 235.236L304.266 230.45L303.435 229.921L303.29 229.019L304.747 229.945C304.952 229.428 305.048 228.947 305.036 228.478C305.012 228.009 304.856 227.684 304.555 227.492C304.35 227.359 304.133 227.323 303.892 227.372C303.652 227.42 303.471 227.552 303.338 227.756C303.266 227.865 303.158 228.165 303.001 228.658L302.664 228.442C302.688 227.889 302.797 227.48 302.977 227.203C303.17 226.903 303.459 226.698 303.82 226.614C304.181 226.53 304.531 226.59 304.844 226.794C305.241 227.047 305.47 227.492 305.53 228.129C305.59 228.766 305.47 229.452 305.157 230.197L306.072 230.774L306.216 231.676L306.204 231.7Z" fill="#FFB82F"/>
<path d="M311.286 235.873L309.757 234.55L308.167 236.39C307.83 236.787 307.36 236.979 306.77 236.967L307.023 239.865L306.445 239.901L306.337 235.692C306.337 235.56 306.385 235.428 306.506 235.296C306.602 235.187 306.722 235.115 306.855 235.091C306.987 235.067 307.108 235.103 307.216 235.187C307.373 235.32 307.481 235.476 307.541 235.644C307.734 235.56 307.89 235.452 307.999 235.32L309.155 233.997L308.107 233.095L308.083 232.193L311.262 234.935V235.849L311.286 235.873Z" fill="#FFB82F"/>
<path d="M313.261 237.941L312.213 236.882L307.878 241.151L307.698 240.189L311.647 236.293L310.961 235.608L311.009 234.706L313.309 237.027L313.261 237.929V237.941Z" fill="#FFB82F"/>
<path d="M317.042 242.606L316.115 241.452L311.358 245.251L311.166 244.362L312.852 243.015L311.503 241.331L311.081 241.668C311.009 241.716 310.937 241.752 310.841 241.752C310.744 241.752 310.684 241.728 310.648 241.668C310.491 241.464 310.443 241.151 310.516 240.706C310.588 240.261 310.732 239.961 310.961 239.78C311.106 239.672 311.226 239.684 311.346 239.828L311.647 240.201L313.755 238.518L313.093 237.688L313.237 236.786L317.199 241.74L317.054 242.642L317.042 242.606ZM313.49 242.498L315.597 240.814L314.249 239.131L312.141 240.814L313.49 242.498Z" fill="#FFB82F"/>
<path d="M321.606 251.3L320.956 249.965L315.489 252.635V251.733L318.656 250.194L317.885 248.618C317.68 249.424 317.367 249.917 316.97 250.122C316.669 250.266 316.356 250.29 316.031 250.17C315.706 250.049 315.477 249.857 315.332 249.556C315.14 249.16 315.164 248.606 315.417 247.909C315.669 247.212 316.091 246.49 316.705 245.733L317.127 245.973C316.681 246.526 316.356 247.067 316.151 247.62C315.946 248.174 315.934 248.618 316.103 248.955C316.175 249.099 316.296 249.208 316.476 249.256C316.645 249.304 316.813 249.292 316.982 249.208C317.259 249.075 317.452 248.799 317.572 248.39C317.692 247.981 317.729 247.488 317.668 246.911L317.945 246.851L319.402 249.821L320.619 249.232L318.391 244.686L318.728 243.845L321.967 250.458L321.63 251.3H321.606Z" fill="#FFB82F"/>
<path d="M323.292 257.071L322.859 255.653L317.042 257.444L317.259 256.53L319.005 255.989C318.764 255.833 318.547 255.641 318.367 255.436C318.186 255.22 318.066 255.027 318.018 254.835C317.861 254.318 317.921 253.777 318.222 253.2C318.523 252.622 318.969 252.178 319.583 251.853C319.716 252.262 319.908 252.622 320.161 252.935C320.426 253.236 320.679 253.356 320.944 253.272C321.257 253.176 321.57 252.887 321.883 252.418L321.462 251.047L321.931 250.266L323.798 256.278L323.328 257.059L323.292 257.071ZM320.089 255.665L322.606 254.883L322.004 252.947C321.702 253.512 321.293 253.873 320.775 254.029C320.462 254.125 320.137 254.065 319.812 253.825C319.487 253.584 319.258 253.26 319.138 252.839C318.897 252.911 318.716 253.091 318.596 253.356C318.487 253.632 318.475 253.909 318.572 254.21C318.812 255.003 319.318 255.484 320.077 255.653L320.089 255.665Z" fill="#FFB82F"/>
<path d="M323.111 275.938L323.461 273.954L321.064 273.533C320.546 273.437 320.149 273.148 319.848 272.631L317.488 274.339L317.163 273.87L320.715 271.609C320.823 271.537 320.968 271.513 321.136 271.549C321.281 271.573 321.401 271.645 321.486 271.753C321.57 271.862 321.606 271.982 321.582 272.114C321.546 272.319 321.474 272.487 321.353 272.619C321.534 272.74 321.702 272.824 321.859 272.848L323.593 273.148L323.834 271.79L324.605 271.309L323.882 275.445L323.111 275.926V275.938Z" fill="#FFB82F"/>
<path d="M322.329 278.728L322.702 277.285L316.813 275.758L317.536 275.108L322.907 276.503L323.148 275.565L323.954 275.144L323.136 278.307L322.329 278.728Z" fill="#FFB82F"/>
<path d="M320.257 284.356L320.787 282.961L315.091 280.82L315.754 280.207L317.777 280.965L318.535 278.944L318.03 278.752C317.945 278.716 317.885 278.668 317.837 278.596C317.789 278.524 317.777 278.452 317.801 278.391C317.885 278.151 318.15 277.946 318.559 277.79C318.969 277.622 319.318 277.598 319.583 277.694C319.752 277.754 319.8 277.874 319.74 278.043L319.571 278.488L322.1 279.438L322.473 278.439L323.316 278.103L321.088 284.031L320.245 284.368L320.257 284.356ZM318.535 281.253L321.064 282.203L321.823 280.183L319.294 279.233L318.535 281.253Z" fill="#FFB82F"/>
<path d="M242.791 282.864L243.502 284.175L248.86 281.289L248.884 282.191L245.79 283.862L246.62 285.401C246.801 284.596 247.078 284.079 247.475 283.862C247.777 283.706 248.078 283.67 248.403 283.766C248.728 283.862 248.969 284.067 249.125 284.355C249.342 284.752 249.33 285.293 249.113 286.003C248.896 286.712 248.487 287.458 247.921 288.227L247.488 287.999C247.909 287.434 248.21 286.868 248.391 286.315C248.571 285.762 248.571 285.317 248.391 284.981C248.306 284.836 248.186 284.74 248.017 284.704C247.849 284.656 247.68 284.68 247.512 284.776C247.247 284.92 247.054 285.197 246.946 285.618C246.837 286.039 246.825 286.52 246.909 287.097L246.645 287.169L245.067 284.259L243.875 284.896L246.283 289.358L245.982 290.211L242.478 283.73L242.779 282.876L242.791 282.864Z" fill="#FFB82F"/>
<path d="M240.888 277.177L241.382 278.584L247.114 276.552L246.934 277.478L245.212 278.079C245.464 278.223 245.681 278.404 245.874 278.608C246.066 278.812 246.187 279.005 246.259 279.197C246.44 279.702 246.392 280.255 246.127 280.832C245.862 281.422 245.428 281.891 244.826 282.227C244.682 281.818 244.477 281.47 244.2 281.169C243.923 280.869 243.67 280.772 243.405 280.857C243.092 280.965 242.791 281.265 242.502 281.746L242.984 283.093L242.55 283.887L240.443 277.959L240.876 277.153L240.888 277.177ZM244.14 278.464L241.659 279.341L242.333 281.253C242.61 280.676 242.996 280.303 243.514 280.123C243.827 280.015 244.152 280.063 244.489 280.291C244.826 280.508 245.055 280.832 245.212 281.241C245.452 281.157 245.621 280.977 245.729 280.7C245.826 280.424 245.826 280.135 245.729 279.846C245.452 279.065 244.935 278.596 244.164 278.464H244.14Z" fill="#FFB82F"/>
<path d="M239.468 267.762L239.648 269.241L245.693 268.495L245.392 269.349L243.309 269.601L245.862 272.079L245.464 272.74L242.586 269.89L242.201 271.706L243.995 273.521L243.538 274.195L241.84 272.572C241.743 272.968 241.587 273.293 241.346 273.57C241.105 273.846 240.84 273.99 240.515 274.026C240.238 274.063 239.997 273.966 239.769 273.762C239.54 273.546 239.407 273.281 239.371 272.956C239.311 272.511 239.443 272.103 239.757 271.718C240.07 271.333 240.455 271.117 240.913 271.056C241.19 271.02 241.527 271.189 241.924 271.549L242.309 269.734L239.757 270.046L239.829 270.648L239.215 271.201L238.877 268.447L239.48 267.762H239.468ZM241.599 272.331C241.165 271.934 240.804 271.754 240.515 271.79C240.347 271.814 240.214 271.886 240.106 272.018C240.009 272.151 239.961 272.295 239.985 272.463C240.009 272.692 240.118 272.872 240.298 273.004C240.479 273.137 240.672 273.197 240.901 273.161C241.009 273.149 241.129 273.065 241.262 272.908C241.394 272.752 241.515 272.56 241.611 272.319L241.599 272.331Z" fill="#FFB82F"/>
<path d="M239.6 264.804V266.295L245.693 266.247L245.296 267.064L239.612 267.112V268.098L238.95 268.712V266.98C238.396 267.088 237.926 267.269 237.553 267.545C237.18 267.81 236.987 268.134 236.987 268.483C236.987 268.724 237.071 268.928 237.24 269.096C237.408 269.265 237.625 269.349 237.866 269.349C237.986 269.349 238.311 269.277 238.805 269.145V269.553C238.336 269.83 237.926 269.962 237.601 269.974C237.24 269.974 236.915 269.854 236.65 269.589C236.373 269.325 236.24 269.012 236.24 268.64C236.24 268.171 236.481 267.738 236.987 267.329C237.493 266.932 238.131 266.667 238.926 266.523V265.441L239.588 264.828L239.6 264.804Z" fill="#FFB82F"/>
<path d="M240.31 258.298L240.045 260.294L242.454 260.619C242.972 260.691 243.393 260.967 243.706 261.472L245.994 259.669L246.343 260.126L242.875 262.518C242.767 262.591 242.622 262.615 242.454 262.603C242.309 262.579 242.189 262.518 242.093 262.41C241.996 262.302 241.96 262.182 241.984 262.062C242.008 261.857 242.081 261.689 242.189 261.544C242.008 261.424 241.84 261.364 241.671 261.34L239.925 261.112L239.744 262.47L238.998 262.987L239.564 258.827L240.31 258.31V258.298Z" fill="#FFB82F"/>
<path d="M240.973 255.484L240.66 256.939L246.609 258.226L245.91 258.899L240.491 257.733L240.286 258.683L239.492 259.14L240.19 255.941L240.985 255.484H240.973Z" fill="#FFB82F"/>
<path d="M242.815 249.785L242.346 251.192L248.126 253.092L247.487 253.729L245.428 253.056L244.754 255.112L245.272 255.28C245.356 255.304 245.416 255.352 245.464 255.437C245.513 255.521 245.525 255.581 245.501 255.641C245.416 255.882 245.175 256.098 244.766 256.278C244.357 256.459 244.019 256.507 243.754 256.411C243.586 256.351 243.526 256.242 243.586 256.074L243.73 255.629L241.165 254.787L240.828 255.797L239.997 256.158L241.984 250.146L242.815 249.785ZM244.658 252.815L242.093 251.962L241.418 254.018L243.983 254.872L244.658 252.815Z" fill="#FFB82F"/>
<path d="M247.632 241.248L246.861 242.522L252.076 245.649L251.305 246.13L248.294 244.326L247.391 245.829C248.174 245.564 248.764 245.552 249.149 245.781C249.438 245.949 249.619 246.202 249.703 246.526C249.788 246.851 249.739 247.164 249.571 247.44C249.342 247.825 248.86 248.102 248.138 248.27C247.415 248.438 246.572 248.474 245.609 248.378L245.585 247.897C246.283 247.969 246.922 247.945 247.5 247.813C248.078 247.681 248.451 247.452 248.656 247.128C248.74 246.983 248.752 246.827 248.704 246.659C248.656 246.49 248.547 246.358 248.391 246.262C248.138 246.106 247.801 246.094 247.379 246.214C246.97 246.334 246.536 246.575 246.091 246.935L245.898 246.743L247.608 243.905L246.452 243.208L243.839 247.549L242.948 247.717L246.741 241.404L247.632 241.224V241.248Z" fill="#FFB82F"/>
<path d="M251.558 236.69L250.607 237.833L255.279 241.729L254.4 242.053L253.003 240.887C253.003 241.176 252.967 241.464 252.882 241.729C252.798 241.993 252.702 242.198 252.569 242.354C252.22 242.763 251.738 243.003 251.088 243.075C250.45 243.148 249.824 243.015 249.222 242.667C249.499 242.33 249.691 241.981 249.812 241.596C249.932 241.212 249.884 240.935 249.667 240.755C249.414 240.538 249.005 240.442 248.439 240.43L247.524 241.524L246.621 241.56L250.655 236.727L251.558 236.69ZM252.112 240.141L250.089 238.458L248.788 240.009C249.426 239.949 249.944 240.093 250.366 240.442C250.619 240.659 250.739 240.959 250.715 241.356C250.691 241.753 250.534 242.126 250.257 242.462C250.45 242.631 250.703 242.679 250.992 242.631C251.281 242.57 251.522 242.426 251.726 242.186C252.256 241.548 252.389 240.863 252.112 240.129V240.141Z" fill="#FFB82F"/>
<path d="M258.927 230.642L257.747 231.556L261.48 236.354L260.589 236.534L259.301 234.887L258.482 238.35H257.711L258.687 234.43L256.928 235.031L256.278 237.496L255.471 237.448L256.001 235.151C255.616 235.271 255.243 235.308 254.893 235.235C254.544 235.175 254.267 235.019 254.074 234.766C253.906 234.55 253.858 234.285 253.918 233.985C253.99 233.684 254.147 233.432 254.412 233.227C254.761 232.951 255.182 232.855 255.664 232.927C256.146 232.999 256.531 233.215 256.82 233.576C256.989 233.792 257.025 234.165 256.916 234.694L258.674 234.093L257.097 232.073L256.615 232.446L255.833 232.205L258.024 230.51L258.915 230.666L258.927 230.642ZM256.098 234.815C256.218 234.237 256.194 233.829 256.013 233.6C255.905 233.468 255.772 233.384 255.604 233.372C255.435 233.348 255.291 233.396 255.158 233.504C254.978 233.648 254.869 233.829 254.845 234.045C254.821 234.261 254.881 234.466 255.014 234.634C255.086 234.718 255.218 234.778 255.411 234.815C255.604 234.851 255.833 234.851 256.098 234.815Z" fill="#FFB82F"/>
<path d="M261.54 229.235L260.264 230.005L263.431 235.2L262.528 235.272L259.578 230.426L258.735 230.943L257.868 230.678L259.349 229.777C258.975 229.368 258.578 229.067 258.157 228.875C257.735 228.682 257.362 228.682 257.061 228.875C256.856 229.007 256.724 229.175 256.663 229.416C256.603 229.644 256.639 229.873 256.772 230.077C256.832 230.185 257.061 230.414 257.434 230.775L257.085 230.979C256.603 230.714 256.278 230.438 256.109 230.149C255.917 229.837 255.869 229.5 255.953 229.139C256.037 228.778 256.242 228.49 256.567 228.298C256.977 228.057 257.47 228.045 258.072 228.273C258.674 228.502 259.24 228.911 259.758 229.524L260.685 228.959L261.552 229.223L261.54 229.235Z" fill="#FFB82F"/>
<path d="M267.525 226.505L265.671 227.287L266.622 229.523C266.827 230.004 266.791 230.509 266.526 231.026L269.247 232.073L269.031 232.602L265.201 230.858C265.081 230.798 264.985 230.69 264.924 230.533C264.864 230.401 264.864 230.257 264.9 230.125C264.948 229.992 265.021 229.896 265.141 229.848C265.334 229.764 265.514 229.74 265.695 229.764C265.695 229.547 265.671 229.367 265.611 229.211L264.924 227.599L263.66 228.141L262.841 227.756L266.707 226.108L267.537 226.493L267.525 226.505Z" fill="#FFB82F"/>
<path d="M270.271 225.652L268.862 226.121L270.789 231.881L269.85 231.628L268.091 226.373L267.164 226.686L266.369 226.241L269.476 225.207L270.271 225.652Z" fill="#FFB82F"/>
<path d="M276.124 224.329L274.666 224.653L275.967 230.593L275.088 230.377L274.618 228.273L272.511 228.742L272.631 229.271C272.655 229.355 272.631 229.439 272.595 229.523C272.559 229.607 272.499 229.655 272.439 229.668C272.186 229.728 271.885 229.619 271.511 229.367C271.15 229.114 270.933 228.838 270.873 228.561C270.837 228.381 270.897 228.273 271.078 228.237L271.536 228.14L270.958 225.507L269.91 225.735L269.175 225.206L275.377 223.848L276.111 224.377L276.124 224.329ZM274.462 227.455L273.884 224.822L271.776 225.291L272.354 227.924L274.474 227.455H274.462Z" fill="#FFB82F"/>
<path d="M296.583 183.843L293.657 183.554L292.476 195.519L290.959 194.569L291.646 187.655L288.19 187.318C289.321 188.508 289.851 189.543 289.767 190.42C289.707 191.082 289.406 191.623 288.888 192.044C288.37 192.464 287.78 192.645 287.13 192.573C286.251 192.489 285.348 191.875 284.432 190.721C283.517 189.579 282.734 188.1 282.096 186.308L282.951 185.851C283.409 187.162 283.999 188.28 284.709 189.194C285.42 190.108 286.154 190.601 286.913 190.673C287.238 190.709 287.539 190.601 287.792 190.36C288.057 190.12 288.202 189.819 288.238 189.458C288.298 188.869 288.045 188.256 287.479 187.607C286.913 186.969 286.118 186.404 285.095 185.923L285.275 185.406L291.802 186.043L292.067 183.386L282.084 182.4L281.012 180.957L295.523 182.388L296.595 183.831L296.583 183.843Z" fill="#FFB82F"/>
<path d="M308.119 186.704L305.265 186.019L302.435 197.707L301.098 196.42L301.941 192.909C301.424 193.173 300.894 193.342 300.352 193.438C299.81 193.522 299.352 193.522 298.967 193.438C297.931 193.185 297.076 192.524 296.39 191.454C295.704 190.384 295.403 189.157 295.475 187.798C296.306 188.003 297.113 188.039 297.895 187.907C298.678 187.774 299.136 187.45 299.256 186.933C299.413 186.295 299.244 185.478 298.75 184.48L295.993 183.818L295.138 182.243L307.252 185.165L308.107 186.74L308.119 186.704ZM302.471 190.708L303.7 185.646L299.798 184.708C300.46 185.778 300.653 186.837 300.412 187.883C300.256 188.52 299.822 189.001 299.087 189.314C298.353 189.626 297.57 189.674 296.727 189.47C296.607 189.963 296.727 190.444 297.076 190.913C297.426 191.382 297.895 191.682 298.497 191.827C300.099 192.211 301.424 191.851 302.483 190.72L302.471 190.708Z" fill="#FFB82F"/>
<path d="M325.315 194.521L322.666 193.234L317.379 204.032L316.284 202.613L318.102 198.898L311.238 200.449L310.564 199.078L318.391 197.395L315.79 194.785L310.829 195.783L310.214 194.292L314.754 193.234C314.2 192.657 313.827 192.032 313.634 191.346C313.442 190.661 313.49 190.048 313.755 189.483C313.996 188.989 314.417 188.677 315.019 188.533C315.621 188.388 316.211 188.46 316.801 188.737C317.596 189.122 318.138 189.783 318.439 190.697C318.74 191.623 318.68 192.489 318.283 193.318C318.042 193.811 317.403 194.196 316.38 194.473L318.981 197.082L321.209 192.525L320.125 191.996L319.872 190.384L324.797 192.789L325.291 194.521H325.315ZM315.441 193.126C316.573 192.849 317.271 192.441 317.524 191.911C317.668 191.611 317.692 191.298 317.584 190.986C317.476 190.673 317.271 190.444 316.97 190.3C316.561 190.096 316.151 190.072 315.73 190.228C315.308 190.372 315.007 190.649 314.814 191.034C314.718 191.238 314.718 191.527 314.839 191.911C314.947 192.296 315.152 192.693 315.441 193.126Z" fill="#FFB82F"/>
<path d="M197.947 268.159L198.272 271.081L210.242 269.758L209.615 271.442L205.497 271.898L210.494 276.853L209.7 278.151L204.088 272.452L203.281 276.035L206.785 279.678L205.858 280.989L202.535 277.73C202.342 278.5 202.005 279.149 201.535 279.678C201.053 280.207 200.512 280.508 199.885 280.568C199.344 280.628 198.85 280.448 198.404 280.015C197.959 279.582 197.694 279.053 197.622 278.404C197.525 277.526 197.79 276.72 198.404 275.975C199.03 275.229 199.789 274.808 200.704 274.7C201.258 274.64 201.921 274.965 202.703 275.686L203.522 272.103L198.476 272.656L198.609 273.846L197.381 274.929L196.779 269.482L197.971 268.135L197.947 268.159ZM202.041 277.249C201.198 276.444 200.488 276.083 199.897 276.143C199.56 276.179 199.295 276.323 199.079 276.588C198.874 276.841 198.79 277.141 198.826 277.478C198.874 277.935 199.079 278.295 199.428 278.56C199.777 278.825 200.174 278.945 200.608 278.897C200.825 278.873 201.066 278.716 201.33 278.416C201.595 278.115 201.824 277.73 202.041 277.261V277.249Z" fill="#FFB82F"/>
<path d="M198.272 262.314V265.248L210.302 265.297L209.495 266.896L198.26 266.848V268.796L196.911 269.998V266.583C195.851 266.776 194.924 267.136 194.177 267.665C193.419 268.194 193.046 268.808 193.033 269.517C193.033 269.998 193.202 270.407 193.527 270.744C193.864 271.08 194.274 271.249 194.768 271.261C195.02 271.261 195.647 271.128 196.646 270.864V271.67C195.695 272.199 194.888 272.463 194.226 272.463C193.503 272.463 192.877 272.199 192.347 271.67C191.817 271.152 191.552 270.515 191.564 269.782C191.564 268.844 192.07 267.99 193.07 267.22C194.069 266.451 195.358 265.934 196.923 265.669V263.529L198.272 262.326V262.314Z" fill="#FFB82F"/>
<path d="M199.849 249.425L199.271 253.357L204.04 254.066C205.063 254.223 205.882 254.788 206.484 255.774L211.06 252.263L211.735 253.176L204.823 257.83C204.606 257.974 204.329 258.022 203.992 257.974C203.703 257.926 203.462 257.806 203.281 257.589C203.101 257.373 203.028 257.145 203.064 256.892C203.125 256.483 203.269 256.147 203.486 255.87C203.137 255.641 202.788 255.497 202.462 255.449L199.018 254.944L198.621 257.638L197.116 258.636L198.332 250.423L199.825 249.425H199.849Z" fill="#FFB82F"/>
<path d="M201.234 243.857L200.572 246.719L212.301 249.413L210.904 250.735L200.21 248.282L199.777 250.158L198.199 251.036L199.645 244.735L201.222 243.857H201.234Z" fill="#FFB82F"/>
<path d="M205.039 232.626L204.076 235.404L215.456 239.324L214.167 240.574L210.121 239.179L208.724 243.22L209.736 243.568C209.892 243.628 210.025 243.725 210.121 243.881C210.217 244.037 210.241 244.169 210.193 244.29C210.025 244.771 209.543 245.18 208.724 245.528C207.905 245.877 207.243 245.961 206.713 245.769C206.376 245.649 206.268 245.432 206.388 245.095L206.689 244.218L201.631 242.474L200.945 244.47L199.283 245.168L203.377 233.323L205.039 232.626ZM208.616 238.662L203.558 236.919L202.161 240.959L207.219 242.702L208.616 238.662Z" fill="#FFB82F"/>
<path d="M214.817 215.804L213.264 218.305L223.5 224.63L221.97 225.568L216.058 221.912L214.227 224.87C215.793 224.377 216.961 224.353 217.72 224.822C218.286 225.171 218.647 225.676 218.791 226.325C218.936 226.975 218.84 227.576 218.502 228.129C218.033 228.875 217.093 229.416 215.648 229.728C214.215 230.041 212.554 230.089 210.651 229.873L210.615 228.911C212 229.079 213.264 229.043 214.396 228.802C215.528 228.562 216.299 228.129 216.696 227.48C216.865 227.203 216.901 226.891 216.804 226.554C216.708 226.217 216.503 225.953 216.19 225.76C215.685 225.448 215.022 225.4 214.191 225.628C213.372 225.856 212.517 226.325 211.626 227.023L211.241 226.626L214.697 221.059L212.421 219.652L207.135 228.165L205.365 228.49L213.035 216.117L214.805 215.792L214.817 215.804Z" fill="#FFB82F"/>
<path d="M222.741 206.882L220.827 209.107L229.966 216.935L228.208 217.536L225.463 215.191C225.463 215.768 225.366 216.321 225.21 216.838C225.041 217.355 224.837 217.764 224.572 218.065C223.885 218.871 222.898 219.328 221.621 219.46C220.345 219.58 219.117 219.291 217.936 218.606C218.49 217.957 218.888 217.259 219.129 216.502C219.369 215.744 219.285 215.191 218.876 214.842C218.382 214.422 217.575 214.193 216.455 214.169L214.613 216.321L212.819 216.369L220.935 206.918L222.729 206.87L222.741 206.882ZM223.741 213.724L219.779 210.333L217.166 213.375C218.418 213.279 219.454 213.58 220.273 214.277C220.778 214.71 220.995 215.311 220.947 216.105C220.899 216.899 220.586 217.62 220.008 218.281C220.393 218.618 220.875 218.726 221.453 218.63C222.031 218.534 222.512 218.245 222.91 217.776C223.982 216.526 224.259 215.179 223.741 213.736V213.724Z" fill="#FFB82F"/>
<path d="M237.541 195.097L235.193 196.865L242.442 206.461L240.672 206.785L238.179 203.479L236.457 210.296L234.928 210.272L236.963 202.553L233.459 203.683L232.11 208.553L230.508 208.421L231.616 203.899C230.845 204.128 230.123 204.176 229.424 204.032C228.726 203.887 228.196 203.575 227.811 203.082C227.486 202.649 227.389 202.132 227.534 201.531C227.678 200.929 228.004 200.424 228.521 200.039C229.232 199.51 230.063 199.318 231.014 199.474C231.977 199.631 232.724 200.076 233.278 200.809C233.615 201.254 233.663 201.987 233.446 203.022L236.951 201.891L233.892 197.839L232.929 198.56L231.375 198.055L235.759 194.761L237.529 195.109L237.541 195.097ZM231.809 203.262C232.074 202.132 232.026 201.326 231.664 200.857C231.46 200.593 231.195 200.424 230.87 200.388C230.544 200.34 230.243 200.424 229.978 200.629C229.617 200.905 229.412 201.254 229.352 201.699C229.292 202.132 229.4 202.529 229.665 202.877C229.798 203.058 230.063 203.178 230.448 203.25C230.833 203.322 231.291 203.334 231.797 203.274L231.809 203.262Z" fill="#FFB82F"/>
<path d="M242.731 192.405L240.19 193.896L246.295 204.261L244.501 204.381L238.805 194.713L237.119 195.699L235.409 195.158L238.36 193.427C237.637 192.597 236.866 191.996 236.023 191.611C235.18 191.226 234.458 191.214 233.856 191.575C233.434 191.816 233.169 192.176 233.049 192.633C232.929 193.09 232.989 193.535 233.242 193.956C233.374 194.172 233.808 194.641 234.542 195.363L233.856 195.772C232.917 195.23 232.278 194.677 231.941 194.1C231.58 193.475 231.484 192.802 231.664 192.092C231.845 191.371 232.254 190.817 232.892 190.445C233.699 189.976 234.687 189.964 235.867 190.433C237.047 190.902 238.155 191.731 239.178 192.946L241.021 191.864L242.743 192.405H242.731Z" fill="#FFB82F"/>
<path d="M254.652 187.186L250.955 188.689L252.774 193.138C253.159 194.1 253.087 195.086 252.545 196.12L257.904 198.272L257.458 199.318L249.932 195.747C249.691 195.639 249.51 195.422 249.378 195.11C249.27 194.833 249.258 194.569 249.342 194.304C249.426 194.04 249.595 193.859 249.836 193.763C250.221 193.607 250.582 193.559 250.931 193.607C250.955 193.186 250.895 192.825 250.775 192.512L249.462 189.302L246.933 190.336L245.32 189.554L253.027 186.416L254.652 187.198V187.186Z" fill="#FFB82F"/>
<path d="M260.18 185.55L257.374 186.44L261.011 197.899L259.156 197.37L255.845 186.933L254.002 187.51L252.449 186.596L258.614 184.648L260.168 185.562L260.18 185.55Z" fill="#FFB82F"/>
<path d="M271.776 183.122L268.898 183.711L271.294 195.495L269.56 195.026L268.705 190.841L264.515 191.695L264.732 192.741C264.768 192.91 264.732 193.066 264.659 193.222C264.575 193.379 264.467 193.475 264.334 193.499C263.84 193.595 263.226 193.391 262.516 192.861C261.805 192.332 261.396 191.803 261.276 191.25C261.203 190.901 261.348 190.697 261.697 190.625L262.612 190.445L261.54 185.214L259.469 185.635L258.024 184.565L270.319 182.063L271.764 183.134L271.776 183.122ZM268.38 189.254L267.309 184.023L263.118 184.877L264.19 190.108L268.38 189.254Z" fill="#FFB82F"/>
<path d="M304.627 139.111L300.111 138.667L298.293 157.124L295.957 155.645L297.004 144.979L291.67 144.45C293.428 146.278 294.235 147.877 294.102 149.248C294.006 150.27 293.548 151.112 292.741 151.749C291.935 152.399 291.031 152.663 290.032 152.567C288.683 152.435 287.286 151.485 285.877 149.717C284.456 147.949 283.264 145.677 282.277 142.899L283.589 142.202C284.3 144.234 285.203 145.953 286.299 147.36C287.395 148.767 288.527 149.525 289.695 149.645C290.201 149.693 290.658 149.537 291.055 149.164C291.453 148.791 291.682 148.334 291.742 147.769C291.826 146.855 291.441 145.905 290.574 144.919C289.707 143.933 288.479 143.068 286.889 142.322L287.178 141.516L297.245 142.502L297.655 138.402L282.253 136.887L280.603 134.65L302.989 136.851L304.639 139.087L304.627 139.111Z" fill="#FFB82F"/>
<path d="M322.281 143.501L317.861 142.442L313.514 160.467L311.443 158.483L312.743 153.072C311.936 153.469 311.118 153.746 310.287 153.878C309.456 154.022 308.745 154.01 308.155 153.878C306.566 153.493 305.241 152.471 304.169 150.812C303.11 149.152 302.64 147.264 302.76 145.16C304.049 145.473 305.289 145.521 306.505 145.316C307.71 145.112 308.42 144.607 308.613 143.813C308.854 142.839 308.589 141.577 307.83 140.026L303.579 139.003L302.255 136.562L320.956 141.06L322.281 143.501ZM313.574 149.669L315.453 141.853L309.432 140.41C310.443 142.07 310.756 143.693 310.371 145.304C310.13 146.29 309.456 147.024 308.336 147.505C307.216 147.986 306 148.07 304.687 147.757C304.507 148.515 304.687 149.26 305.229 149.97C305.771 150.691 306.505 151.16 307.433 151.377C309.901 151.978 311.948 151.401 313.574 149.669Z" fill="#FFB82F"/>
<path d="M152.428 270.371L152.97 274.869L171.406 272.656L170.479 275.253L164.133 276.011L171.9 283.586L170.684 285.594L161.941 276.889L160.737 282.432L166.192 287.999L164.771 290.031L159.593 285.053C159.304 286.256 158.798 287.254 158.076 288.083C157.353 288.901 156.51 289.37 155.559 289.49C154.728 289.587 153.957 289.31 153.259 288.661C152.56 287.999 152.151 287.182 152.03 286.184C151.862 284.837 152.259 283.574 153.211 282.42C154.162 281.266 155.33 280.592 156.739 280.424C157.582 280.328 158.617 280.821 159.834 281.915L161.038 276.372L153.259 277.31L153.476 279.149L151.597 280.833L150.585 272.452L152.416 270.359L152.428 270.371ZM158.882 284.332C157.57 283.105 156.462 282.552 155.559 282.66C155.041 282.721 154.62 282.949 154.306 283.346C153.993 283.743 153.873 284.2 153.933 284.717C154.017 285.414 154.331 285.967 154.872 286.376C155.414 286.785 156.016 286.953 156.691 286.869C157.028 286.833 157.401 286.58 157.811 286.111C158.22 285.643 158.569 285.053 158.882 284.32V284.332Z" fill="#FFB82F"/>
<path d="M152.849 261.341L152.873 265.874L171.442 265.778L170.214 268.255L152.885 268.339V271.345L150.85 273.209L150.826 267.93C149.164 268.243 147.755 268.808 146.599 269.626C145.443 270.443 144.865 271.405 144.865 272.487C144.865 273.233 145.13 273.858 145.648 274.375C146.166 274.892 146.804 275.157 147.563 275.145C147.948 275.145 148.912 274.928 150.453 274.508V275.746C149.008 276.576 147.768 276.997 146.756 276.997C145.636 276.997 144.673 276.6 143.854 275.806C143.035 275.013 142.614 274.039 142.614 272.896C142.614 271.453 143.372 270.131 144.902 268.916C146.431 267.702 148.418 266.884 150.838 266.463V263.168L152.873 261.305L152.849 261.341Z" fill="#FFB82F"/>
<path d="M155.089 241.477L154.246 247.561L161.604 248.583C163.181 248.799 164.458 249.665 165.409 251.192L172.417 245.709L173.477 247.104L162.892 254.379C162.555 254.607 162.134 254.691 161.616 254.619C161.17 254.559 160.797 254.367 160.52 254.042C160.243 253.718 160.123 253.357 160.183 252.96C160.267 252.335 160.484 251.806 160.821 251.385C160.267 251.036 159.749 250.82 159.244 250.747L153.933 250.014L153.355 254.174L151.055 255.726L152.813 243.028L155.113 241.477H155.089Z" fill="#FFB82F"/>
<path d="M157.136 232.914L156.161 237.339L174.296 241.319L172.153 243.376L155.631 239.744L154.993 242.642L152.584 244.013L154.728 234.273L157.136 232.902V232.914Z" fill="#FFB82F"/>
<path d="M162.82 215.551L161.387 219.856L179.004 225.724L177.042 227.672L170.78 225.58L168.684 231.832L170.25 232.349C170.503 232.433 170.695 232.59 170.84 232.818C170.984 233.047 171.033 233.263 170.96 233.456C170.707 234.201 169.961 234.838 168.721 235.392C167.468 235.945 166.433 236.077 165.614 235.8C165.096 235.62 164.915 235.283 165.096 234.754L165.553 233.383L157.726 230.774L156.691 233.864L154.15 234.971L160.279 216.645L162.82 215.539V215.551ZM168.431 224.81L160.604 222.201L158.509 228.453L166.336 231.063L168.431 224.81Z" fill="#FFB82F"/>
<path d="M177.62 189.482L175.272 193.366L191.167 202.962L188.831 204.441L179.643 198.898L176.873 203.479C179.282 202.685 181.076 202.649 182.256 203.359C183.135 203.888 183.701 204.657 183.942 205.667C184.183 206.665 184.038 207.603 183.52 208.457C182.822 209.623 181.365 210.453 179.149 210.97C176.945 211.487 174.368 211.583 171.442 211.271L171.37 209.792C173.513 210.02 175.452 209.948 177.198 209.563C178.944 209.179 180.112 208.493 180.727 207.483C180.991 207.05 181.04 206.569 180.883 206.052C180.727 205.535 180.401 205.126 179.92 204.838C179.125 204.357 178.101 204.309 176.837 204.669C175.573 205.03 174.26 205.764 172.899 206.87L172.297 206.269L177.523 197.635L173.995 195.507L165.987 208.734L163.266 209.251L174.898 190.036L177.62 189.518V189.482Z" fill="#FFB82F"/>
<path d="M189.662 175.642L186.748 179.117L200.969 191.045L198.272 192.007L194.009 188.436C194.009 189.338 193.888 190.179 193.636 190.985C193.395 191.79 193.07 192.428 192.684 192.885C191.637 194.135 190.119 194.869 188.156 195.073C186.194 195.278 184.291 194.869 182.461 193.811C183.316 192.801 183.918 191.706 184.267 190.54C184.616 189.374 184.484 188.52 183.857 187.991C183.087 187.341 181.834 187.017 180.112 187.005L177.295 190.348L174.525 190.444L186.892 175.738L189.662 175.642ZM191.311 186.175L185.146 181.005L181.16 185.742C183.099 185.574 184.7 186.019 185.965 187.077C186.748 187.726 187.097 188.664 187.025 189.879C186.952 191.093 186.483 192.211 185.616 193.245C186.218 193.75 186.952 193.919 187.843 193.75C188.722 193.582 189.469 193.137 190.083 192.416C191.721 190.468 192.118 188.388 191.299 186.163L191.311 186.175Z" fill="#FFB82F"/>
<path d="M212.252 157.257L208.664 160.022L220.008 174.704L217.286 175.233L213.384 170.171L210.844 180.716H208.495L211.506 168.752L206.123 170.556L204.124 178.083L201.643 177.915L203.281 170.929C202.113 171.301 200.981 171.373 199.897 171.181C198.826 170.977 197.995 170.496 197.405 169.738C196.887 169.077 196.742 168.271 196.947 167.345C197.152 166.419 197.658 165.638 198.452 165.025C199.536 164.195 200.813 163.894 202.294 164.111C203.775 164.327 204.955 165 205.81 166.119C206.328 166.792 206.424 167.934 206.111 169.534L211.494 167.73L206.701 161.537L205.232 162.668L202.824 161.922L209.519 156.764L212.252 157.269V157.257ZM203.546 169.943C203.931 168.187 203.847 166.96 203.293 166.239C202.968 165.83 202.559 165.59 202.065 165.518C201.559 165.457 201.102 165.578 200.692 165.902C200.138 166.335 199.825 166.876 199.741 167.562C199.669 168.235 199.825 168.836 200.247 169.377C200.451 169.654 200.861 169.834 201.475 169.943C202.077 170.051 202.775 170.051 203.558 169.943H203.546Z" fill="#FFB82F"/>
<path d="M220.2 153.012L216.311 155.357L225.908 171.229L223.15 171.445L214.191 156.631L211.614 158.182L208.953 157.377L213.481 154.647C212.361 153.385 211.145 152.459 209.844 151.894C208.543 151.328 207.424 151.316 206.496 151.882C205.858 152.266 205.449 152.807 205.268 153.529C205.087 154.238 205.196 154.924 205.581 155.561C205.786 155.886 206.46 156.607 207.604 157.713L206.544 158.351C205.087 157.533 204.088 156.679 203.57 155.814C202.992 154.864 202.836 153.83 203.1 152.711C203.365 151.593 203.992 150.739 204.967 150.15C206.207 149.405 207.737 149.38 209.567 150.078C211.397 150.775 213.107 152.05 214.709 153.902L217.539 152.194L220.2 153V153.012Z" fill="#FFB82F"/>
<path d="M238.468 144.763L232.796 147.144L235.674 153.973C236.288 155.44 236.192 156.98 235.373 158.567L243.67 161.789L243.008 163.413L231.339 158.038C230.966 157.869 230.677 157.545 230.484 157.064C230.304 156.643 230.292 156.234 230.424 155.825C230.556 155.416 230.809 155.14 231.183 154.984C231.761 154.743 232.327 154.647 232.868 154.719C232.893 154.07 232.808 153.504 232.604 153.036L230.52 148.093L226.643 149.729L224.126 148.55L235.951 143.572L238.468 144.751V144.763Z" fill="#FFB82F"/>
<path d="M246.922 142.142L242.611 143.561L248.427 161.164L245.561 160.371L240.262 144.33L237.445 145.256L235.036 143.885L244.525 140.759L246.934 142.13L246.922 142.142Z" fill="#FFB82F"/>
<path d="M264.744 138.173L260.3 139.135L264.226 157.256L261.54 156.571L260.144 150.125L253.689 151.52L254.038 153.132C254.086 153.384 254.062 153.637 253.942 153.877C253.821 154.118 253.653 154.262 253.46 154.31C252.69 154.478 251.762 154.166 250.654 153.372C249.547 152.578 248.908 151.761 248.716 150.907C248.595 150.366 248.812 150.041 249.354 149.933L250.763 149.632L249.017 141.576L245.826 142.261L243.574 140.638L262.492 136.55L264.744 138.173ZM259.638 147.709L257.892 139.652L251.437 141.047L253.183 149.103L259.638 147.709Z" fill="#FFB82F"/>
<path d="M315.489 78.3278L308.817 77.6664L306.12 104.938L302.652 102.762L304.205 87.0095L296.318 86.2279C298.907 88.9334 300.111 91.2902 299.906 93.3103C299.762 94.8254 299.087 96.0639 297.895 97.0138C296.703 97.9638 295.378 98.3726 293.897 98.2283C291.898 98.0359 289.851 96.6291 287.756 94.0077C285.661 91.3984 283.89 88.0436 282.433 83.9432L284.372 82.9091C285.42 85.9152 286.756 88.4524 288.382 90.5206C290.008 92.6009 291.682 93.7191 293.404 93.8875C294.15 93.9596 294.825 93.7312 295.415 93.178C296.005 92.6369 296.354 91.9515 296.426 91.1218C296.559 89.7631 295.981 88.3682 294.692 86.9133C293.404 85.4583 291.585 84.1837 289.249 83.0774L289.671 81.899L304.542 83.366L305.145 77.3057L282.385 75.0691L279.953 71.7744L313.032 75.0331L315.465 78.3278H315.489Z" fill="#FFB82F"/>
<path d="M341.62 84.8214L335.093 83.2582L328.663 109.904L325.604 106.97L327.531 98.9742C326.339 99.5634 325.135 99.9602 323.906 100.165C322.678 100.369 321.618 100.369 320.751 100.165C318.403 99.5995 316.44 98.0844 314.863 95.6314C313.297 93.1784 312.599 90.3887 312.779 87.2864C314.682 87.7433 316.524 87.8155 318.307 87.5148C320.089 87.2142 321.125 86.4687 321.414 85.2903C321.763 83.8474 321.377 81.9836 320.258 79.6869L313.972 78.1718L312.021 74.5645L339.657 81.214L341.608 84.8214H341.62ZM328.759 93.9359L331.541 82.3924L322.642 80.252C324.147 82.705 324.605 85.1099 324.039 87.4788C323.689 88.9337 322.69 90.028 321.028 90.7374C319.366 91.4469 317.572 91.5671 315.633 91.0981C315.368 92.2284 315.633 93.3107 316.428 94.3688C317.235 95.427 318.307 96.1244 319.679 96.449C323.34 97.3268 326.363 96.4851 328.759 93.9359Z" fill="#FFB82F"/>
<path d="M90.5317 271.621L91.3145 278.271L118.578 275.096L117.181 278.932L107.788 280.026L119.228 291.257L117.422 294.227L104.561 281.313L102.754 289.49L110.786 297.751L108.679 300.757L101.056 293.362C100.635 295.129 99.8763 296.62 98.8046 297.823C97.7329 299.025 96.4805 299.723 95.0716 299.879C93.8433 300.023 92.7113 299.602 91.6878 298.628C90.6642 297.654 90.0621 296.428 89.8935 294.961C89.6647 292.965 90.2427 291.113 91.6516 289.406C93.0605 287.698 94.8066 286.724 96.8899 286.484C98.1423 286.339 99.6596 287.085 101.442 288.708L103.248 280.531L91.7359 281.866L92.049 284.584L89.2673 287.049L87.8223 274.652L90.5317 271.573V271.621ZM100.009 292.279C98.0821 290.464 96.4444 289.634 95.1077 289.778C94.337 289.863 93.7229 290.211 93.2653 290.788C92.8077 291.378 92.615 292.051 92.6993 292.821C92.8197 293.843 93.2773 294.672 94.0721 295.286C94.8668 295.899 95.77 296.151 96.7574 296.031C97.2632 295.971 97.8171 295.598 98.4072 294.925C99.0093 294.239 99.5392 293.362 100.009 292.291V292.279Z" fill="#FFB82F"/>
<path d="M91.2182 258.286V264.984L118.674 264.948L116.844 268.603L91.2302 268.639V273.088L88.1956 275.83V268.038C85.727 268.483 83.6438 269.325 81.9217 270.527C80.2118 271.742 79.3448 273.148 79.3568 274.748C79.3568 275.842 79.7421 276.78 80.5008 277.549C81.2594 278.319 82.2108 278.704 83.3186 278.704C83.8846 278.704 85.3056 278.403 87.5815 277.79V279.618C85.426 280.844 83.6076 281.445 82.1024 281.457C80.4526 281.457 79.0317 280.868 77.8154 279.678C76.5992 278.487 75.9971 277.056 75.9971 275.373C75.9971 273.245 77.129 271.285 79.405 269.505C81.6809 267.725 84.6071 266.535 88.1836 265.91V261.04L91.2182 258.298V258.286Z" fill="#FFB82F"/>
<path d="M94.638 228.899L93.3616 237.881L104.236 239.42C106.572 239.757 108.438 241.044 109.847 243.292L120.239 235.236L121.793 237.304L106.102 247.994C105.596 248.331 104.97 248.451 104.199 248.343C103.537 248.246 102.995 247.958 102.586 247.477C102.176 246.996 102.008 246.467 102.092 245.878C102.224 244.952 102.538 244.182 103.043 243.557C102.237 243.028 101.454 242.715 100.707 242.607L92.8558 241.489L91.9767 247.633L88.5688 249.918L91.2422 231.16L94.6501 228.875L94.638 228.899Z" fill="#FFB82F"/>
<path d="M97.721 216.236L96.2519 222.778L123.033 228.766L119.854 231.796L95.4571 226.337L94.4937 230.618L90.9172 232.626L94.1445 218.244L97.721 216.236Z" fill="#FFB82F"/>
<path d="M106.21 190.625L104.055 196.974L130.054 205.752L127.151 208.626L117.903 205.499L114.772 214.734L117.084 215.516C117.446 215.636 117.747 215.876 117.963 216.213C118.18 216.55 118.24 216.874 118.144 217.163C117.771 218.257 116.663 219.207 114.82 220.013C112.966 220.819 111.437 221.011 110.232 220.602C109.462 220.338 109.209 219.833 109.474 219.063L110.16 217.043L98.5998 213.135L97.0585 217.692L93.2893 219.315L102.453 192.26L106.222 190.637L106.21 190.625ZM114.447 204.333L102.887 200.425L99.7559 209.66L111.316 213.568L114.447 204.333Z" fill="#FFB82F"/>
<path d="M128.259 152.134L124.767 157.845L148.189 172.131L144.721 174.295L131.186 166.046L127.055 172.804C130.62 171.65 133.269 171.601 135.003 172.66C136.304 173.453 137.122 174.596 137.472 176.075C137.821 177.554 137.604 178.936 136.833 180.199C135.786 181.918 133.63 183.145 130.367 183.89C127.103 184.636 123.298 184.768 118.975 184.299L118.891 182.111C122.058 182.472 124.924 182.375 127.501 181.81C130.078 181.257 131.824 180.235 132.715 178.768C133.112 178.131 133.185 177.421 132.956 176.652C132.727 175.882 132.257 175.281 131.535 174.848C130.379 174.139 128.862 174.054 126.983 174.572C125.116 175.101 123.166 176.171 121.155 177.794L120.276 176.904L128.067 164.17L122.865 160.996L110.943 180.488L106.909 181.245L124.225 152.915L128.259 152.158V152.134Z" fill="#FFB82F"/>
<path d="M146.166 131.729L141.831 136.839L162.772 154.551L158.774 155.958L152.488 150.643C152.488 151.966 152.295 153.228 151.922 154.419C151.549 155.609 151.079 156.547 150.501 157.232C148.936 159.072 146.708 160.142 143.806 160.443C140.904 160.744 138.098 160.106 135.4 158.543C136.665 157.052 137.556 155.453 138.098 153.721C138.628 151.99 138.435 150.739 137.508 149.946C136.376 148.984 134.533 148.491 131.968 148.455L127.79 153.385L123.696 153.505L142.06 131.849L146.166 131.729ZM148.538 147.3L139.459 139.629L133.546 146.603C136.412 146.362 138.772 147.036 140.639 148.611C141.783 149.585 142.3 150.968 142.192 152.759C142.084 154.551 141.385 156.21 140.097 157.725C140.976 158.471 142.072 158.724 143.384 158.495C144.697 158.255 145.805 157.605 146.708 156.535C149.14 153.673 149.754 150.595 148.538 147.312V147.3Z" fill="#FFB82F"/>
<path d="M179.667 104.698L174.344 108.762L191.01 130.527L186.988 131.296L181.244 123.793L177.427 139.365L173.947 139.341L178.475 121.701L170.515 124.334L167.504 135.445L163.844 135.18L166.312 124.863C164.578 125.404 162.904 125.512 161.315 125.212C159.725 124.911 158.497 124.19 157.63 123.059C156.871 122.073 156.654 120.895 156.968 119.512C157.281 118.129 158.027 116.999 159.207 116.097C160.809 114.871 162.7 114.438 164.891 114.762C167.083 115.099 168.817 116.097 170.081 117.757C170.84 118.755 170.984 120.438 170.491 122.807L178.463 120.174L171.418 110.987L169.238 112.646L165.686 111.528L175.621 103.94L179.655 104.698H179.667ZM166.722 123.384C167.3 120.799 167.179 118.971 166.36 117.901C165.891 117.288 165.289 116.927 164.542 116.831C163.795 116.735 163.121 116.915 162.507 117.384C161.688 118.009 161.218 118.827 161.098 119.825C160.978 120.823 161.218 121.713 161.82 122.506C162.134 122.903 162.724 123.192 163.627 123.36C164.518 123.528 165.541 123.528 166.71 123.384H166.722Z" fill="#FFB82F"/>
<path d="M191.48 98.4449L185.724 101.884L199.801 125.404L195.719 125.704L182.581 103.748L178.764 106.032L174.838 104.83L181.545 100.826C179.896 98.95 178.113 97.5792 176.199 96.7254C174.284 95.8717 172.634 95.8597 171.249 96.6773C170.31 97.2425 169.696 98.0481 169.431 99.0943C169.154 100.14 169.311 101.15 169.889 102.1C170.178 102.593 171.177 103.652 172.863 105.287L171.298 106.225C169.142 104.998 167.685 103.748 166.914 102.461C166.071 101.054 165.843 99.5271 166.252 97.8798C166.649 96.2324 167.577 94.9819 169.022 94.1161C170.852 93.0219 173.116 92.9978 175.813 94.0319C178.511 95.0661 181.04 96.9659 183.4 99.7195L187.59 97.2184L191.504 98.4209L191.48 98.4449Z" fill="#FFB82F"/>
<path d="M218.539 86.3842L210.145 89.8713L214.36 99.9959C215.263 102.172 215.107 104.433 213.89 106.79L226.137 111.6L225.15 113.992L207.942 105.972C207.4 105.72 206.978 105.227 206.677 104.517C206.424 103.904 206.388 103.291 206.593 102.689C206.798 102.088 207.171 101.679 207.713 101.451C208.58 101.09 209.411 100.97 210.205 101.078C210.242 100.116 210.121 99.2865 209.832 98.6011L206.786 91.2902L201.041 93.671L197.333 91.9155L214.842 84.6406L218.551 86.3962L218.539 86.3842Z" fill="#FFB82F"/>
<path d="M231.05 82.5725L224.668 84.6407L233.145 110.71L228.907 109.519L221.176 85.771L216.997 87.1298L213.445 85.0856L227.486 80.5283L231.038 82.5725H231.05Z" fill="#FFB82F"/>
<path d="M257.434 76.8251L250.871 78.2079L256.543 105.023L252.581 103.988L250.57 94.453L241.021 96.4611L241.527 98.842C241.611 99.2147 241.551 99.5875 241.37 99.9482C241.189 100.309 240.949 100.525 240.648 100.586C239.516 100.826 238.131 100.357 236.505 99.1787C234.867 98.0003 233.928 96.7858 233.663 95.5352C233.495 94.7416 233.808 94.2607 234.603 94.0923L236.686 93.6474L234.169 81.7311L229.449 82.7292L226.137 80.3122L254.123 74.4082L257.434 76.8251ZM249.812 90.8818L247.295 78.9655L237.745 80.9856L240.262 92.9019L249.812 90.8938V90.8818Z" fill="#FFB82F"/>
<path d="M327.784 8.97028L318.644 8.06844L314.959 45.4045L310.226 42.4224L312.358 20.8505L301.556 19.7803C305.109 23.4839 306.746 26.7184 306.469 29.4841C306.265 31.5643 305.349 33.2477 303.724 34.5584C302.098 35.8691 300.28 36.4222 298.257 36.2178C295.511 35.9412 292.705 34.0293 289.851 30.446C286.985 26.8748 284.565 22.2694 282.578 16.666L285.239 15.2471C286.684 19.3594 288.515 22.8345 290.73 25.6723C292.946 28.5101 295.246 30.0492 297.594 30.2897C298.618 30.3859 299.545 30.0733 300.352 29.3278C301.171 28.5822 301.628 27.6443 301.737 26.514C301.917 24.6623 301.135 22.7383 299.365 20.7543C297.606 18.7702 295.114 17.0147 291.911 15.4996L292.489 13.8763L312.84 15.8844L313.658 7.58746L282.506 4.52121L279.182 0L324.46 4.46109L327.784 8.9823V8.97028Z" fill="#FFB82F"/>
<path d="M19.9176 272.92L20.9532 282.034L58.2835 277.79L56.3567 283.045L43.4959 284.512L59.1144 299.939L56.6337 304.003L39.0644 286.279L36.5597 297.474L47.5179 308.813L44.6278 312.913L34.2235 302.765C33.6335 305.182 32.5978 307.214 31.1167 308.861C29.6355 310.508 27.9376 311.446 25.9988 311.663C24.3129 311.855 22.7716 311.278 21.3747 309.943C19.9778 308.609 19.1589 306.925 18.9302 304.917C18.6171 302.188 19.4239 299.65 21.3626 297.318C23.3014 294.985 25.6857 293.662 28.5397 293.338C30.2496 293.145 32.3329 294.167 34.7774 296.404L37.2822 285.209L21.5192 287.001L21.9407 290.728L18.1233 294.095L16.1846 277.116L19.9056 272.92H19.9176ZM32.8146 301.238C30.1774 298.737 27.9496 297.594 26.1192 297.811C25.0716 297.931 24.2286 298.388 23.5904 299.193C22.9522 299.999 22.6993 300.913 22.8197 301.971C22.9763 303.378 23.6025 304.508 24.6983 305.35C25.7941 306.192 27.0103 306.528 28.3711 306.384C29.0575 306.3 29.8161 305.795 30.635 304.869C31.4539 303.931 32.1884 302.741 32.8266 301.262L32.8146 301.238Z" fill="#FFB82F"/>
<path d="M20.9049 254.667V263.842L58.464 263.89L55.9472 268.892L20.8809 268.844V274.929L16.6902 278.68V268.002C13.3305 268.604 10.4766 269.734 8.11632 271.393C5.75608 273.041 4.58801 274.965 4.57597 277.165C4.57597 278.668 5.09377 279.943 6.14143 281.001C7.18909 282.059 8.46554 282.588 10.0069 282.588C10.7896 282.588 12.7405 282.179 15.8473 281.35V283.851C12.897 285.51 10.3923 286.34 8.33308 286.34C6.08122 286.34 4.13041 285.522 2.46861 283.899C0.818857 282.252 0 280.292 0 277.983C0 275.061 1.56546 272.391 4.68435 269.962C7.80323 267.534 11.8132 265.91 16.7143 265.081V258.407L20.9049 254.655V254.667Z" fill="#FFB82F"/>
<path d="M25.6976 214.396L23.9154 226.686L38.7873 228.838C41.9785 229.307 44.5314 231.074 46.446 234.165L60.6918 223.174L62.8111 226.012L41.2921 240.586C40.6057 241.055 39.7386 241.199 38.691 241.055C37.7758 240.923 37.0412 240.526 36.4753 239.876C35.9093 239.215 35.6805 238.494 35.8009 237.7C35.9815 236.437 36.415 235.379 37.1014 234.513C35.9936 233.792 34.9339 233.359 33.9103 233.215L23.1688 231.664L21.9526 240.081L17.2803 243.195L21.0133 217.535L25.6856 214.421L25.6976 214.396Z" fill="#FFB82F"/>
<path d="M29.9607 197.07L27.9256 206.016L64.5694 214.313L60.2102 218.449L26.8297 210.886L25.5051 216.742L20.604 219.471L25.0716 199.799L29.9727 197.058L29.9607 197.07Z" fill="#FFB82F"/>
<path d="M41.7015 162.006L38.7392 170.688L74.2993 182.808L70.3133 186.728L57.6692 182.423L53.3582 195.049L56.5132 196.131C57.019 196.3 57.4163 196.624 57.7053 197.093C58.0064 197.562 58.0786 197.995 57.9462 198.392C57.4284 199.895 55.9111 201.182 53.3823 202.276C50.8534 203.37 48.7581 203.623 47.0963 203.058C46.0366 202.697 45.6995 201.987 46.0487 200.941L46.988 198.176L31.1888 192.789L29.0574 199.017L23.8914 201.218L36.5475 164.218L41.7135 162.018L41.7015 162.006ZM52.9247 180.812L37.1255 175.425L32.8145 188.051L48.6136 193.438L52.9247 180.812Z" fill="#FFB82F"/>
<path d="M72.0354 109.423L67.2307 117.239L99.2384 136.875L94.4818 139.833L75.9852 128.482L70.3014 137.717C75.1905 136.142 78.8151 136.094 81.1874 137.548C82.9696 138.643 84.0895 140.206 84.5471 142.226C85.0167 144.258 84.7157 146.134 83.656 147.865C82.211 150.21 79.2607 151.882 74.781 152.892C70.3134 153.902 65.1113 154.07 59.1866 153.397L59.0782 150.391C63.4013 150.896 67.3391 150.775 70.8674 150.018C74.3957 149.272 76.78 147.89 78.0203 145.869C78.5622 144.992 78.6706 144.03 78.3575 142.972C78.0444 141.913 77.4062 141.084 76.4308 140.494C74.8412 139.52 72.77 139.388 70.2051 140.098C67.6401 140.807 64.9788 142.274 62.2092 144.487L61.005 143.26L71.7103 125.861L64.5935 121.496L48.2043 148.13L42.677 149.14L66.4961 110.421L72.0234 109.411L72.0354 109.423Z" fill="#FFB82F"/>
<path d="M96.6493 81.526L90.6885 88.5002L119.288 112.826L113.821 114.738L105.247 107.439C105.235 109.255 104.97 110.974 104.465 112.597C103.959 114.221 103.297 115.507 102.514 116.433C100.37 118.946 97.2996 120.413 93.3257 120.798C89.3519 121.195 85.5225 120.317 81.8377 118.165C83.5717 116.133 84.812 113.932 85.5466 111.575C86.2812 109.206 86.0162 107.487 84.7518 106.405C83.2104 105.094 80.6816 104.409 77.1774 104.349L71.4334 111.07L65.8218 111.227L91.0498 81.6583L96.6614 81.502L96.6493 81.526ZM99.8405 102.857L87.4492 92.312L79.3329 101.835C83.2586 101.523 86.4859 102.449 89.0267 104.613C90.5922 105.948 91.3027 107.848 91.1341 110.301C90.9776 112.754 90.0142 115.026 88.244 117.094C89.4482 118.117 90.9535 118.477 92.7477 118.153C94.542 117.828 96.0593 116.938 97.2996 115.483C100.635 111.575 101.49 107.367 99.8405 102.857Z" fill="#FFB82F"/>
<path d="M142.662 44.6347L135.352 50.178L158.076 80.0468L152.572 81.081L144.745 70.788L139.447 92.0834L134.69 92.0353L140.964 67.9021L130.054 71.4734L125.887 86.6724L120.878 86.2876L124.298 72.1828C121.913 72.9043 119.638 73.0606 117.458 72.6277C115.278 72.2069 113.604 71.2088 112.424 69.6697C111.401 68.323 111.1 66.6997 111.545 64.8238C111.979 62.936 113.014 61.3848 114.628 60.1583C116.82 58.4989 119.421 57.8977 122.407 58.3667C125.406 58.8356 127.766 60.2064 129.5 62.4911C130.548 63.8619 130.728 66.1706 130.042 69.4052L140.952 65.8339L131.354 53.2202L128.368 55.4928L123.515 53.9417L137.147 43.6006L142.662 44.6467V44.6347ZM124.864 70.1627C125.671 66.6275 125.514 64.1264 124.406 62.6594C123.768 61.8177 122.937 61.3247 121.926 61.1924C120.914 61.0602 119.987 61.3006 119.144 61.9379C118.012 62.7917 117.362 63.91 117.193 65.2687C117.024 66.6395 117.35 67.854 118.18 68.9482C118.602 69.5014 119.421 69.8861 120.637 70.1146C121.853 70.3431 123.262 70.3551 124.864 70.1507V70.1627Z" fill="#FFB82F"/>
<path d="M158.858 36.1338L150.959 40.8114L170.13 73.0731L164.542 73.4699L146.648 43.3606L141.41 46.4629L136.051 44.7915L145.239 39.3444C142.999 36.7711 140.555 34.8833 137.941 33.7169C135.316 32.5385 133.064 32.5145 131.174 33.6327C129.885 34.4023 129.042 35.4965 128.669 36.9395C128.296 38.3704 128.488 39.7532 129.271 41.0639C129.669 41.7373 131.017 43.1922 133.329 45.4408L131.174 46.7154C128.236 45.032 126.237 43.3125 125.189 41.5449C124.033 39.6089 123.744 37.5167 124.298 35.2681C124.852 33.0195 126.128 31.3 128.115 30.1216C130.632 28.6306 133.727 28.6065 137.412 30.0374C141.096 31.4683 144.552 34.0777 147.768 37.8654L153.512 34.4624L158.87 36.1338H158.858Z" fill="#FFB82F"/>
<path d="M196.008 19.7086L184.508 24.4342L190.228 38.3105C191.456 41.2925 191.227 44.3948 189.541 47.6054L206.28 54.2429L204.919 57.5136L181.389 46.451C180.642 46.1023 180.064 45.429 179.667 44.455C179.318 43.6012 179.282 42.7715 179.559 41.9539C179.836 41.1362 180.353 40.5711 181.1 40.2584C182.28 39.7774 183.424 39.6091 184.508 39.7534C184.568 38.4427 184.399 37.3004 184.002 36.3505L179.872 26.3341L171.996 29.5686L166.927 27.1397L190.938 17.2676L196.008 19.6965V19.7086Z" fill="#FFB82F"/>
<path d="M213.108 14.5621L204.365 17.3638L215.865 53.0766L210.073 51.4292L199.597 18.8909L193.877 20.7307L189.024 17.9049L208.255 11.7363L213.108 14.5621Z" fill="#FFB82F"/>
<path d="M249.318 6.81748L240.323 8.68128L247.957 45.4161L242.538 43.9852L239.829 30.9266L226.751 33.6321L227.426 36.9028C227.534 37.4198 227.462 37.9249 227.209 38.4179C226.956 38.9109 226.631 39.1995 226.221 39.2836C224.668 39.6083 222.777 38.959 220.55 37.3357C218.322 35.7124 217.033 34.041 216.672 32.3335C216.443 31.2513 216.877 30.5899 217.973 30.3615L220.839 29.7723L217.443 13.443L210.988 14.7777L206.46 11.4589L244.802 3.51074L249.33 6.8295L249.318 6.81748ZM238.805 26.0326L235.409 9.70336L222.332 12.4089L225.728 28.7381L238.805 26.0206V26.0326Z" fill="#FFB82F"/>
</g>
<defs>
<clipPath id="clip0_9_1499">
<rect width="564" height="532" fill="white"/>
</clipPath>
</defs>
</svg>
