<svg width="294" height="282" viewBox="0 0 294 282" fill="none" xmlns="http://www.w3.org/2000/svg">
<g clip-path="url(#clip0_9_1234)">
<path d="M15.6249 245.239L14.8783 245.167L14.5773 248.221L14.1919 247.981L14.3605 246.213L13.4814 246.129C13.7704 246.43 13.9029 246.694 13.8788 246.923C13.8668 247.091 13.7825 247.235 13.65 247.332C13.5176 247.44 13.373 247.488 13.2045 247.464C12.9757 247.44 12.7469 247.284 12.5181 246.995C12.2893 246.706 12.0845 246.322 11.928 245.865L12.1448 245.744C12.2652 246.081 12.4097 246.37 12.5903 246.598C12.7709 246.827 12.9636 246.959 13.1563 246.971C13.2406 246.971 13.3128 246.959 13.3851 246.899C13.4573 246.839 13.4935 246.766 13.4935 246.67C13.5055 246.514 13.4453 246.358 13.3008 246.201C13.1563 246.033 12.9516 245.889 12.6867 245.768L12.7348 245.636L14.3966 245.805L14.4568 245.131L11.9039 244.879L11.627 244.506L15.3359 244.867L15.6129 245.239H15.6249Z" fill="#FF9243"/>
<path d="M18.5873 245.973L17.8527 245.792L17.1302 248.774L16.781 248.45L16.9977 247.56C16.8653 247.62 16.7328 247.668 16.5883 247.692C16.4558 247.716 16.3354 247.716 16.2391 247.692C15.9741 247.632 15.7574 247.464 15.5768 247.187C15.3961 246.911 15.3239 246.598 15.348 246.249C15.5647 246.297 15.7694 246.309 15.9621 246.273C16.1548 246.237 16.2752 246.153 16.3113 246.021C16.3474 245.864 16.3113 245.648 16.1789 245.396L15.4804 245.227L15.2637 244.818L18.3585 245.564L18.5752 245.973H18.5873ZM17.1422 246.995L17.4553 245.696L16.4558 245.456C16.6244 245.732 16.6726 245.997 16.6124 246.261C16.5762 246.43 16.4558 246.55 16.2752 246.622C16.0825 246.706 15.8899 246.718 15.6731 246.658C15.637 246.778 15.6731 246.911 15.7574 247.031C15.8417 247.151 15.9621 247.223 16.1187 247.259C16.5281 247.356 16.8653 247.259 17.1302 246.983L17.1422 246.995Z" fill="#FF9243"/>
<path d="M22.9703 247.969L22.2959 247.644L20.9472 250.398L20.6703 250.037L21.1399 249.087L19.3818 249.484L19.2132 249.135L21.2122 248.702L20.5499 248.041L19.2854 248.293L19.1289 247.909L20.2849 247.644C20.1404 247.5 20.0441 247.331 19.9959 247.163C19.9478 246.983 19.9598 246.826 20.0321 246.682C20.0923 246.562 20.2006 246.478 20.3572 246.442C20.5137 246.405 20.6582 246.418 20.8148 246.49C21.0195 246.586 21.152 246.754 21.2363 246.995C21.3085 247.235 21.2965 247.452 21.2001 247.668C21.1399 247.8 20.9713 247.897 20.7184 247.957L21.3808 248.618L21.9467 247.452L21.6698 247.319L21.6096 246.911L22.8619 247.524L22.9823 247.969H22.9703ZM20.4535 247.608C20.7425 247.536 20.9232 247.428 20.9834 247.295C21.0195 247.223 21.0315 247.139 20.9954 247.055C20.9713 246.983 20.9111 246.923 20.8389 246.874C20.7305 246.826 20.6341 246.814 20.5258 246.85C20.4174 246.886 20.3452 246.959 20.297 247.055C20.2729 247.103 20.2729 247.175 20.297 247.283C20.3211 247.379 20.3813 247.488 20.4535 247.596V247.608Z" fill="#FF9243"/>
<path d="M24.1869 248.835L23.5486 248.426L21.8868 251.011L21.646 250.614L23.1994 248.197L22.7779 247.933L22.7057 247.476L23.4402 247.945C23.5486 247.692 23.5968 247.44 23.5848 247.199C23.5727 246.959 23.4884 246.803 23.3439 246.706C23.2476 246.646 23.1272 246.622 23.0068 246.646C22.8863 246.67 22.79 246.742 22.7298 246.839C22.6936 246.887 22.6334 247.043 22.5612 247.296L22.3926 247.187C22.4046 246.911 22.4649 246.706 22.5491 246.562C22.6455 246.406 22.79 246.31 22.9706 246.261C23.1512 246.213 23.3319 246.249 23.4884 246.346C23.6931 246.478 23.8015 246.694 23.8376 247.019C23.8738 247.344 23.8015 247.692 23.645 248.065L24.1026 248.354L24.1748 248.811L24.1869 248.835Z" fill="#FF9243"/>
<path d="M26.7518 250.939L25.9811 250.277L25.1743 251.203C25.0057 251.408 24.7649 251.504 24.4638 251.492L24.5963 252.959L24.3073 252.983L24.2471 250.855C24.2471 250.782 24.2711 250.722 24.3314 250.65C24.3795 250.59 24.4397 250.566 24.512 250.554C24.5842 250.554 24.6445 250.554 24.6926 250.602C24.7649 250.674 24.8251 250.746 24.8492 250.83C24.9455 250.782 25.0298 250.734 25.078 250.674L25.656 250.001L25.1261 249.544V249.087L26.7277 250.47V250.927L26.7518 250.939Z" fill="#FF9243"/>
<path d="M27.7632 251.997L27.2333 251.468L25.0417 253.621L24.9453 253.14L26.9443 251.18L26.5951 250.831L26.6192 250.374L27.7752 251.552L27.7511 252.009L27.7632 251.997Z" fill="#FF9243"/>
<path d="M29.654 254.342L29.1843 253.753L26.7759 255.665L26.6796 255.22L27.5346 254.534L26.8482 253.68L26.6314 253.849C26.6314 253.849 26.5592 253.885 26.511 253.885C26.4628 253.885 26.4267 253.873 26.4147 253.849C26.3304 253.753 26.3063 253.584 26.3424 253.368C26.3786 253.151 26.4508 252.995 26.5712 252.899C26.6435 252.839 26.7037 252.851 26.7639 252.923L26.9084 253.115L27.9801 252.262L27.643 251.841L27.7152 251.384L29.7142 253.885L29.6419 254.342H29.654ZM27.8597 254.282L28.9315 253.428L28.2451 252.574L27.1733 253.428L27.8597 254.282Z" fill="#FF9243"/>
<path d="M31.9541 258.719L31.629 258.045L28.8713 259.392V258.935L30.4729 258.154L30.0876 257.36C29.9792 257.769 29.8227 258.021 29.6179 258.118C29.4614 258.19 29.3048 258.202 29.1483 258.142C28.9918 258.081 28.8713 257.985 28.7991 257.829C28.7028 257.625 28.7148 257.348 28.8352 256.999C28.9556 256.651 29.1724 256.278 29.4855 255.905L29.7022 256.025C29.4734 256.302 29.3169 256.578 29.2085 256.855C29.1122 257.132 29.1001 257.36 29.1844 257.528C29.2205 257.6 29.2808 257.649 29.3651 257.673C29.4494 257.697 29.5336 257.685 29.6179 257.649C29.7504 257.576 29.8588 257.444 29.919 257.24C29.9792 257.035 29.9912 256.783 29.9672 256.494L30.1117 256.47L30.8462 257.973L31.4604 257.673L30.3284 255.376L30.497 254.955L32.1347 258.298L31.9661 258.719H31.9541Z" fill="#FF9243"/>
<path d="M32.7966 261.64L32.5799 260.919L29.6416 261.821L29.75 261.364L30.629 261.087C30.5086 261.003 30.4003 260.907 30.3039 260.811C30.2196 260.703 30.1594 260.606 30.1233 260.51C30.039 260.246 30.0751 259.981 30.2196 259.68C30.3641 259.392 30.5929 259.163 30.906 259.007C30.9662 259.212 31.0626 259.392 31.195 259.548C31.3275 259.705 31.4599 259.765 31.5924 259.717C31.7489 259.668 31.9055 259.524 32.062 259.284L31.8453 258.586L32.0861 258.189L33.0254 261.232L32.7846 261.628L32.7966 261.64ZM31.183 260.919L32.4594 260.522L32.1584 259.548C32.0139 259.837 31.8092 260.017 31.5442 260.101C31.3877 260.149 31.2191 260.113 31.0626 259.993C30.906 259.873 30.7856 259.705 30.7133 259.5C30.5929 259.536 30.4966 259.62 30.4484 259.765C30.3882 259.897 30.3882 260.041 30.4364 260.198C30.5568 260.594 30.8097 260.847 31.195 260.931L31.183 260.919Z" fill="#FF9243"/>
<path d="M33.3267 266.426L33.2665 265.681L30.2079 265.933L30.3764 265.512L31.4361 265.428L30.1958 264.13L30.4126 263.805L31.8094 265.296L32.0382 264.382L31.1712 263.432L31.4241 263.107L32.243 263.961C32.2911 263.769 32.3875 263.6 32.5079 263.468C32.6283 263.336 32.7728 263.264 32.9293 263.252C33.0738 263.252 33.1943 263.288 33.3026 263.408C33.411 263.516 33.4712 263.661 33.4953 263.829C33.5074 264.057 33.4472 264.262 33.2786 264.442C33.11 264.623 32.9173 264.731 32.6765 264.755C32.532 264.755 32.3634 264.683 32.1707 264.49L31.9419 265.404L33.2304 265.296L33.2063 264.995L33.5314 264.731L33.6519 266.126L33.3388 266.462L33.3267 266.426ZM32.3513 264.069C32.556 264.286 32.7367 264.382 32.8932 264.37C32.9775 264.37 33.0498 264.322 33.11 264.262C33.1582 264.202 33.1822 264.117 33.1822 264.033C33.1822 263.913 33.122 263.829 33.0377 263.757C32.9534 263.685 32.845 263.661 32.7367 263.661C32.6765 263.661 32.6163 263.709 32.544 263.781C32.4718 263.853 32.4115 263.949 32.3513 264.069Z" fill="#FF9243"/>
<path d="M33.2063 267.893L33.2304 267.148L30.1597 267.051L30.3764 266.655L33.2424 266.751V266.258L33.6037 265.957L33.5796 266.835C33.8566 266.799 34.0974 266.715 34.2901 266.582C34.4828 266.45 34.5911 266.294 34.5911 266.114C34.5911 265.993 34.555 265.885 34.4707 265.801C34.3864 265.717 34.2901 265.669 34.1576 265.657C34.0974 265.657 33.9288 265.681 33.6759 265.741V265.536C33.9288 265.404 34.1335 265.344 34.3021 265.356C34.4828 265.356 34.6393 265.428 34.7718 265.572C34.9042 265.705 34.9644 265.873 34.9644 266.065C34.9644 266.306 34.8199 266.522 34.5671 266.715C34.3021 266.907 33.977 267.027 33.5676 267.088L33.5435 267.629L33.1943 267.929L33.2063 267.893Z" fill="#FF9243"/>
<path d="M32.7004 271.201L32.8811 270.203L31.6648 269.986C31.3999 269.938 31.2072 269.794 31.0507 269.529L29.8585 270.395L29.6899 270.154L31.4842 269.012C31.4842 269.012 31.6167 268.964 31.701 268.976C31.7732 268.988 31.8334 269.024 31.8816 269.072C31.9298 269.132 31.9418 269.192 31.9298 269.253C31.9057 269.361 31.8696 269.445 31.8093 269.505C31.8936 269.565 31.9779 269.601 32.0622 269.613L32.9413 269.77L33.0617 269.084L33.4471 268.844L33.0737 270.936L32.6884 271.177L32.7004 271.201Z" fill="#FF9243"/>
<path d="M32.3149 272.595L32.5076 271.874L29.5332 271.104L29.8944 270.779L32.6039 271.477L32.7243 271.008L33.1338 270.791L32.7243 272.391L32.3149 272.607V272.595Z" fill="#FF9243"/>
<path d="M31.2674 275.433L31.5323 274.736L28.6543 273.653L28.9915 273.341L30.0151 273.726L30.4004 272.704L30.1475 272.607C30.1475 272.607 30.0753 272.559 30.0512 272.523C30.0271 272.487 30.0271 272.451 30.0391 272.415C30.0873 272.295 30.2077 272.186 30.4245 272.114C30.6292 272.03 30.8098 272.018 30.9423 272.066C31.0266 272.102 31.0507 272.162 31.0266 272.247L30.9423 272.475L32.2187 272.956L32.4114 272.451L32.8329 272.283L31.7009 275.277L31.2674 275.445V275.433ZM30.4004 273.87L31.6769 274.351L32.0622 273.329L30.7857 272.848L30.4004 273.87Z" fill="#FF9243"/>
<path d="M28.6545 279.641L29.064 279.016L26.499 277.333L26.8964 277.104L28.3776 278.078L28.8713 277.333C28.4739 277.453 28.1729 277.441 27.9802 277.333C27.8357 277.236 27.7514 277.104 27.7153 276.936C27.6791 276.768 27.7153 276.611 27.7996 276.479C27.92 276.287 28.1729 276.166 28.5341 276.094C28.8954 276.022 29.3289 276.022 29.8106 276.094V276.335C29.4614 276.287 29.1362 276.287 28.8472 276.335C28.5582 276.383 28.3535 276.491 28.2451 276.659C28.1969 276.731 28.1849 276.804 28.209 276.9C28.2331 276.984 28.2812 277.056 28.3655 277.104C28.498 277.188 28.6666 277.2 28.8713 277.152C29.076 277.104 29.3048 276.984 29.5336 276.816L29.63 276.924L28.7148 278.319L29.2807 278.691L30.6896 276.551L31.1472 276.479L29.1001 279.581L28.6425 279.653L28.6545 279.641Z" fill="#FF9243"/>
<path d="M26.571 281.866L27.0767 281.313L24.8008 279.257L25.2584 279.112L25.9448 279.726C25.9448 279.581 25.9809 279.437 26.017 279.305C26.0532 279.172 26.1134 279.064 26.1856 278.992C26.3663 278.788 26.6191 278.679 26.9443 278.655C27.2694 278.631 27.5825 278.716 27.8835 278.896C27.739 279.064 27.6307 279.233 27.5584 279.425C27.4862 279.617 27.5102 279.762 27.6066 279.846C27.727 279.954 27.9317 280.014 28.2207 280.038L28.7024 279.497H29.16L27.0286 281.854H26.571V281.866ZM26.3662 280.122L27.3537 281.012L28.0401 280.255C27.715 280.267 27.4621 280.182 27.2574 280.002C27.1369 279.894 27.0767 279.738 27.1008 279.533C27.1249 279.329 27.2092 279.148 27.3537 278.98C27.2573 278.896 27.1369 278.86 26.9924 278.884C26.8479 278.908 26.7155 278.98 26.6191 279.088C26.3301 279.401 26.2579 279.738 26.3783 280.11L26.3662 280.122Z" fill="#FF9243"/>
<path d="M22.7296 284.763L23.3438 284.331L21.5615 281.83L22.0191 281.757L22.6333 282.623L23.115 280.892H23.5003L22.9223 282.864L23.8254 282.599L24.1987 281.373L24.6082 281.421L24.2951 282.563C24.4877 282.515 24.6804 282.503 24.861 282.539C25.0417 282.575 25.1741 282.659 25.2705 282.791C25.3548 282.9 25.3668 283.044 25.3307 283.188C25.2946 283.345 25.1982 283.465 25.0658 283.561C24.8851 283.693 24.6684 283.729 24.4275 283.693C24.1867 283.645 23.994 283.525 23.8616 283.345C23.7773 283.236 23.7773 283.044 23.8375 282.779L22.9343 283.044L23.693 284.102L23.9459 283.922L24.3432 284.066L23.1992 284.884L22.7537 284.788L22.7296 284.763ZM24.2469 282.719C24.1747 283.008 24.1746 283.212 24.271 283.333C24.3191 283.405 24.3914 283.441 24.4757 283.465C24.56 283.489 24.6322 283.465 24.7045 283.405C24.8008 283.333 24.849 283.248 24.8731 283.14C24.8851 283.032 24.8731 282.924 24.8008 282.84C24.7647 282.791 24.7045 282.755 24.5961 282.743C24.4998 282.719 24.3794 282.719 24.2469 282.731V282.719Z" fill="#FF9243"/>
<path d="M0.283203 284.235L0.933482 284.62L2.48689 281.975L2.73979 282.359L1.29473 284.836L1.72824 285.089L1.82458 285.534L1.06595 285.089C0.969609 285.353 0.933469 285.594 0.957553 285.834C0.981637 286.063 1.06593 286.231 1.22248 286.327C1.33086 286.388 1.43923 286.412 1.55965 286.376C1.68007 286.352 1.76438 286.279 1.83663 286.171C1.87276 286.111 1.92092 285.967 1.99317 285.714L2.17381 285.81C2.17381 286.087 2.12564 286.303 2.04135 286.448C1.94501 286.604 1.81255 286.712 1.63192 286.76C1.45129 286.808 1.27065 286.784 1.11411 286.688C0.909391 286.568 0.788974 286.352 0.740806 286.027C0.692638 285.702 0.7408 285.353 0.885304 284.981L0.415666 284.704L0.319328 284.259L0.283203 284.235Z" fill="#FF9243"/>
<path d="M-2.36572 282.226L-1.57094 282.864L-0.800256 281.902C-0.631668 281.697 -0.402868 281.589 -0.101817 281.577L-0.294494 280.122L-0.00547886 280.086L0.139019 282.202C0.139019 282.274 0.114938 282.335 0.0667703 282.407C0.0186024 282.467 -0.0416188 282.503 -0.113871 282.515C-0.186123 282.527 -0.246326 282.515 -0.294494 282.467C-0.378788 282.407 -0.438997 282.323 -0.463081 282.238C-0.559417 282.286 -0.631673 282.347 -0.691883 282.407L-1.24582 283.104L-0.703918 283.537L-0.679847 283.994L-2.34163 282.671L-2.36572 282.214V282.226Z" fill="#FF9243"/>
<path d="M0.331389 248.258L-0.258676 248.715L1.61988 251.144L1.17433 251.228L0.524047 250.398L0.102588 252.142H-0.282766L0.210962 250.158L-0.680154 250.458L-1.00528 251.709L-1.41472 251.685L-1.14979 250.53C-1.34246 250.59 -1.53513 250.602 -1.70371 250.566C-1.88435 250.53 -2.0168 250.458 -2.11314 250.326C-2.19743 250.218 -2.22153 250.085 -2.18541 249.929C-2.14928 249.773 -2.06498 249.653 -1.93252 249.544C-1.75189 249.412 -1.54717 249.352 -1.29429 249.388C-1.05345 249.424 -0.848741 249.532 -0.716279 249.725C-0.631985 249.833 -0.60789 250.025 -0.668101 250.29L0.222997 249.989L-0.571762 248.967L-0.812617 249.16L-1.20999 249.039L-0.102124 248.186L0.35546 248.27L0.331389 248.258ZM-1.11367 250.362C-1.05346 250.073 -1.06549 249.869 -1.16183 249.749C-1.21 249.677 -1.28225 249.641 -1.36654 249.629C-1.45083 249.629 -1.52309 249.628 -1.59534 249.689C-1.69168 249.761 -1.73985 249.857 -1.75189 249.965C-1.76394 250.073 -1.73984 250.182 -1.66759 250.266C-1.63146 250.314 -1.55921 250.338 -1.46288 250.362C-1.36654 250.374 -1.24613 250.374 -1.11367 250.362Z" fill="#FF9243"/>
<path d="M1.63212 247.56L0.993871 247.945L2.58343 250.566L2.12582 250.602L0.632625 248.149L0.211147 248.402L-0.234401 248.27L0.512198 247.813C0.331568 247.608 0.126853 247.452 -0.089903 247.356C-0.306659 247.26 -0.487298 247.26 -0.643844 247.356C-0.752222 247.416 -0.81243 247.512 -0.848556 247.632C-0.87264 247.753 -0.848546 247.861 -0.800378 247.969C-0.764252 248.017 -0.655875 248.137 -0.463203 248.318L-0.643844 248.426C-0.884684 248.294 -1.05326 248.149 -1.13755 248.005C-1.23389 247.849 -1.25797 247.68 -1.2098 247.488C-1.16163 247.308 -1.0653 247.163 -0.896716 247.067C-0.692002 246.947 -0.439113 246.935 -0.138063 247.055C0.162987 247.175 0.451985 247.38 0.71691 247.692L1.18655 247.416L1.62006 247.548L1.63212 247.56Z" fill="#FF9243"/>
<path d="M4.66671 246.19L3.72744 246.587L4.20913 247.717C4.31751 247.957 4.29341 248.21 4.16095 248.474L5.53374 249.003L5.42537 249.268L3.4866 248.378C3.42639 248.354 3.37823 248.294 3.3421 248.222C3.31802 248.15 3.30598 248.09 3.3421 248.017C3.36619 247.945 3.4023 247.909 3.46251 247.873C3.55885 247.837 3.6552 247.813 3.73949 247.825C3.73949 247.717 3.73948 247.621 3.69131 247.549L3.3421 246.731L2.70388 247.007L2.29443 246.815L4.24525 245.985L4.66671 246.178V246.19Z" fill="#FF9243"/>
<path d="M6.05141 245.757L5.34091 245.997L6.31633 248.907L5.84669 248.775L4.96761 246.118L4.49797 246.274L4.10059 246.045L5.66605 245.528L6.06344 245.757H6.05141Z" fill="#FF9243"/>
<path d="M9.00162 245.095L8.26706 245.252L8.91732 248.246L8.47177 248.137L8.24297 247.067L7.17123 247.296L7.23144 247.56C7.23144 247.56 7.23145 247.644 7.21941 247.68C7.19532 247.717 7.17123 247.741 7.1351 247.753C7.01468 247.777 6.85814 247.729 6.66546 247.596C6.48483 247.464 6.37645 247.332 6.34032 247.188C6.31624 247.103 6.35238 247.043 6.44872 247.019L6.6775 246.971L6.3885 245.636L5.85865 245.757L5.48535 245.492L8.61627 244.807L8.98957 245.071L9.00162 245.095ZM8.15868 246.67L7.86967 245.336L6.79793 245.564L7.08694 246.899L8.15868 246.67Z" fill="#FF9243"/>
<path d="M19.3213 224.618L17.8401 224.473L17.238 230.522L16.4673 230.041L16.8165 226.542L15.0704 226.373C15.6485 226.974 15.9134 227.492 15.8652 227.948C15.8291 228.285 15.6846 228.562 15.4197 228.766C15.1547 228.983 14.8657 229.067 14.5286 229.031C14.083 228.983 13.6254 228.682 13.1678 228.093C12.7102 227.516 12.3128 226.77 11.9877 225.856L12.4212 225.628C12.65 226.289 12.9511 226.854 13.3123 227.311C13.6736 227.768 14.0469 228.021 14.4202 228.057C14.5888 228.069 14.7333 228.021 14.8657 227.9C14.9982 227.78 15.0704 227.624 15.0945 227.443C15.1186 227.143 14.9982 226.83 14.7092 226.506C14.4202 226.181 14.0228 225.904 13.505 225.652L13.6013 225.387L16.9008 225.712L17.0333 224.365L11.9877 223.872L11.4458 223.139L18.7794 223.86L19.3213 224.594V224.618Z" fill="#FF9243"/>
<path d="M25.1135 226.049L23.6685 225.7L22.2475 231.604L21.5732 230.955L22.0067 229.187C21.7418 229.319 21.4768 229.404 21.1999 229.452C20.9229 229.5 20.6941 229.5 20.5014 229.452C19.9836 229.331 19.5501 228.995 19.2009 228.454C18.8517 227.912 18.6951 227.287 18.7433 226.602C19.1648 226.698 19.5742 226.722 19.9716 226.65C20.369 226.578 20.5978 226.421 20.658 226.157C20.7302 225.832 20.658 225.423 20.4051 224.918L19.0082 224.582L18.5747 223.788L24.7041 225.255L25.1376 226.049H25.1135ZM22.2596 228.069L22.8737 225.508L20.8988 225.039C21.236 225.58 21.3323 226.121 21.2119 226.638C21.1397 226.963 20.9109 227.203 20.5496 227.359C20.1763 227.516 19.7789 227.54 19.3574 227.444C19.2972 227.696 19.3574 227.937 19.5381 228.165C19.7187 228.393 19.9595 228.55 20.2606 228.622C21.0674 228.814 21.7418 228.622 22.2716 228.069H22.2596Z" fill="#FF9243"/>
<path d="M33.7837 229.981L32.4471 229.331L29.7858 234.79L29.2319 234.069L30.147 232.181L26.6789 232.975L26.3418 232.289L30.2915 231.436L28.979 230.125L26.4742 230.63L26.1611 229.884L28.4491 229.343C28.1721 229.055 27.9795 228.73 27.8831 228.393C27.7868 228.045 27.8109 227.732 27.9433 227.456C28.0638 227.203 28.2805 227.047 28.5816 226.975C28.8826 226.902 29.1837 226.938 29.4847 227.083C29.8821 227.275 30.1591 227.612 30.3156 228.081C30.4722 228.55 30.4361 228.995 30.2313 229.404C30.1109 229.656 29.7858 229.848 29.268 229.993L30.5806 231.303L31.7004 228.995L31.1586 228.73L31.0261 227.912L33.5188 229.127L33.7717 230.005L33.7837 229.981ZM28.7863 229.283C29.3523 229.139 29.7135 228.935 29.834 228.67C29.9062 228.514 29.9182 228.357 29.8701 228.201C29.8219 228.045 29.7135 227.924 29.557 227.852C29.3523 227.756 29.1476 227.744 28.9308 227.816C28.7261 227.888 28.5695 228.033 28.4732 228.225C28.425 228.321 28.425 228.478 28.4732 228.67C28.5214 228.862 28.6297 229.067 28.7742 229.283H28.7863Z" fill="#FF9243"/>
<path d="M36.2045 231.7L34.9521 230.895L31.6767 236.017L31.207 235.236L34.2657 230.45L33.4348 229.921L33.2903 229.019L34.7474 229.945C34.9521 229.428 35.0484 228.947 35.0364 228.478C35.0123 228.009 34.8558 227.684 34.5547 227.492C34.35 227.359 34.1332 227.323 33.8924 227.372C33.6516 227.42 33.4709 227.552 33.3385 227.756C33.2662 227.865 33.1578 228.165 33.0013 228.658L32.6641 228.442C32.6882 227.889 32.7966 227.48 32.9772 227.203C33.1699 226.903 33.4589 226.698 33.8201 226.614C34.1814 226.53 34.5306 226.59 34.8437 226.794C35.2411 227.047 35.4699 227.492 35.5301 228.129C35.5903 228.766 35.4699 229.452 35.1568 230.197L36.072 230.774L36.2165 231.676L36.2045 231.7Z" fill="#FF9243"/>
<path d="M41.2862 235.873L39.7569 234.55L38.1673 236.39C37.8301 236.787 37.3605 236.979 36.7704 236.967L37.0233 239.865L36.4453 239.901L36.3369 235.692C36.3369 235.56 36.3851 235.428 36.5055 235.296C36.6018 235.187 36.7223 235.115 36.8547 235.091C36.9872 235.067 37.1076 235.103 37.216 235.187C37.3725 235.32 37.4809 235.476 37.5411 235.644C37.7338 235.56 37.8903 235.452 37.9987 235.32L39.1548 233.997L38.1071 233.095L38.083 232.193L41.2621 234.935V235.849L41.2862 235.873Z" fill="#FF9243"/>
<path d="M43.2612 237.941L42.2135 236.882L37.8784 241.151L37.6978 240.189L41.6475 236.293L40.9611 235.608L41.0093 234.706L43.3093 237.027L43.2612 237.929V237.941Z" fill="#FF9243"/>
<path d="M47.0421 242.606L46.1148 241.452L41.3582 245.251L41.1655 244.362L42.8514 243.015L41.5027 241.331L41.0812 241.668C41.009 241.716 40.9368 241.752 40.8404 241.752C40.7441 241.752 40.6839 241.728 40.6477 241.668C40.4912 241.464 40.443 241.151 40.5153 240.706C40.5875 240.261 40.7321 239.961 40.9608 239.78C41.1054 239.672 41.2257 239.684 41.3462 239.828L41.6472 240.201L43.7546 238.518L43.0923 237.688L43.2368 236.786L47.1986 241.74L47.0541 242.642L47.0421 242.606ZM43.4896 242.498L45.597 240.814L44.2483 239.131L42.1409 240.814L43.4896 242.498Z" fill="#FF9243"/>
<path d="M51.6059 251.3L50.9556 249.965L45.4885 252.635V251.733L48.6556 250.194L47.8849 248.618C47.6802 249.424 47.3671 249.917 46.9697 250.122C46.6687 250.266 46.3556 250.29 46.0305 250.17C45.7053 250.049 45.4765 249.857 45.332 249.556C45.1393 249.16 45.1634 248.606 45.4163 247.909C45.6692 247.212 46.0907 246.49 46.7048 245.733L47.1263 245.973C46.6807 246.526 46.3556 247.067 46.1509 247.62C45.9462 248.174 45.9341 248.618 46.1027 248.955C46.175 249.099 46.2954 249.208 46.476 249.256C46.6446 249.304 46.8132 249.292 46.9818 249.208C47.2588 249.075 47.4514 248.799 47.5718 248.39C47.6923 247.981 47.7284 247.488 47.6682 246.911L47.9451 246.851L49.4022 249.821L50.6185 249.232L48.3907 244.686L48.7279 243.845L51.9672 250.458L51.63 251.3H51.6059Z" fill="#FF9243"/>
<path d="M53.2918 257.071L52.8583 255.653L47.042 257.444L47.2587 256.53L49.0048 255.989C48.764 255.833 48.5473 255.641 48.3666 255.436C48.186 255.22 48.0656 255.027 48.0174 254.835C47.8608 254.318 47.9211 253.777 48.2221 253.2C48.5232 252.622 48.9687 252.178 49.5829 251.853C49.7153 252.262 49.908 252.622 50.1609 252.935C50.4258 253.236 50.6787 253.356 50.9436 253.272C51.2567 253.176 51.5698 252.887 51.8829 252.418L51.4614 251.047L51.931 250.266L53.7976 256.278L53.3279 257.059L53.2918 257.071ZM50.0886 255.665L52.6054 254.883L52.0033 252.947C51.7022 253.512 51.2928 253.873 50.775 254.029C50.4619 254.125 50.1368 254.065 49.8116 253.825C49.4865 253.584 49.2577 253.26 49.1373 252.839C48.8965 252.911 48.7158 253.091 48.5954 253.356C48.487 253.632 48.475 253.909 48.5713 254.21C48.8122 255.003 49.3179 255.484 50.0766 255.653L50.0886 255.665Z" fill="#FF9243"/>
<path d="M54.3278 266.547L54.2074 265.068L48.1382 265.561L48.4754 264.719L50.5586 264.551L48.1021 261.977L48.5235 261.328L51.2811 264.286L51.7387 262.482L50.0288 260.595L50.5225 259.945L52.1602 261.641C52.2686 261.256 52.4492 260.931 52.6901 260.667C52.9429 260.402 53.2199 260.27 53.533 260.234C53.81 260.21 54.0508 260.318 54.2796 260.535C54.4964 260.763 54.6168 261.028 54.6529 261.364C54.689 261.809 54.5445 262.218 54.2194 262.579C53.8942 262.951 53.4969 263.144 53.0393 263.192C52.7623 263.216 52.4251 263.036 52.0398 262.663L51.5822 264.467L54.1471 264.262L54.099 263.661L54.7372 263.132L54.966 265.885L54.3398 266.547H54.3278ZM52.389 261.893C52.7984 262.314 53.1597 262.507 53.4607 262.482C53.6293 262.47 53.7738 262.398 53.8822 262.266C53.9906 262.146 54.0387 261.989 54.0267 261.821C54.0026 261.593 53.9183 261.412 53.7377 261.268C53.5691 261.124 53.3644 261.064 53.1477 261.088C53.0393 261.088 52.9068 261.172 52.7744 261.328C52.6419 261.484 52.5094 261.665 52.4011 261.905L52.389 261.893Z" fill="#FF9243"/>
<path d="M54.0868 269.469L54.135 267.978L48.0537 267.786L48.4872 266.992L54.159 267.173L54.1951 266.187L54.8936 265.598L54.8454 267.329C55.3994 267.245 55.8569 267.077 56.2543 266.824C56.6397 266.571 56.8444 266.259 56.8564 265.91C56.8564 265.67 56.7842 265.453 56.6276 265.285C56.459 265.104 56.2543 265.02 56.0135 265.008C55.881 265.008 55.5679 265.056 55.0622 265.177V264.768C55.5559 264.515 55.9653 264.395 56.3025 264.407C56.6638 264.407 56.9769 264.563 57.2418 264.828C57.5067 265.092 57.6271 265.417 57.6151 265.79C57.603 266.259 57.3381 266.692 56.8203 267.064C56.3025 267.437 55.6402 267.69 54.8454 267.798L54.8093 268.88L54.1108 269.469H54.0868Z" fill="#FF9243"/>
<path d="M53.1114 275.938L53.4606 273.954L51.0642 273.533C50.5464 273.437 50.149 273.148 49.8479 272.631L47.4877 274.339L47.1626 273.87L50.715 271.609C50.8233 271.537 50.9679 271.513 51.1364 271.549C51.281 271.573 51.4014 271.645 51.4857 271.753C51.57 271.862 51.6061 271.982 51.582 272.114C51.5459 272.319 51.4736 272.487 51.3532 272.619C51.5338 272.74 51.7024 272.824 51.859 272.848L53.593 273.148L53.8339 271.79L54.6046 271.309L53.882 275.445L53.1114 275.926V275.938Z" fill="#FF9243"/>
<path d="M52.3287 278.728L52.702 277.285L46.8135 275.758L47.536 275.108L52.9067 276.503L53.1476 275.565L53.9544 275.144L53.1355 278.307L52.3287 278.728Z" fill="#FF9243"/>
<path d="M50.2573 284.356L50.7872 282.961L45.0913 280.82L45.7536 280.207L47.7767 280.965L48.5353 278.944L48.0296 278.752C47.9453 278.716 47.8851 278.668 47.8369 278.596C47.7887 278.524 47.7767 278.452 47.8008 278.391C47.8851 278.151 48.15 277.946 48.5594 277.79C48.9688 277.622 49.3181 277.598 49.583 277.694C49.7516 277.754 49.7997 277.874 49.7395 278.043L49.5709 278.488L52.0998 279.438L52.4731 278.439L53.316 278.103L51.0882 284.031L50.2453 284.368L50.2573 284.356ZM48.5353 281.253L51.0641 282.203L51.8228 280.183L49.294 279.233L48.5353 281.253Z" fill="#FF9243"/>
<path d="M0.27125 225.652L-1.13766 226.121L0.789048 231.881L-0.150228 231.628L-1.90835 226.373L-2.83559 226.686L-3.63037 226.241L-0.523528 225.207L0.27125 225.652Z" fill="#FF9243"/>
<path d="M6.12354 224.329L4.66645 224.653L5.96699 230.593L5.08793 230.377L4.61829 228.273L2.51094 228.742L2.63135 229.271C2.65543 229.355 2.63135 229.439 2.59522 229.523C2.5591 229.607 2.4989 229.655 2.43869 229.668C2.18581 229.728 1.88475 229.619 1.51145 229.367C1.15019 229.114 0.933432 228.838 0.873222 228.561C0.837096 228.381 0.897304 228.273 1.07793 228.237L1.53554 228.14L0.957507 225.507L-0.0901432 225.735L-0.824707 225.206L5.37692 223.848L6.11149 224.377L6.12354 224.329ZM4.46174 227.455L3.88373 224.822L1.77637 225.291L2.35439 227.924L4.47377 227.455H4.46174Z" fill="#FF9243"/>
<path d="M26.583 183.843L23.6568 183.554L22.4767 195.519L20.9594 194.569L21.6458 187.655L18.1897 187.318C19.3217 188.508 19.8515 189.543 19.7672 190.42C19.707 191.082 19.406 191.623 18.8882 192.044C18.3704 192.464 17.7803 192.645 17.13 192.573C16.251 192.489 15.3478 191.875 14.4326 190.721C13.5174 189.579 12.7347 188.1 12.0965 186.308L12.9515 185.851C13.4091 187.162 13.9991 188.28 14.7096 189.194C15.4201 190.108 16.1546 190.601 16.9133 190.673C17.2384 190.709 17.5395 190.601 17.7924 190.36C18.0573 190.12 18.2018 189.819 18.2379 189.458C18.2981 188.869 18.0452 188.256 17.4793 187.607C16.9133 186.969 16.1185 186.404 15.0949 185.923L15.2756 185.406L21.8024 186.043L22.0673 183.386L12.0844 182.4L11.0127 180.957L25.5233 182.388L26.5951 183.831L26.583 183.843Z" fill="#FF9243"/>
<path d="M38.119 186.704L35.265 186.019L32.4352 197.707L31.0985 196.42L31.9414 192.909C31.4236 193.173 30.8938 193.342 30.3519 193.438C29.81 193.522 29.3524 193.522 28.9671 193.438C27.9315 193.185 27.0765 192.524 26.3901 191.454C25.7037 190.384 25.4026 189.157 25.4749 187.798C26.3058 188.003 27.1126 188.039 27.8953 187.907C28.6781 187.774 29.1356 187.45 29.2561 186.933C29.4126 186.295 29.244 185.478 28.7503 184.48L25.9927 183.818L25.1377 182.243L37.252 185.165L38.107 186.74L38.119 186.704ZM32.4713 190.708L33.6996 185.646L29.798 184.708C30.4603 185.778 30.6529 186.837 30.4121 187.883C30.2556 188.52 29.822 189.001 29.0875 189.314C28.3529 189.626 27.5702 189.674 26.7273 189.47C26.6068 189.963 26.7272 190.444 27.0765 190.913C27.4257 191.382 27.8953 191.682 28.4974 191.827C30.099 192.211 31.4236 191.851 32.4833 190.72L32.4713 190.708Z" fill="#FF9243"/>
<path d="M55.3151 194.521L52.6658 193.234L47.3794 204.032L46.2835 202.613L48.1019 198.898L41.2379 200.449L40.5636 199.078L48.3909 197.395L45.7898 194.785L40.8285 195.783L40.2144 194.292L44.7542 193.234C44.2003 192.657 43.827 192.032 43.6343 191.346C43.4416 190.661 43.4898 190.048 43.7547 189.483C43.9956 188.989 44.417 188.677 45.0191 188.533C45.6212 188.388 46.2113 188.46 46.8013 188.737C47.5961 189.122 48.138 189.783 48.4391 190.697C48.7401 191.623 48.6799 192.489 48.2825 193.318C48.0417 193.811 47.4035 194.196 46.3799 194.473L48.981 197.082L51.2087 192.525L50.125 191.996L49.8721 190.384L54.7973 192.789L55.291 194.521H55.3151ZM45.4406 193.126C46.5726 192.849 47.271 192.441 47.5239 191.911C47.6684 191.611 47.6925 191.298 47.5841 190.986C47.4757 190.673 47.271 190.444 46.9699 190.3C46.5605 190.096 46.1511 190.072 45.7296 190.228C45.3082 190.372 45.0071 190.649 44.8144 191.034C44.7181 191.238 44.7181 191.527 44.8385 191.911C44.9469 192.296 45.1516 192.693 45.4406 193.126Z" fill="#FF9243"/>
<path d="M60.0838 197.947L57.6031 196.36L51.1125 206.485L50.1973 204.946L56.2544 195.494L54.6046 194.436L54.3157 192.669L57.1937 194.508C57.6151 193.498 57.7958 192.524 57.7597 191.611C57.7235 190.697 57.4105 190.047 56.8084 189.663C56.411 189.398 55.9654 189.326 55.5078 189.422C55.0382 189.518 54.6769 189.771 54.412 190.192C54.2795 190.396 54.0507 190.997 53.7376 191.983L53.0633 191.55C53.1235 190.468 53.3282 189.651 53.6894 189.097C54.0748 188.496 54.6408 188.099 55.3633 187.943C56.0858 187.775 56.7602 187.895 57.3864 188.292C58.1811 188.797 58.6267 189.675 58.7471 190.937C58.8675 192.2 58.6146 193.559 57.9885 195.026L59.7948 196.18L60.0838 197.947Z" fill="#FF9243"/>
<path d="M70.151 206.22L67.1405 203.611L63.9855 207.243C63.3112 208.024 62.3839 208.409 61.2279 208.385L61.7337 214.121L60.6017 214.205L60.397 205.884C60.397 205.619 60.4933 205.355 60.7221 205.102C60.9148 204.886 61.1556 204.754 61.4206 204.717C61.6975 204.681 61.9263 204.741 62.131 204.91C62.4441 205.174 62.6488 205.475 62.7693 205.812C63.1546 205.643 63.4556 205.427 63.6724 205.174L65.9484 202.553L63.8892 200.761L63.853 198.97L70.139 204.417L70.1751 206.208L70.151 206.22Z" fill="#FF9243"/>
<path d="M74.1007 210.381L72.0415 208.289L63.4555 216.718L63.0942 214.83L70.9216 207.159L69.5728 205.788L69.6812 203.996L74.2211 208.601L74.1127 210.393L74.1007 210.381Z" fill="#FF9243"/>
<path d="M81.5305 219.592L79.7 217.295L70.2832 224.775L69.9099 223.019L73.2576 220.362L70.5963 217.019L69.7534 217.68C69.6209 217.788 69.4643 217.836 69.2837 217.836C69.1031 217.836 68.9706 217.788 68.8863 217.68C68.5732 217.283 68.4889 216.646 68.6214 215.78C68.7659 214.914 69.0549 214.301 69.5005 213.952C69.7774 213.736 70.0303 213.76 70.2471 214.037L70.8251 214.77L75.0157 211.439L73.7031 209.792L74.0042 208.024L81.8195 217.824L81.5184 219.592H81.5305ZM74.522 219.364L78.7126 216.033L76.0513 212.69L71.8607 216.021L74.522 219.364Z" fill="#FF9243"/>
<path d="M90.5502 236.871L89.2617 234.226L78.436 239.469L78.46 237.677L84.7219 234.647L83.2046 231.52C82.7831 233.108 82.181 234.094 81.3742 234.49C80.7721 234.779 80.158 234.815 79.5197 234.587C78.8935 234.358 78.4359 233.961 78.1469 233.372C77.7616 232.579 77.8218 231.496 78.3155 230.113C78.8093 228.731 79.6642 227.3 80.8684 225.821L81.6993 226.314C80.8203 227.396 80.17 228.478 79.7726 229.56C79.3632 230.643 79.3271 231.52 79.6642 232.206C79.8087 232.506 80.0496 232.699 80.3868 232.795C80.7239 232.891 81.0611 232.867 81.3862 232.699C81.9281 232.434 82.3135 231.905 82.5664 231.087C82.8192 230.27 82.8795 229.308 82.759 228.178L83.3009 228.069L86.1669 233.961L88.5753 232.795L84.192 223.777L84.8664 222.117L91.2366 235.212L90.5623 236.871H90.5502Z" fill="#FF9243"/>
<path d="M93.8496 248.306L92.9946 245.492L81.4824 249.003L81.9039 247.2L85.36 246.142C84.8662 245.829 84.4568 245.456 84.0955 245.035C83.7463 244.614 83.5055 244.218 83.3971 243.845C83.084 242.835 83.2165 241.753 83.7945 240.61C84.3725 239.468 85.2757 238.59 86.4919 237.965C86.7448 238.783 87.1181 239.492 87.6359 240.105C88.1416 240.707 88.6594 240.935 89.1773 240.779C89.8034 240.586 90.4176 240.021 91.0438 239.095L90.2129 236.39L91.1401 234.851L94.7888 246.755L93.8616 248.294L93.8496 248.306ZM87.5275 245.492L92.5129 243.965L91.3448 240.129C90.7548 241.236 89.948 241.957 88.9244 242.27C88.2982 242.462 87.66 242.33 87.0218 241.861C86.3835 241.392 85.938 240.743 85.6851 239.913C85.2034 240.057 84.8421 240.406 84.6254 240.947C84.3966 241.488 84.3845 242.053 84.5652 242.63C85.0469 244.206 86.0343 245.156 87.5396 245.492H87.5275Z" fill="#FF9243"/>
<path d="M95.8486 267.089L95.6198 264.155L83.6139 265.093L84.2883 263.433L88.4187 263.109L83.5898 257.998L84.4328 256.724L89.8637 262.592L90.7909 259.032L87.4071 255.281L88.3825 253.994L91.5978 257.361C91.8145 256.591 92.1638 255.954 92.6575 255.437C93.1512 254.92 93.7051 254.643 94.3313 254.595C94.8732 254.547 95.3669 254.752 95.8004 255.197C96.2339 255.641 96.4748 256.183 96.523 256.832C96.5952 257.71 96.3062 258.515 95.6559 259.237C95.0057 259.958 94.235 260.355 93.3198 260.427C92.7658 260.475 92.1156 260.115 91.3569 259.381L90.4297 262.94L95.4994 262.544L95.4031 261.341L96.6675 260.307L97.101 265.766L95.8607 267.065L95.8486 267.089ZM92.0313 257.878C92.8502 258.708 93.5486 259.105 94.1387 259.056C94.4758 259.032 94.7528 258.888 94.9575 258.648C95.1743 258.395 95.2706 258.107 95.2345 257.77C95.1983 257.313 95.0057 256.952 94.6685 256.664C94.3313 256.387 93.946 256.255 93.5004 256.291C93.2836 256.303 93.0308 256.459 92.7538 256.748C92.4889 257.036 92.236 257.409 92.0072 257.878H92.0313Z" fill="#FF9243"/>
<path d="M95.3308 272.933L95.4391 269.999L83.4092 269.566L84.2642 267.991L95.4873 268.388L95.5596 266.44L96.9444 265.285L96.824 268.7C97.9078 268.544 98.835 268.207 99.6057 267.714C100.376 267.209 100.774 266.608 100.798 265.911C100.81 265.43 100.665 265.021 100.34 264.66C100.015 264.311 99.6177 264.131 99.124 264.107C98.8711 264.107 98.2449 264.203 97.2334 264.444L97.2695 263.638C98.2329 263.133 99.0397 262.904 99.702 262.928C100.425 262.953 101.039 263.241 101.556 263.782C102.074 264.323 102.315 264.961 102.291 265.694C102.255 266.632 101.725 267.462 100.702 268.207C99.6779 268.953 98.3774 269.422 96.7999 269.638L96.7277 271.779L95.3428 272.933H95.3308Z" fill="#FF9243"/>
<path d="M93.356 285.763L94.0665 281.843L89.334 280.989C88.3104 280.809 87.5156 280.207 86.9376 279.197L82.2533 282.564L81.603 281.638L88.6596 277.213C88.8884 277.069 89.1654 277.033 89.5026 277.093C89.7916 277.141 90.0204 277.285 90.201 277.502C90.3696 277.718 90.4419 277.959 90.3937 278.211C90.3214 278.62 90.1649 278.945 89.9361 279.221C90.2853 279.462 90.6225 279.618 90.9356 279.678L94.3555 280.292L94.8372 277.61L96.3665 276.66L94.8854 284.837L93.356 285.787V285.763Z" fill="#FF9243"/>
<path d="M1.7764 183.122L-1.10165 183.711L1.2947 195.495L-0.43933 195.026L-1.29432 190.841L-5.48494 191.695L-5.26819 192.741C-5.23207 192.91 -5.26819 193.066 -5.34044 193.222C-5.42473 193.379 -5.53312 193.475 -5.66558 193.499C-6.1593 193.595 -6.77344 193.391 -7.48392 192.861C-8.1944 192.332 -8.60382 191.803 -8.72424 191.25C-8.7965 190.901 -8.65199 190.697 -8.30277 190.625L-7.38758 190.445L-8.45932 185.214L-10.5305 185.635L-11.9756 184.565L0.319304 182.063L1.76434 183.134L1.7764 183.122ZM-1.61946 189.254L-2.6912 184.023L-6.88182 184.877L-5.81008 190.108L-1.61946 189.254Z" fill="#FF9243"/>
<path d="M34.6273 139.111L30.1116 138.667L28.2932 157.124L25.9571 155.645L27.0047 144.979L21.6701 144.45C23.4283 146.278 24.2351 147.877 24.1026 149.248C24.0063 150.27 23.5487 151.112 22.7419 151.749C21.9351 152.399 21.0319 152.663 20.0324 152.567C18.6837 152.435 17.2868 151.485 15.8779 149.717C14.4569 147.949 13.2648 145.677 12.2774 142.899L13.5899 142.202C14.3004 144.234 15.2036 145.953 16.2994 147.36C17.3952 148.767 18.5272 149.525 19.6952 149.645C20.201 149.693 20.6586 149.537 21.056 149.164C21.4534 148.791 21.6822 148.334 21.7424 147.769C21.8267 146.855 21.4413 145.905 20.5743 144.919C19.7073 143.933 18.479 143.068 16.8895 142.322L17.1784 141.516L27.2456 142.502L27.655 138.402L12.2533 136.887L10.6035 134.65L32.9896 136.851L34.6394 139.087L34.6273 139.111Z" fill="#FF9243"/>
<path d="M52.2808 143.501L47.8613 142.442L43.5142 160.467L41.4429 158.483L42.7435 153.072C41.9367 153.469 41.1178 153.746 40.2869 153.878C39.456 154.022 38.7455 154.01 38.1555 153.878C36.5659 153.493 35.2413 152.471 34.1696 150.812C33.1099 149.152 32.6402 147.264 32.7606 145.16C34.0491 145.473 35.2895 145.521 36.5057 145.316C37.7099 145.112 38.4204 144.607 38.6131 143.813C38.8539 142.839 38.589 141.577 37.8303 140.026L33.5795 139.003L32.2549 136.562L50.9561 141.06L52.2808 143.501ZM43.5744 149.669L45.4529 141.853L39.4319 140.41C40.4434 142.07 40.7565 143.693 40.3712 145.304C40.1304 146.29 39.456 147.024 38.3361 147.505C37.2162 147.986 36 148.07 34.6874 147.757C34.5067 148.515 34.6874 149.26 35.2293 149.97C35.7712 150.691 36.5057 151.16 37.433 151.377C39.9016 151.978 41.9487 151.401 43.5744 149.669Z" fill="#FF9243"/>
<path d="M78.7971 155.537L74.7149 153.552L66.5744 170.218L64.8886 168.018L67.6943 162.282L57.1094 164.687L56.0738 162.583L68.1399 159.974L64.1299 155.957L56.4832 157.509L55.5439 155.212L62.5404 153.577C61.6854 152.687 61.1194 151.713 60.8184 150.667C60.5173 149.608 60.5896 148.658 61.011 147.793C61.3723 147.035 62.0226 146.554 62.9618 146.326C63.8891 146.097 64.8043 146.205 65.7074 146.638C66.9357 147.24 67.7786 148.25 68.2362 149.669C68.6938 151.087 68.6216 152.446 67.9954 153.709C67.6221 154.478 66.6467 155.068 65.0571 155.488L69.0671 159.505L72.4991 152.47L70.8253 151.653L70.4279 149.164L78.0264 152.867L78.7971 155.537ZM63.5519 153.372C65.298 152.939 66.3697 152.314 66.7671 151.496C66.9959 151.027 67.032 150.558 66.8634 150.077C66.6948 149.596 66.3818 149.248 65.9121 149.019C65.286 148.707 64.6477 148.671 64.0095 148.899C63.3713 149.127 62.9016 149.548 62.6006 150.15C62.4561 150.462 62.4561 150.907 62.6367 151.496C62.8053 152.085 63.1184 152.711 63.5639 153.372H63.5519Z" fill="#FF9243"/>
<path d="M86.143 160.779L82.3136 158.338L72.3067 173.958L70.8857 171.589L80.2183 157.004L77.6775 155.38L77.2199 152.651L81.6754 155.489C82.3136 153.925 82.6027 152.434 82.5424 151.016C82.4822 149.597 81.9885 148.599 81.0733 148.009C80.4471 147.613 79.7728 147.48 79.0623 147.637C78.3398 147.793 77.7858 148.19 77.3764 148.815C77.1717 149.14 76.8225 150.066 76.3408 151.581L75.2931 150.919C75.3895 149.248 75.7026 147.985 76.2445 147.132C76.8466 146.194 77.7016 145.592 78.8215 145.34C79.9414 145.087 80.977 145.268 81.9403 145.881C83.1566 146.663 83.855 148.021 84.0477 149.957C84.2404 151.893 83.843 153.998 82.8916 156.258L85.6733 158.038L86.1309 160.767L86.143 160.779Z" fill="#FF9243"/>
<path d="M101.629 173.49L96.9806 169.474L92.1157 175.077C91.068 176.279 89.6471 176.869 87.8528 176.845L88.6355 185.695L86.8894 185.815L86.5522 172.985C86.5522 172.576 86.7088 172.179 87.046 171.782C87.347 171.434 87.7083 171.241 88.1297 171.181C88.5512 171.121 88.9125 171.217 89.2135 171.482C89.6952 171.891 90.0203 172.359 90.1889 172.877C90.779 172.612 91.2486 172.287 91.5858 171.903L95.1021 167.85L91.923 165.097L91.8748 162.331L101.581 170.712L101.641 173.478L101.629 173.49Z" fill="#FF9243"/>
<path d="M107.722 179.886L104.531 176.664L91.3091 189.686L90.7432 186.764L102.797 174.908L100.714 172.792L100.883 170.026L107.891 177.133L107.722 179.898V179.886Z" fill="#FF9243"/>
<path d="M119.198 194.063L116.368 190.516L101.858 202.083L101.28 199.378L106.446 195.266L102.327 190.119L101.039 191.141C100.834 191.31 100.593 191.382 100.316 191.382C100.039 191.382 99.8465 191.297 99.7141 191.141C99.2204 190.528 99.0879 189.554 99.3046 188.207C99.5214 186.86 99.967 185.923 100.653 185.381C101.087 185.033 101.472 185.081 101.809 185.514L102.713 186.644L109.167 181.498L107.132 178.948L107.59 176.219L119.668 191.322L119.21 194.051L119.198 194.063ZM108.372 193.738L114.827 188.592L110.708 183.433L104.254 188.58L108.372 193.738Z" fill="#FF9243"/>
<path d="M133.119 220.602L131.132 216.526L114.442 224.666L114.466 221.901L124.111 217.199L121.763 212.389C121.125 214.842 120.186 216.369 118.957 216.971C118.03 217.427 117.079 217.476 116.103 217.139C115.128 216.802 114.43 216.177 113.984 215.275C113.382 214.049 113.466 212.377 114.237 210.249C114.996 208.121 116.308 205.908 118.151 203.611L119.439 204.357C118.078 206.028 117.091 207.7 116.477 209.371C115.851 211.042 115.802 212.401 116.308 213.447C116.537 213.904 116.91 214.205 117.428 214.361C117.958 214.506 118.464 214.457 118.969 214.217C119.8 213.808 120.402 212.978 120.788 211.728C121.173 210.477 121.257 208.974 121.077 207.231L121.908 207.05L126.339 216.117L130.048 214.313L123.256 200.425L124.292 197.852L134.166 218.029L133.131 220.602H133.119Z" fill="#FF9243"/>
<path d="M138.237 238.206L136.9 233.877L119.15 239.348L119.8 236.558L125.123 234.923C124.364 234.43 123.714 233.865 123.172 233.227C122.63 232.59 122.269 231.977 122.088 231.4C121.606 229.836 121.811 228.177 122.702 226.409C123.593 224.654 124.966 223.283 126.845 222.321C127.23 223.584 127.82 224.678 128.615 225.616C129.41 226.554 130.204 226.903 130.987 226.65C131.951 226.349 132.902 225.484 133.853 224.041L132.565 219.868L133.986 217.487L139.657 235.837L138.237 238.218V238.206ZM128.482 233.889L136.177 231.52L134.359 225.616C133.444 227.335 132.203 228.43 130.626 228.923C129.651 229.223 128.675 229.019 127.688 228.297C126.7 227.576 126.014 226.578 125.616 225.291C124.87 225.52 124.316 226.049 123.979 226.878C123.642 227.708 123.605 228.574 123.882 229.488C124.629 231.917 126.17 233.384 128.482 233.889Z" fill="#FF9243"/>
<path d="M141.404 267.137L141.031 262.616L122.522 264.131L123.558 261.569L129.928 261.052L122.45 253.188L123.738 251.228L132.132 260.259L133.54 254.764L128.302 248.992L129.795 247.008L134.769 252.178C135.094 250.988 135.648 250.002 136.394 249.208C137.153 248.415 138.008 247.982 138.971 247.898C139.802 247.825 140.561 248.138 141.235 248.824C141.91 249.509 142.283 250.351 142.367 251.349C142.476 252.707 142.03 253.946 141.043 255.064C140.055 256.183 138.851 256.808 137.442 256.916C136.587 256.988 135.588 256.447 134.407 255.305L132.999 260.8L140.814 260.163L140.669 258.311L142.608 256.712L143.294 265.129L141.392 267.149L141.404 267.137ZM135.479 252.948C136.744 254.223 137.827 254.824 138.731 254.752C139.248 254.703 139.682 254.499 140.007 254.114C140.332 253.73 140.477 253.273 140.428 252.756C140.368 252.058 140.079 251.493 139.549 251.06C139.02 250.627 138.429 250.435 137.755 250.495C137.406 250.519 137.033 250.759 136.611 251.204C136.19 251.649 135.816 252.238 135.467 252.948H135.479Z" fill="#FF9243"/>
<path d="M140.633 276.119L140.777 271.586L122.221 270.984L123.533 268.556L140.862 269.121L140.958 266.115L143.077 264.323L142.909 269.59C144.583 269.337 146.016 268.832 147.208 268.05C148.4 267.269 149.002 266.343 149.038 265.249C149.062 264.503 148.822 263.866 148.328 263.325C147.822 262.784 147.196 262.507 146.449 262.483C146.064 262.471 145.101 262.639 143.547 263.012L143.583 261.774C145.064 260.992 146.317 260.631 147.34 260.655C148.448 260.691 149.4 261.124 150.194 261.954C150.989 262.784 151.362 263.77 151.326 264.912C151.278 266.355 150.471 267.654 148.882 268.796C147.292 269.938 145.293 270.684 142.861 271.021L142.752 274.315L140.633 276.107V276.119Z" fill="#FF9243"/>
<path d="M137.647 295.935L138.718 289.887L131.409 288.589C129.843 288.312 128.603 287.398 127.7 285.835L120.487 291.042L119.487 289.611L130.349 282.745C130.698 282.528 131.12 282.468 131.638 282.552C132.083 282.636 132.445 282.841 132.709 283.165C132.974 283.49 133.083 283.863 133.011 284.26C132.902 284.885 132.673 285.402 132.312 285.811C132.842 286.184 133.36 286.412 133.865 286.508L139.152 287.446L139.886 283.31L142.247 281.843L140.007 294.456L137.647 295.923V295.935Z" fill="#FF9243"/>
<path d="M45.4886 78.3278L38.8174 77.6664L36.12 104.938L32.6518 102.762L34.2053 87.0095L26.3178 86.2279C28.9068 88.9334 30.111 91.2902 29.9063 93.3103C29.7618 94.8254 29.0874 96.0639 27.8953 97.0138C26.7031 97.9638 25.3785 98.3726 23.8973 98.2283C21.8983 98.0359 19.8512 96.6291 17.7559 94.0077C15.6606 91.3984 13.8904 88.0436 12.4333 83.9432L14.3721 82.9091C15.4197 85.9152 16.7564 88.4524 18.3821 90.5206C20.0077 92.6009 21.6816 93.7191 23.4036 93.8875C24.1502 93.9596 24.8245 93.7312 25.4146 93.178C26.0047 92.6369 26.3539 91.9515 26.4261 91.1218C26.5586 89.7631 25.9806 88.3682 24.6921 86.9133C23.4036 85.4583 21.5852 84.1837 19.2491 83.0774L19.6706 81.899L34.5424 83.366L35.1445 77.3057L12.3851 75.0691L9.95264 71.7744L43.0321 75.0331L45.4646 78.3278H45.4886Z" fill="#FF9243"/>
<path d="M71.6198 84.8214L65.093 83.2582L58.6626 109.904L55.6039 106.97L57.5306 98.9742C56.3385 99.5634 55.1343 99.9602 53.906 100.165C52.6777 100.369 51.618 100.369 50.751 100.165C48.4028 99.5995 46.4399 98.0844 44.8624 95.6314C43.297 93.1784 42.5985 90.3887 42.7792 87.2864C44.6818 87.7433 46.5242 87.8155 48.3064 87.5148C50.0887 87.2142 51.1243 86.4687 51.4133 85.2903C51.7625 83.8474 51.3772 81.9836 50.2573 79.6869L43.9713 78.1718L42.0205 74.5645L69.657 81.214L71.6078 84.8214H71.6198ZM58.7589 93.9359L61.5406 82.3924L52.6416 80.252C54.1468 82.705 54.6044 85.1099 54.0385 87.4788C53.6892 88.9337 52.6897 90.028 51.028 90.7374C49.3662 91.4469 47.5719 91.5671 45.6331 91.0981C45.3682 92.2284 45.6331 93.3107 46.4279 94.3688C47.2347 95.427 48.3065 96.1244 49.6793 96.449C53.34 97.3268 56.3626 96.4851 58.7589 93.9359Z" fill="#FF9243"/>
<path d="M110.841 102.629L104.808 99.6949L92.7658 124.321L90.2852 121.074L94.4276 112.597L78.773 116.144L77.2437 113.03L95.0779 109.182L89.1532 103.242L77.8578 105.527L76.4609 102.136L86.805 99.7189C85.5527 98.4083 84.6977 96.9653 84.2642 95.4141C83.8307 93.851 83.915 92.4441 84.5412 91.1575C85.083 90.0512 86.0464 89.3177 87.4192 88.981C88.792 88.6444 90.1527 88.8007 91.4773 89.45C93.2836 90.3278 94.524 91.8309 95.2104 93.9351C95.8847 96.0394 95.7643 98.0355 94.8491 99.9113C94.2952 101.042 92.8501 101.919 90.514 102.545L96.4386 108.485L101.52 98.0836L99.0518 96.8811L98.4737 93.2137L109.709 98.6968L110.841 102.641V102.629ZM88.2983 99.4424C90.8753 98.8051 92.4528 97.8792 93.0428 96.6767C93.38 95.9793 93.4282 95.2819 93.1873 94.5724C92.9465 93.863 92.4768 93.3459 91.7784 93.0092C90.8512 92.5523 89.9119 92.4922 88.9606 92.8409C88.0092 93.1776 87.3228 93.8029 86.8893 94.6927C86.6605 95.1496 86.6846 95.811 86.9375 96.6767C87.1904 97.5425 87.648 98.4684 88.2983 99.4424Z" fill="#FF9243"/>
<path d="M121.678 110.397L116.031 106.79L101.231 129.877L99.1357 126.366L112.948 104.818L109.191 102.425L108.529 98.3847L115.103 102.581C116.055 100.273 116.476 98.072 116.392 95.9678C116.296 93.8755 115.573 92.3965 114.224 91.5307C113.297 90.9415 112.31 90.7612 111.238 90.9776C110.178 91.2061 109.347 91.7832 108.745 92.7211C108.444 93.2021 107.926 94.5609 107.216 96.8095L105.675 95.8235C105.807 93.3584 106.277 91.4826 107.095 90.22C107.987 88.8372 109.251 87.9594 110.913 87.5747C112.563 87.2019 114.104 87.4664 115.525 88.3683C117.319 89.5226 118.355 91.5307 118.632 94.4046C118.909 97.2784 118.331 100.381 116.922 103.724L121.028 106.345L121.69 110.385L121.678 110.397Z" fill="#FF9243"/>
<path d="M144.595 129.203L137.731 123.263L130.542 131.548C129 133.327 126.893 134.193 124.244 134.157L125.4 147.24L122.823 147.42L122.329 128.457C122.317 127.856 122.558 127.267 123.064 126.678C123.497 126.173 124.039 125.872 124.665 125.788C125.291 125.704 125.833 125.848 126.279 126.233C126.989 126.846 127.471 127.532 127.724 128.289C128.603 127.892 129.289 127.411 129.783 126.846L134.973 120.858L130.277 116.794L130.205 112.693L144.535 125.091L144.607 129.191L144.595 129.203Z" fill="#FF9243"/>
<path d="M153.578 138.654L148.87 133.881L129.313 153.108L128.482 148.791L146.293 131.271L143.21 128.145L143.463 124.057L153.819 134.554L153.566 138.642L153.578 138.654Z" fill="#FF9243"/>
<path d="M170.581 159.662L166.403 154.419L144.944 171.506L144.089 167.514L151.723 161.441L145.642 153.818L143.739 155.333C143.438 155.573 143.089 155.694 142.68 155.694C142.282 155.694 141.981 155.573 141.789 155.333C141.066 154.431 140.861 152.988 141.199 150.992C141.524 149.008 142.186 147.613 143.186 146.82C143.824 146.315 144.39 146.375 144.896 147.012L146.22 148.683L155.757 141.096L152.759 137.332L153.433 133.292L171.268 155.621L170.593 159.662H170.581ZM154.577 159.157L164.115 151.569L158.033 143.946L148.496 151.533L154.577 159.157Z" fill="#FF9243"/>
<path d="M191.125 198.933L188.186 192.909L163.512 204.909L163.548 200.821L177.806 193.883L174.338 186.765C173.387 190.384 172.002 192.644 170.172 193.534C168.799 194.196 167.402 194.28 165.957 193.775C164.524 193.27 163.476 192.344 162.826 191.009C161.947 189.205 162.067 186.728 163.199 183.578C164.331 180.428 166.258 177.169 169.003 173.778L170.906 174.884C168.895 177.349 167.438 179.814 166.511 182.291C165.584 184.768 165.511 186.777 166.27 188.328C166.595 189.001 167.149 189.446 167.932 189.674C168.702 189.891 169.473 189.819 170.22 189.458C171.448 188.857 172.339 187.63 172.905 185.779C173.471 183.927 173.604 181.714 173.327 179.141L174.555 178.876L181.094 192.296L186.573 189.626L176.554 169.101L178.095 165.301L192.654 195.134L191.113 198.933H191.125Z" fill="#FF9243"/>
<path d="M198.675 225.003L196.701 218.594L170.461 226.65L171.424 222.526L179.3 220.109C178.18 219.387 177.229 218.558 176.422 217.596C175.615 216.646 175.085 215.744 174.82 214.89C174.11 212.581 174.411 210.128 175.723 207.519C177.036 204.922 179.083 202.902 181.853 201.483C182.431 203.347 183.298 204.97 184.466 206.353C185.634 207.736 186.802 208.253 187.97 207.892C189.391 207.459 190.8 206.172 192.209 204.044L190.306 197.875L192.414 194.364L200.759 221.492L198.651 225.003H198.675ZM184.261 218.594L195.629 215.107L192.943 206.377C191.595 208.914 189.752 210.537 187.428 211.259C185.995 211.704 184.538 211.391 183.093 210.333C181.636 209.275 180.624 207.784 180.034 205.884C178.926 206.22 178.12 207.002 177.614 208.241C177.108 209.467 177.06 210.754 177.469 212.088C178.577 215.684 180.841 217.848 184.261 218.606V218.594Z" fill="#FF9243"/>
<path d="M203.3 267.762L202.758 261.089L175.398 263.289L176.928 259.501L186.344 258.744L175.314 247.104L177.217 244.206L189.608 257.565L191.703 249.449L183.972 240.912L186.188 237.978L193.534 245.637C194.027 243.882 194.834 242.427 195.942 241.26C197.062 240.094 198.326 239.445 199.747 239.336C200.988 239.24 202.095 239.697 203.083 240.707C204.07 241.717 204.624 242.956 204.745 244.435C204.901 246.443 204.251 248.271 202.782 249.918C201.313 251.577 199.53 252.491 197.447 252.647C196.195 252.744 194.702 251.95 192.968 250.255L190.872 258.371L202.421 257.445L202.204 254.716L205.07 252.347L206.069 264.792L203.251 267.774L203.3 267.762ZM194.569 246.779C196.436 248.667 198.037 249.557 199.374 249.449C200.145 249.389 200.771 249.076 201.252 248.499C201.734 247.934 201.951 247.26 201.891 246.491C201.806 245.457 201.373 244.627 200.602 243.978C199.832 243.34 198.94 243.052 197.953 243.136C197.447 243.172 196.881 243.533 196.267 244.194C195.653 244.856 195.087 245.709 194.581 246.779H194.569Z" fill="#FF9243"/>
<path d="M202.143 281.049L202.372 274.352L174.94 273.426L176.891 269.83L202.493 270.696L202.637 266.259L205.78 263.626L205.515 271.418C207.984 271.057 210.103 270.299 211.861 269.145C213.619 267.991 214.523 266.62 214.583 265.021C214.619 263.926 214.27 262.976 213.535 262.183C212.801 261.389 211.873 260.968 210.753 260.932C210.187 260.908 208.754 261.173 206.454 261.702L206.515 259.874C208.706 258.732 210.561 258.179 212.066 258.239C213.716 258.299 215.125 258.936 216.293 260.163C217.461 261.389 218.015 262.844 217.967 264.528C217.894 266.656 216.69 268.568 214.354 270.275C212.018 271.971 209.055 273.065 205.455 273.558L205.286 278.428L202.143 281.061V281.049Z" fill="#FF9243"/>
<path d="M57.7837 8.97028L48.6438 8.06844L44.959 45.4045L40.2265 42.4224L42.3579 20.8505L31.5562 19.7803C35.1086 23.4839 36.7463 26.7184 36.4693 29.4841C36.2646 31.5643 35.3494 33.2477 33.7238 34.5584C32.0981 35.8691 30.2797 36.4222 28.2567 36.2178C25.5111 35.9412 22.7053 34.0293 19.8514 30.446C16.9854 26.8748 14.5649 22.2694 12.578 16.666L15.2393 15.2471C16.6843 19.3594 18.5147 22.8345 20.7304 25.6723C22.9462 28.5101 25.2462 30.0492 27.5944 30.2897C28.618 30.3859 29.5452 30.0733 30.352 29.3278C31.1709 28.5822 31.6285 27.6443 31.7368 26.514C31.9175 24.6623 31.1347 22.7383 29.3646 20.7543C27.6064 18.7702 25.1137 17.0147 21.9106 15.4996L22.4886 13.8763L42.8396 15.8844L43.6584 7.58746L12.5057 4.52121L9.18213 0L54.4601 4.46109L57.7837 8.9823V8.97028Z" fill="#FF9243"/>
<path d="M93.6812 17.8806L84.7461 15.7282L75.9433 52.1985L71.7527 48.1944L74.3899 37.2521C72.7642 38.0577 71.1024 38.6109 69.4165 38.8874C67.7307 39.164 66.2977 39.164 65.1055 38.8874C61.8903 38.1179 59.2049 36.0496 57.0494 32.6828C54.8939 29.3159 53.9426 25.5162 54.2075 21.2595C56.8086 21.8848 59.3254 21.993 61.7699 21.5842C64.2144 21.1753 65.6354 20.1532 66.0207 18.542C66.5024 16.5699 65.9726 14.0087 64.4432 10.8703L55.8452 8.80212L53.1719 3.87207L90.9959 12.9746L93.6692 17.9047L93.6812 17.8806ZM76.0638 30.362L79.8811 14.5619L67.7066 11.6279C69.7658 14.9827 70.392 18.2774 69.6092 21.524C69.1275 23.5201 67.7548 25.0111 65.4909 25.9731C63.227 26.9471 60.7584 27.1034 58.1091 26.4661C57.7358 28.0052 58.1091 29.4963 59.1929 30.9512C60.2887 32.4062 61.7699 33.3561 63.6364 33.8011C68.6459 35.0035 72.7763 33.8612 76.0638 30.362Z" fill="#FF9243"/>
<path d="M147.388 42.2777L139.14 38.2495L122.642 71.9542L119.246 67.5051L124.93 55.8894L103.507 60.7473L101.412 56.4786L125.821 51.2239L117.717 43.0954L102.255 46.2217L100.34 41.5803L114.502 38.2856C112.78 36.4819 111.624 34.5219 111.022 32.3936C110.419 30.2652 110.552 28.3172 111.407 26.5737C112.154 25.0466 113.466 24.0606 115.345 23.6036C117.223 23.1467 119.078 23.3631 120.908 24.253C123.389 25.4554 125.087 27.4996 126.014 30.3855C126.941 33.2713 126.785 35.9889 125.52 38.5621C124.762 40.1133 122.787 41.3037 119.583 42.1574L127.688 50.286L134.648 36.049L131.276 34.4016L130.482 29.3754L145.859 36.8787L147.401 42.2657L147.388 42.2777ZM116.537 37.9008C120.065 37.023 122.233 35.7604 123.04 34.1131C123.497 33.1631 123.569 32.2132 123.232 31.2392C122.895 30.2772 122.257 29.5558 121.305 29.0988C120.029 28.4736 118.741 28.4014 117.452 28.8583C116.151 29.3273 115.212 30.169 114.61 31.3955C114.309 32.0208 114.321 32.9226 114.67 34.1131C115.02 35.3035 115.634 36.5661 116.537 37.9008Z" fill="#FF9243"/>
<path d="M162.272 52.9443L154.541 48.0023L134.275 79.5906L131.409 74.7808L150.327 45.2967L145.197 42.0141L144.282 36.4828L153.277 42.2425C154.578 39.0801 155.168 36.0619 155.035 33.2001C154.903 30.3262 153.915 28.3061 152.073 27.1157C150.808 26.3101 149.448 26.0576 147.991 26.3582C146.533 26.6708 145.402 27.4644 144.571 28.751C144.149 29.4004 143.451 31.2642 142.475 34.3424L140.368 32.9957C140.549 29.6168 141.199 27.0556 142.307 25.3241C143.523 23.4242 145.257 22.2217 147.521 21.7047C149.785 21.1876 151.892 21.5484 153.831 22.7989C156.287 24.3741 157.708 27.1277 158.082 31.0597C158.455 34.9918 157.66 39.2484 155.722 43.8057L161.345 47.401L162.26 52.9323L162.272 52.9443Z" fill="#FF9243"/>
<path d="M193.642 78.7129L184.249 70.5723L174.399 81.9114C172.279 84.3524 169.413 85.5308 165.777 85.4827L167.354 103.399L163.826 103.652L163.163 77.6908C163.151 76.8611 163.476 76.0555 164.175 75.2498C164.777 74.5524 165.512 74.1556 166.367 74.0353C167.222 73.9151 167.956 74.1195 168.57 74.6486C169.534 75.4903 170.196 76.4282 170.545 77.4623C171.749 76.9212 172.689 76.2599 173.363 75.4903L180.468 67.3016L174.037 61.7343L173.929 56.1309L193.545 73.1215L193.654 78.7249L193.642 78.7129Z" fill="#FF9243"/>
<path d="M205.949 91.6745L199.506 85.1332L172.725 111.443L171.593 105.539L195.99 81.5619L191.775 77.2811L192.112 71.6777L206.286 86.059L205.949 91.6504V91.6745Z" fill="#FF9243"/>
<path d="M229.19 120.425L223.47 113.246L194.076 136.622L192.92 131.151L203.372 122.842L195.051 112.405L192.438 114.485C192.028 114.81 191.535 114.978 190.981 114.978C190.427 114.978 190.017 114.81 189.764 114.485C188.777 113.246 188.5 111.262 188.958 108.545C189.403 105.827 190.318 103.927 191.691 102.833C192.558 102.136 193.341 102.232 194.039 103.098L195.858 105.382L208.923 94.9932L204.817 89.8467L205.744 84.3154L230.141 114.906L229.214 120.437L229.19 120.425ZM207.274 119.728L220.339 109.338L212.018 98.9011L198.953 109.29L207.274 119.728Z" fill="#FF9243"/>
<path d="M257.296 174.223L253.274 165.974L219.496 182.388L219.556 176.796L239.076 167.309L234.332 157.569C233.031 162.523 231.129 165.614 228.624 166.828C226.745 167.742 224.831 167.85 222.856 167.153C220.893 166.455 219.46 165.193 218.581 163.365C217.377 160.888 217.545 157.497 219.099 153.192C220.652 148.888 223.301 144.414 227.046 139.785L229.647 141.3C226.902 144.679 224.891 148.058 223.626 151.437C222.362 154.816 222.254 157.569 223.289 159.698C223.735 160.623 224.493 161.237 225.553 161.537C226.613 161.838 227.66 161.742 228.684 161.249C230.358 160.431 231.586 158.76 232.357 156.222C233.128 153.685 233.332 150.655 232.947 147.132L234.633 146.783L243.58 165.145L251.082 161.501L237.39 133.388L239.498 128.193L259.403 169.053L257.296 174.247V174.223Z" fill="#FF9243"/>
<path d="M267.628 209.96L264.943 201.194L229.021 212.184L230.346 206.545L241.123 203.25C239.594 202.264 238.282 201.122 237.186 199.811C236.09 198.501 235.355 197.274 234.994 196.096C234.019 192.933 234.44 189.578 236.246 186.007C238.053 182.448 240.847 179.694 244.652 177.746C245.435 180.296 246.627 182.52 248.228 184.408C249.83 186.296 251.431 187.005 253.021 186.512C254.96 185.923 256.899 184.167 258.825 181.245L256.236 172.792L259.126 167.982L270.53 205.126L267.64 209.936L267.628 209.96ZM247.903 201.17L263.473 196.408L259.801 184.456C257.958 187.931 255.441 190.156 252.238 191.13C250.263 191.731 248.288 191.31 246.302 189.855C244.315 188.4 242.918 186.368 242.123 183.771C240.606 184.24 239.498 185.31 238.811 186.981C238.113 188.665 238.053 190.42 238.619 192.248C240.124 197.166 243.219 200.136 247.903 201.182V201.17Z" fill="#FF9243"/>
<path d="M273.914 268.508L273.179 259.369L235.729 262.351L237.824 257.168L250.721 256.146L235.632 240.202L238.245 236.234L255.201 254.535L258.079 243.436L247.518 231.737L250.552 227.732L260.607 238.218C261.282 235.825 262.39 233.829 263.919 232.23C265.448 230.63 267.194 229.753 269.133 229.596C270.831 229.464 272.348 230.089 273.697 231.472C275.046 232.855 275.804 234.562 275.973 236.582C276.19 239.324 275.299 241.825 273.288 244.098C271.277 246.37 268.844 247.609 265.99 247.837C264.268 247.97 262.233 246.887 259.861 244.567L256.983 255.665L272.794 254.403L272.493 250.663L276.419 247.429L277.779 264.467L273.914 268.544V268.508ZM261.98 239.769C264.533 242.354 266.725 243.569 268.555 243.424C269.615 243.34 270.47 242.907 271.132 242.138C271.794 241.356 272.083 240.442 271.999 239.396C271.891 237.977 271.301 236.835 270.241 235.957C269.181 235.079 267.965 234.695 266.616 234.803C265.918 234.863 265.147 235.344 264.304 236.246C263.449 237.148 262.679 238.326 261.992 239.781L261.98 239.769Z" fill="#FF9243"/>
<path d="M272.324 286.748L272.637 277.585L235.09 276.287L237.764 271.381L272.806 272.595L273.023 266.511L277.322 262.903L276.948 273.569C280.332 273.076 283.234 272.042 285.643 270.467C288.051 268.892 289.291 267.016 289.364 264.815C289.412 263.312 288.942 262.026 287.931 260.931C286.919 259.837 285.655 259.272 284.125 259.212C283.343 259.188 281.38 259.537 278.237 260.258L278.321 257.757C281.332 256.194 283.86 255.448 285.92 255.52C288.172 255.605 290.098 256.482 291.7 258.166C293.301 259.849 294.06 261.845 293.976 264.142C293.879 267.052 292.218 269.673 289.027 271.994C285.823 274.315 281.765 275.806 276.84 276.467L276.611 283.129L272.312 286.736L272.324 286.748Z" fill="#FF9243"/>
</g>
<defs>
<clipPath id="clip0_9_1234">
<rect width="564" height="532" fill="white" transform="translate(-270)"/>
</clipPath>
</defs>
</svg>
