<svg width="382" height="336" viewBox="0 0 382 336" fill="none" xmlns="http://www.w3.org/2000/svg">
<g filter="url(#filter0_d_9_1233)">
<path d="M333.922 227.327C333.922 226.665 332.929 224.348 330.613 224.348C328.601 224.348 323.002 224.679 323.002 224.679C323.002 224.679 333.26 221.039 332.929 219.716C332.267 217.068 326.973 216.737 325.318 217.73C323.501 218.819 319.693 219.716 318.038 220.377C320.685 214.421 318.7 205.817 317.376 204.163C316.053 202.508 315.722 202.839 314.398 203.832C314.398 202.508 312.743 201.846 312.082 202.177C311.42 202.508 306.787 212.766 302.816 212.766C298.845 212.766 293.55 217.399 292.888 218.061C292.227 218.723 291.234 218.392 291.234 218.392C285.608 214.752 263.437 204.163 256.819 201.184C250.201 198.206 249.539 193.573 249.539 193.573C249.539 193.573 246.56 152.871 244.244 141.289C241.928 129.707 233.324 124.412 229.022 123.089C224.72 121.765 217.109 123.089 208.836 115.478C200.563 107.867 202.549 100.255 203.872 97.6082C205.196 94.9608 206.189 94.299 207.513 90.9899C211.814 92.3135 210.491 88.3426 212.145 86.3571C213.8 84.3716 217.771 79.0769 217.771 74.1132C217.771 69.1495 210.491 69.7088 210.491 69.7088C210.491 69.7088 213.469 62.8621 210.491 53.5965C208.012 45.8895 195.692 44.364 191.619 44.0695C191.622 44.0596 191.625 44.0529 191.629 44.0529V44C191.629 44 191.39 44.0033 190.967 44.0265C190.543 44.0033 190.305 44 190.305 44V44.0529C190.305 44.0529 190.312 44.0596 190.315 44.0695C186.238 44.364 173.918 45.8895 171.443 53.5965C168.465 62.8621 171.443 69.7088 171.443 69.7088C171.443 69.7088 164.163 69.1495 164.163 74.1132C164.163 79.0769 168.134 84.3716 169.788 86.3571C171.443 88.3426 170.119 92.3135 174.421 90.9899C175.745 94.299 176.737 94.9608 178.061 97.6082C179.385 100.255 181.37 107.867 173.097 115.478C164.825 123.089 157.214 121.765 152.912 123.089C148.61 124.412 140.006 129.707 137.69 141.289C135.373 152.871 132.395 193.573 132.395 193.573C132.395 193.573 131.733 198.206 125.115 201.184C118.497 204.163 96.3252 214.752 90.6997 218.392C90.6997 218.392 89.707 218.723 89.0451 218.061C88.3833 217.399 83.0887 212.766 79.1177 212.766C75.1467 212.766 70.5139 202.508 69.8521 202.177C69.1903 201.846 67.5357 202.508 67.5357 203.832C66.212 202.839 65.8811 202.508 64.5574 204.163C63.2338 205.817 61.2483 214.421 63.8956 220.377C62.241 219.716 58.4322 218.819 56.6155 217.73C54.9609 216.737 49.6663 217.068 49.0045 219.716C48.6735 221.039 58.9319 224.679 58.9319 224.679C58.9319 224.679 53.3328 224.348 51.3209 224.348C49.0045 224.348 48.0117 226.665 48.0117 227.327C48.0117 227.989 56.9464 228.981 59.2628 228.981C57.2773 229.643 53.9682 229.974 53.9682 231.298C53.9682 232.621 57.2773 232.952 61.5792 232.952C65.8811 232.952 72.8303 232.621 75.8085 231.629C78.7868 230.636 81.1032 231.298 81.1032 231.298C81.1032 231.298 75.8085 239.571 75.8085 242.549C75.8085 245.527 78.4559 254.131 80.4413 256.778C82.4268 259.425 93.0161 263.396 97.318 266.706C101.62 270.015 116.18 279.28 125.446 281.266C125.446 281.266 160.347 284.529 190.967 283.926C221.586 284.529 256.488 281.266 256.488 281.266C265.753 279.28 280.314 270.015 284.616 266.706C288.918 263.396 299.507 259.425 301.492 256.778C303.478 254.131 306.125 245.527 306.125 242.549C306.125 239.571 300.83 231.298 300.83 231.298C300.83 231.298 303.147 230.636 306.125 231.629C309.103 232.621 316.053 232.952 320.354 232.952C324.656 232.952 327.965 232.621 327.965 231.298C327.965 229.974 324.656 229.643 322.671 228.981C324.987 228.981 333.922 227.989 333.922 227.327ZM69.8521 222.032C68.1975 220.377 67.8666 211.112 67.8666 211.112C67.8666 211.112 73.4921 217.73 73.4921 220.047C73.4921 222.363 71.5067 223.687 69.8521 222.032ZM158.868 213.428C154.897 229.974 144.308 230.967 140.668 231.298C137.028 231.629 111.216 225.341 107.576 226.334L143.315 215.414C143.315 215.414 151.588 212.766 152.581 207.141C153.573 201.515 159.53 176.366 159.53 176.366C159.53 176.366 162.839 196.883 158.868 213.428ZM241.266 231.298C237.626 230.967 227.036 229.974 223.066 213.428C219.095 196.883 222.404 176.366 222.404 176.366C222.404 176.366 228.36 201.515 229.353 207.141C230.346 212.766 238.618 215.414 238.618 215.414L274.357 226.334C270.717 225.341 244.906 231.629 241.266 231.298ZM312.082 222.032C310.427 223.687 308.441 222.363 308.441 220.047C308.441 217.73 314.067 211.112 314.067 211.112C314.067 211.112 313.736 220.377 312.082 222.032Z" fill="white"/>
<path d="M333.922 227.327C333.922 226.665 332.929 224.348 330.613 224.348C328.601 224.348 323.002 224.679 323.002 224.679C323.002 224.679 333.26 221.039 332.929 219.716C332.267 217.068 326.973 216.737 325.318 217.73C323.501 218.819 319.693 219.716 318.038 220.377C320.685 214.421 318.7 205.817 317.376 204.163C316.053 202.508 315.722 202.839 314.398 203.832C314.398 202.508 312.743 201.846 312.082 202.177C311.42 202.508 306.787 212.766 302.816 212.766C298.845 212.766 293.55 217.399 292.888 218.061C292.227 218.723 291.234 218.392 291.234 218.392C285.608 214.752 263.437 204.163 256.819 201.184C250.201 198.206 249.539 193.573 249.539 193.573C249.539 193.573 246.56 152.871 244.244 141.289C241.928 129.707 233.324 124.412 229.022 123.089C224.72 121.765 217.109 123.089 208.836 115.478C200.563 107.867 202.549 100.255 203.872 97.6082C205.196 94.9608 206.189 94.299 207.513 90.9899C211.814 92.3135 210.491 88.3426 212.145 86.3571C213.8 84.3716 217.771 79.0769 217.771 74.1132C217.771 69.1495 210.491 69.7088 210.491 69.7088C210.491 69.7088 213.469 62.8621 210.491 53.5965C208.012 45.8895 195.692 44.364 191.619 44.0695C191.622 44.0596 191.625 44.0529 191.629 44.0529V44C191.629 44 191.39 44.0033 190.967 44.0265C190.543 44.0033 190.305 44 190.305 44V44.0529C190.305 44.0529 190.312 44.0596 190.315 44.0695C186.238 44.364 173.918 45.8895 171.443 53.5965C168.465 62.8621 171.443 69.7088 171.443 69.7088C171.443 69.7088 164.163 69.1495 164.163 74.1132C164.163 79.0769 168.134 84.3716 169.788 86.3571C171.443 88.3426 170.119 92.3135 174.421 90.9899C175.745 94.299 176.737 94.9608 178.061 97.6082C179.385 100.255 181.37 107.867 173.097 115.478C164.825 123.089 157.214 121.765 152.912 123.089C148.61 124.412 140.006 129.707 137.69 141.289C135.373 152.871 132.395 193.573 132.395 193.573C132.395 193.573 131.733 198.206 125.115 201.184C118.497 204.163 96.3252 214.752 90.6997 218.392C90.6997 218.392 89.707 218.723 89.0451 218.061C88.3833 217.399 83.0887 212.766 79.1177 212.766C75.1467 212.766 70.5139 202.508 69.8521 202.177C69.1903 201.846 67.5357 202.508 67.5357 203.832C66.212 202.839 65.8811 202.508 64.5574 204.163C63.2338 205.817 61.2483 214.421 63.8956 220.377C62.241 219.716 58.4322 218.819 56.6155 217.73C54.9609 216.737 49.6663 217.068 49.0045 219.716C48.6735 221.039 58.9319 224.679 58.9319 224.679C58.9319 224.679 53.3328 224.348 51.3209 224.348C49.0045 224.348 48.0117 226.665 48.0117 227.327C48.0117 227.989 56.9464 228.981 59.2628 228.981C57.2773 229.643 53.9682 229.974 53.9682 231.298C53.9682 232.621 57.2773 232.952 61.5792 232.952C65.8811 232.952 72.8303 232.621 75.8085 231.629C78.7868 230.636 81.1032 231.298 81.1032 231.298C81.1032 231.298 75.8085 239.571 75.8085 242.549C75.8085 245.527 78.4559 254.131 80.4413 256.778C82.4268 259.425 93.0161 263.396 97.318 266.706C101.62 270.015 116.18 279.28 125.446 281.266C125.446 281.266 160.347 284.529 190.967 283.926C221.586 284.529 256.488 281.266 256.488 281.266C265.753 279.28 280.314 270.015 284.616 266.706C288.918 263.396 299.507 259.425 301.492 256.778C303.478 254.131 306.125 245.527 306.125 242.549C306.125 239.571 300.83 231.298 300.83 231.298C300.83 231.298 303.147 230.636 306.125 231.629C309.103 232.621 316.053 232.952 320.354 232.952C324.656 232.952 327.965 232.621 327.965 231.298C327.965 229.974 324.656 229.643 322.671 228.981C324.987 228.981 333.922 227.989 333.922 227.327ZM69.8521 222.032C68.1975 220.377 67.8666 211.112 67.8666 211.112C67.8666 211.112 73.4921 217.73 73.4921 220.047C73.4921 222.363 71.5067 223.687 69.8521 222.032ZM158.868 213.428C154.897 229.974 144.308 230.967 140.668 231.298C137.028 231.629 111.216 225.341 107.576 226.334L143.315 215.414C143.315 215.414 151.588 212.766 152.581 207.141C153.573 201.515 159.53 176.366 159.53 176.366C159.53 176.366 162.839 196.883 158.868 213.428ZM241.266 231.298C237.626 230.967 227.036 229.974 223.066 213.428C219.095 196.883 222.404 176.366 222.404 176.366C222.404 176.366 228.36 201.515 229.353 207.141C230.346 212.766 238.618 215.414 238.618 215.414L274.357 226.334C270.717 225.341 244.906 231.629 241.266 231.298ZM312.082 222.032C310.427 223.687 308.441 222.363 308.441 220.047C308.441 217.73 314.067 211.112 314.067 211.112C314.067 211.112 313.736 220.377 312.082 222.032Z" fill="url(#paint0_radial_9_1233)"/>
</g>
<defs>
<filter id="filter0_d_9_1233" x="0.71172" y="0.700001" width="380.51" height="334.6" filterUnits="userSpaceOnUse" color-interpolation-filters="sRGB">
<feFlood flood-opacity="0" result="BackgroundImageFix"/>
<feColorMatrix in="SourceAlpha" type="matrix" values="0 0 0 0 0 0 0 0 0 0 0 0 0 0 0 0 0 0 127 0" result="hardAlpha"/>
<feOffset dy="4"/>
<feGaussianBlur stdDeviation="23.65"/>
<feComposite in2="hardAlpha" operator="out"/>
<feColorMatrix type="matrix" values="0 0 0 0 1 0 0 0 0 0.713726 0 0 0 0 0.156863 0 0 0 0.5 0"/>
<feBlend mode="normal" in2="BackgroundImageFix" result="effect1_dropShadow_9_1233"/>
<feBlend mode="normal" in="SourceGraphic" in2="effect1_dropShadow_9_1233" result="shape"/>
</filter>
<radialGradient id="paint0_radial_9_1233" cx="0" cy="0" r="1" gradientUnits="userSpaceOnUse" gradientTransform="translate(190.967 86.1608) rotate(90) scale(197.84 74.9525)">
<stop stop-color="#FFB11B"/>
<stop offset="1" stop-color="#F78837"/>
</radialGradient>
</defs>
</svg>
