<svg width="44" height="44" viewBox="0 0 44 44" fill="none" xmlns="http://www.w3.org/2000/svg">
<rect width="44" height="44" rx="22" fill="url(#paint0_linear_37_19977)"/>
<mask id="mask0_37_19977" style="mask-type:alpha" maskUnits="userSpaceOnUse" x="10" y="10" width="24" height="24">
<rect x="10" y="10" width="24" height="24" fill="#D9D9D9"/>
</mask>
<g mask="url(#mask0_37_19977)">
<path d="M22.0001 24.4996C21.0168 24.4996 20.1793 24.1538 19.4876 23.4621C18.7959 22.7704 18.4501 21.9329 18.4501 20.9496V14.8996C18.4501 13.9163 18.7959 13.0788 19.4876 12.3871C20.1793 11.6954 21.0168 11.3496 22.0001 11.3496C22.9834 11.3496 23.8209 11.6954 24.5126 12.3871C25.2043 13.0788 25.5501 13.9163 25.5501 14.8996V20.9496C25.5501 21.9329 25.2043 22.7704 24.5126 23.4621C23.8209 24.1538 22.9834 24.4996 22.0001 24.4996ZM20.6501 30.5246V28.8496C18.9334 28.6163 17.4751 27.8954 16.2751 26.6871C15.0751 25.4788 14.3334 24.0163 14.0501 22.2996C13.9834 21.9496 14.0751 21.6371 14.3251 21.3621C14.5751 21.0871 14.8918 20.9496 15.2751 20.9496C15.6418 20.9496 15.9626 21.0788 16.2376 21.3371C16.5126 21.5954 16.6918 21.9079 16.7751 22.2746C17.0751 23.4746 17.7126 24.4454 18.6876 25.1871C19.6626 25.9288 20.7668 26.2996 22.0001 26.2996C23.2334 26.2996 24.3376 25.9288 25.3126 25.1871C26.2876 24.4454 26.9251 23.4746 27.2251 22.2746C27.3251 21.9079 27.5084 21.5954 27.7751 21.3371C28.0418 21.0788 28.3584 20.9496 28.7251 20.9496C29.1084 20.9496 29.4251 21.0829 29.6751 21.3496C29.9251 21.6163 30.0168 21.9329 29.9501 22.2996C29.6668 23.9996 28.9209 25.4579 27.7126 26.6746C26.5043 27.8913 25.0334 28.6163 23.3001 28.8496V30.5246C23.3001 30.8913 23.1709 31.2038 22.9126 31.4621C22.6543 31.7204 22.3418 31.8496 21.9751 31.8496C21.6084 31.8496 21.2959 31.7204 21.0376 31.4621C20.7793 31.2038 20.6501 30.8913 20.6501 30.5246Z" fill="white"/>
</g>
<defs>
<linearGradient id="paint0_linear_37_19977" x1="22" y1="0" x2="22" y2="44" gradientUnits="userSpaceOnUse">
<stop stop-color="white"/>
<stop offset="1" stop-color="white" stop-opacity="0"/>
</linearGradient>
</defs>
</svg>
